Giphurs-Regular.ufo
<glyph name="exclam" format="2">
  <advance width="532"/>
  <unicode hex="0021"/>
  <outline>
    <contour>
      <point x="137" y="108" type="curve" smooth="yes"/>
      <point x="137" y="180"/>
      <point x="193" y="236"/>
      <point x="265" y="236" type="curve" smooth="yes"/>
      <point x="337" y="236"/>
      <point x="393" y="180"/>
      <point x="393" y="108" type="curve" smooth="yes"/>
      <point x="393" y="36"/>
      <point x="337" y="-20"/>
      <point x="265" y="-20" type="curve" smooth="yes"/>
      <point x="193" y="-20"/>
      <point x="137" y="36"/>
    </contour>
    <contour>
      <point x="159" y="1480" type="line"/>
      <point x="371" y="1480" type="line"/>
      <point x="355" y="452" type="line"/>
      <point x="175" y="452" type="line"/>
    </contour>
  </outline>
</glyph>
<glyph name="quotedbl" format="2">
  <advance width="808"/>
  <unicode hex="0022"/>
  <outline>
    <contour>
      <point x="496" y="968" type="line"/>
      <point x="484" y="1480" type="line"/>
      <point x="668" y="1480" type="line"/>
      <point x="656" y="968" type="line"/>
    </contour>
    <contour>
      <point x="152" y="968" type="line"/>
      <point x="140" y="1480" type="line"/>
      <point x="324" y="1480" type="line"/>
      <point x="312" y="968" type="line"/>
    </contour>
  </outline>
</glyph>
<glyph name="numbersign" format="2">
  <advance width="1498"/>
  <unicode hex="0023"/>
  <outline>
    <contour>
      <point x="140" y="440" type="line"/>
      <point x="140" y="600" type="line"/>
      <point x="1320" y="600" type="line"/>
      <point x="1320" y="440" type="line"/>
    </contour>
    <contour>
      <point x="178" y="880" type="line"/>
      <point x="178" y="1040" type="line"/>
      <point x="1358" y="1040" type="line"/>
      <point x="1358" y="880" type="line"/>
    </contour>
    <contour>
      <point x="986" y="1480" type="line"/>
      <point x="1170" y="1480" type="line"/>
      <point x="976" y="0" type="line"/>
      <point x="919" y="0"/>
      <point x="849" y="0"/>
      <point x="792" y="0" type="curve"/>
    </contour>
    <contour>
      <point x="522" y="1480" type="line"/>
      <point x="706" y="1480" type="line"/>
      <point x="512" y="0" type="line"/>
      <point x="455" y="0"/>
      <point x="385" y="0"/>
      <point x="328" y="0" type="curve"/>
    </contour>
  </outline>
</glyph>
<glyph name="ampersand" format="2">
  <advance width="1355"/>
  <unicode hex="0026"/>
  <outline>
    <contour>
      <point x="316" y="885" type="line"/>
      <point x="260" y="960"/>
      <point x="228" y="1026"/>
      <point x="228" y="1128" type="curve" smooth="yes"/>
      <point x="228" y="1347"/>
      <point x="400" y="1500"/>
      <point x="600" y="1500" type="curve" smooth="yes"/>
      <point x="800" y="1500"/>
      <point x="972" y="1372"/>
      <point x="972" y="1172" type="curve" smooth="yes"/>
      <point x="792" y="1152" type="line" smooth="yes"/>
      <point x="792" y="1252"/>
      <point x="720" y="1340"/>
      <point x="600" y="1340" type="curve" smooth="yes"/>
      <point x="492" y="1340"/>
      <point x="408" y="1268"/>
      <point x="408" y="1128" type="curve" smooth="yes"/>
      <point x="408" y="1068"/>
      <point x="422" y="1023"/>
      <point x="459" y="976" type="curve"/>
      <point x="1255" y="0" type="line"/>
      <point x="1184" y="0"/>
      <point x="1112" y="0"/>
      <point x="1041" y="0" type="curve"/>
    </contour>
    <contour>
      <point x="281" y="418" type="curve"/>
      <point x="281" y="262"/>
      <point x="400" y="140"/>
      <point x="600" y="140" type="curve" smooth="yes"/>
      <point x="900" y="140"/>
      <point x="1020" y="420"/>
      <point x="1020" y="620" type="curve" smooth="yes"/>
      <point x="1191" y="573" type="line"/>
      <point x="1171" y="288"/>
      <point x="1020" y="-20"/>
      <point x="600" y="-20" type="curve" smooth="yes"/>
      <point x="300" y="-20"/>
      <point x="100" y="175"/>
      <point x="100" y="418" type="curve" smooth="yes"/>
      <point x="100" y="661"/>
      <point x="340" y="776"/>
      <point x="600" y="926" type="curve" smooth="yes"/>
      <point x="730" y="1001"/>
      <point x="792" y="1052"/>
      <point x="792" y="1152" type="curve"/>
      <point x="972" y="1172" type="line"/>
      <point x="972" y="972"/>
      <point x="799" y="855"/>
      <point x="600" y="740" type="curve" smooth="yes"/>
      <point x="427" y="640"/>
      <point x="281" y="561"/>
    </contour>
  </outline>
</glyph>
<glyph name="quotesingle" format="2">
  <advance width="464"/>
  <unicode hex="0027"/>
  <outline>
    <contour>
      <point x="152" y="968" type="line"/>
      <point x="140" y="1480" type="line"/>
      <point x="324" y="1480" type="line"/>
      <point x="312" y="968" type="line"/>
    </contour>
  </outline>
</glyph>
<glyph name="parenright" format="2">
  <advance width="818"/>
  <unicode hex="0029"/>
  <outline>
    <contour>
      <point x="718" y="660" type="curve" smooth="yes"/>
      <point x="718" y="60"/>
      <point x="284" y="-285"/>
      <point x="134" y="-340" type="curve"/>
      <point x="50" y="-195" type="line"/>
      <point x="163" y="-154"/>
      <point x="538" y="120"/>
      <point x="538" y="660" type="curve" smooth="yes"/>
      <point x="538" y="1200"/>
      <point x="163" y="1474"/>
      <point x="50" y="1515" type="curve"/>
      <point x="134" y="1660" type="line"/>
      <point x="284" y="1605"/>
      <point x="718" y="1260"/>
    </contour>
  </outline>
</glyph>
<glyph name="asterisk" format="2">
  <advance width="1036"/>
  <unicode hex="002A"/>
  <outline>
    <contour>
      <point x="100" y="1109" type="line"/>
      <point x="156" y="1284" type="line"/>
      <point x="543" y="1146" type="line"/>
      <point x="518" y="1070" type="line"/>
      <point x="493" y="994" type="line"/>
    </contour>
    <contour>
      <point x="351" y="684" type="line"/>
      <point x="203" y="792" type="line"/>
      <point x="453" y="1117" type="line"/>
      <point x="518" y="1070" type="line"/>
      <point x="583" y="1023" type="line"/>
    </contour>
    <contour>
      <point x="833" y="792" type="line"/>
      <point x="685" y="684" type="line"/>
      <point x="453" y="1023" type="line"/>
      <point x="518" y="1070" type="line"/>
      <point x="583" y="1117" type="line"/>
    </contour>
    <contour>
      <point x="880" y="1284" type="line"/>
      <point x="936" y="1109" type="line"/>
      <point x="543" y="994" type="line"/>
      <point x="518" y="1070" type="line"/>
      <point x="493" y="1146" type="line"/>
    </contour>
    <contour>
      <point x="426" y="1480" type="line"/>
      <point x="610" y="1480" type="line"/>
      <point x="598" y="1070" type="line"/>
      <point x="518" y="1070" type="line"/>
      <point x="438" y="1070" type="line"/>
    </contour>
  </outline>
</glyph>
<glyph name="plus" format="2">
  <advance width="1232"/>
  <unicode hex="002B"/>
  <outline>
    <contour>
      <point x="526" y="1136" type="line"/>
      <point x="706" y="1136" type="line"/>
      <point x="706" y="184" type="line"/>
      <point x="526" y="184" type="line"/>
    </contour>
    <contour>
      <point x="140" y="580" type="line"/>
      <point x="140" y="740" type="line"/>
      <point x="1092" y="740" type="line"/>
      <point x="1092" y="580" type="line"/>
    </contour>
  </outline>
</glyph>
<glyph name="comma" format="2">
  <advance width="500"/>
  <unicode hex="002C"/>
  <outline>
    <contour>
      <point x="106" y="107" type="curve" smooth="yes"/>
      <point x="106" y="179"/>
      <point x="159" y="236"/>
      <point x="231" y="236" type="curve" smooth="yes"/>
      <point x="303" y="236"/>
      <point x="358" y="179"/>
      <point x="358" y="107" type="curve" smooth="yes"/>
      <point x="358" y="35"/>
      <point x="303" y="-20"/>
      <point x="231" y="-20" type="curve" smooth="yes"/>
      <point x="159" y="-20"/>
      <point x="106" y="35"/>
    </contour>
    <contour>
      <point x="121" y="-161" type="line"/>
      <point x="178" y="-148"/>
      <point x="267" y="-100"/>
      <point x="267" y="20" type="curve" smooth="yes"/>
      <point x="267" y="48"/>
      <point x="232" y="108"/>
      <point x="232" y="108" type="curve"/>
      <point x="231" y="236" type="line"/>
      <point x="301" y="236"/>
      <point x="394" y="190"/>
      <point x="394" y="20" type="curve" smooth="yes"/>
      <point x="394" y="-160"/>
      <point x="228" y="-256"/>
      <point x="151" y="-276" type="curve"/>
    </contour>
  </outline>
</glyph>
<glyph name="period" format="2">
  <advance width="500"/>
  <unicode hex="002E"/>
  <outline>
    <contour>
      <point x="124" y="107" type="curve" smooth="yes"/>
      <point x="124" y="179"/>
      <point x="177" y="236"/>
      <point x="249" y="236" type="curve" smooth="yes"/>
      <point x="321" y="236"/>
      <point x="376" y="179"/>
      <point x="376" y="107" type="curve" smooth="yes"/>
      <point x="376" y="35"/>
      <point x="321" y="-20"/>
      <point x="249" y="-20" type="curve" smooth="yes"/>
      <point x="177" y="-20"/>
      <point x="124" y="35"/>
    </contour>
  </outline>
</glyph>
<glyph name="zero" format="2">
  <advance width="1232"/>
  <unicode hex="0030"/>
  <outline>
    <contour>
      <point x="295" y="740" type="curve" smooth="yes"/>
      <point x="295" y="340"/>
      <point x="425" y="148"/>
      <point x="616" y="148" type="curve" smooth="yes"/>
      <point x="807" y="148"/>
      <point x="937" y="340"/>
      <point x="937" y="740" type="curve" smooth="yes"/>
      <point x="937" y="1140"/>
      <point x="807" y="1332"/>
      <point x="616" y="1332" type="curve" smooth="yes"/>
      <point x="425" y="1332"/>
      <point x="295" y="1140"/>
    </contour>
    <contour>
      <point x="105" y="740" type="curve" smooth="yes"/>
      <point x="105" y="1240"/>
      <point x="316" y="1500"/>
      <point x="616" y="1500" type="curve" smooth="yes"/>
      <point x="916" y="1500"/>
      <point x="1127" y="1240"/>
      <point x="1127" y="740" type="curve" smooth="yes"/>
      <point x="1127" y="240"/>
      <point x="916" y="-20"/>
      <point x="616" y="-20" type="curve" smooth="yes"/>
      <point x="316" y="-20"/>
      <point x="105" y="240"/>
    </contour>
  </outline>
</glyph>
<glyph name="one" format="2">
  <advance width="1232"/>
  <unicode hex="0031"/>
  <outline>
    <contour>
      <point x="581" y="1026" type="line"/>
      <point x="265" y="1026" type="line"/>
      <point x="265" y="1184" type="line"/>
      <point x="345" y="1184" type="line" smooth="yes"/>
      <point x="473" y="1184"/>
      <point x="593" y="1280"/>
      <point x="593" y="1408" type="curve" smooth="yes"/>
      <point x="593" y="1480" type="line"/>
      <point x="771" y="1480" type="line"/>
      <point x="771" y="1040" type="line"/>
      <point x="771" y="0" type="line"/>
      <point x="581" y="0" type="line"/>
    </contour>
  </outline>
</glyph>
<glyph name="colon" format="2">
  <advance width="500"/>
  <unicode hex="003A"/>
  <outline>
    <contour>
      <point x="124" y="931" type="curve" smooth="yes"/>
      <point x="124" y="1003"/>
      <point x="177" y="1060"/>
      <point x="249" y="1060" type="curve" smooth="yes"/>
      <point x="321" y="1060"/>
      <point x="376" y="1003"/>
      <point x="376" y="931" type="curve" smooth="yes"/>
      <point x="376" y="859"/>
      <point x="321" y="804"/>
      <point x="249" y="804" type="curve" smooth="yes"/>
      <point x="177" y="804"/>
      <point x="124" y="859"/>
    </contour>
    <contour>
      <point x="124" y="107" type="curve" smooth="yes"/>
      <point x="124" y="179"/>
      <point x="177" y="236"/>
      <point x="249" y="236" type="curve" smooth="yes"/>
      <point x="321" y="236"/>
      <point x="376" y="179"/>
      <point x="376" y="107" type="curve" smooth="yes"/>
      <point x="376" y="35"/>
      <point x="321" y="-20"/>
      <point x="249" y="-20" type="curve" smooth="yes"/>
      <point x="177" y="-20"/>
      <point x="124" y="35"/>
    </contour>
  </outline>
</glyph>
<glyph name="less" format="2">
  <advance width="1232"/>
  <unicode hex="003C"/>
  <outline>
    <contour>
      <point x="140" y="576" type="line"/>
      <point x="140" y="744" type="line"/>
      <point x="1092" y="1122" type="line"/>
      <point x="1092" y="950" type="line"/>
      <point x="350" y="660" type="line"/>
      <point x="1092" y="370" type="line"/>
      <point x="1092" y="198" type="line"/>
    </contour>
  </outline>
</glyph>
<glyph name="greater" format="2">
  <advance width="1232"/>
  <unicode hex="003E"/>
  <outline>
    <contour>
      <point x="1092" y="576" type="line"/>
      <point x="140" y="198" type="line"/>
      <point x="140" y="370" type="line"/>
      <point x="882" y="660" type="line"/>
      <point x="140" y="950" type="line"/>
      <point x="140" y="1122" type="line"/>
      <point x="1092" y="744" type="line"/>
    </contour>
  </outline>
</glyph>
<glyph name="A" format="2">
  <advance width="1356"/>
  <unicode hex="0041"/>
  <anchor x="1286" y="0" name="bottom_right"/>
  <anchor x="678" y="1380" name="top_center"/>
  <anchor x="678" y="-0" name="bottom_center"/>
  <anchor x="490" y="1480" name="top_left"/>
  <anchor x="678" y="-90" name="bottom_ypogegrammeni"/>
  <outline>
    <contour>
      <point x="304" y="604" type="line"/>
      <point x="1030" y="604" type="line"/>
      <point x="1030" y="436" type="line"/>
      <point x="304" y="436" type="line"/>
    </contour>
    <contour>
      <point x="678" y="1230" type="line"/>
      <point x="266" y="0" type="line"/>
      <point x="70" y="0" type="line"/>
      <point x="580" y="1480" type="line"/>
      <point x="776" y="1480" type="line"/>
      <point x="1286" y="0" type="line"/>
      <point x="1090" y="0" type="line"/>
    </contour>
  </outline>
</glyph>
<glyph name="G" format="2">
  <advance width="1562"/>
  <unicode hex="0047"/>
  <anchor x="801" y="0" name="bottom_center"/>
  <anchor x="801" y="1380" name="top_center"/>
  <outline>
    <contour>
      <point x="1253" y="1029" type="line"/>
      <point x="1170" y="1216"/>
      <point x="1002" y="1332"/>
      <point x="801" y="1332" type="curve" smooth="yes"/>
      <point x="511" y="1332"/>
      <point x="290" y="1090"/>
      <point x="290" y="740" type="curve" smooth="yes"/>
      <point x="290" y="390"/>
      <point x="511" y="148"/>
      <point x="801" y="148" type="curve" smooth="yes"/>
      <point x="1002" y="148"/>
      <point x="1170" y="264"/>
      <point x="1253" y="451" type="curve"/>
      <point x="1414" y="360" type="line"/>
      <point x="1296" y="128"/>
      <point x="1069" y="-20"/>
      <point x="801" y="-20" type="curve" smooth="yes"/>
      <point x="406" y="-20"/>
      <point x="100" y="301"/>
      <point x="100" y="740" type="curve" smooth="yes"/>
      <point x="100" y="1179"/>
      <point x="406" y="1500"/>
      <point x="801" y="1500" type="curve" smooth="yes"/>
      <point x="1069" y="1500"/>
      <point x="1296" y="1352"/>
      <point x="1414" y="1120" type="curve"/>
    </contour>
    <contour>
      <point x="801" y="740" type="line"/>
      <point x="1422" y="740" type="line"/>
      <point x="1422" y="0" type="line"/>
      <point x="1240" y="0" type="line"/>
      <point x="1240" y="227" type="line"/>
      <point x="1232" y="253" type="line"/>
      <point x="1232" y="572" type="line"/>
      <point x="801" y="572" type="line"/>
    </contour>
  </outline>
</glyph>
<glyph name="M" format="2">
  <advance width="1588"/>
  <unicode hex="004D"/>
  <anchor x="794" y="1380" name="top_center"/>
  <anchor x="794" y="0" name="bottom_center"/>
  <outline>
    <contour>
      <point x="789" y="410" type="line"/>
      <point x="1258" y="1480" type="line"/>
      <point x="1343" y="1248" type="line"/>
      <point x="863" y="160" type="line"/>
      <point x="715" y="160" type="line"/>
      <point x="237" y="1248" type="line"/>
      <point x="330" y="1480" type="line"/>
    </contour>
    <contour>
      <point x="1448" y="1480" type="line"/>
      <point x="1448" y="0" type="line"/>
      <point x="1258" y="0" type="line"/>
      <point x="1258" y="1258" type="line"/>
      <point x="1258" y="1480" type="line"/>
    </contour>
    <contour>
      <point x="140" y="1480" type="line"/>
      <point x="330" y="1480" type="line"/>
      <point x="330" y="1304" type="line"/>
      <point x="330" y="0" type="line"/>
      <point x="140" y="0" type="line"/>
    </contour>
  </outline>
</glyph>
<glyph name="O" format="2">
  <advance width="1602"/>
  <unicode hex="004F"/>
  <anchor x="801" y="-20" name="bottom_cedilla"/>
  <anchor x="-65" y="1040" name="greek_t"/>
  <anchor x="61" y="1040" name="greek_k"/>
  <anchor x="-105" y="1040" name="greek_kt"/>
  <anchor x="139" y="1040" name="greek_v"/>
  <anchor x="968" y="0" name="bottom_right"/>
  <anchor x="801" y="0" name="bottom_center"/>
  <anchor x="1380" y="1480" name="top_right"/>
  <anchor x="801" y="1380" name="top_center"/>
  <outline>
    <contour>
      <point x="290" y="740" type="curve" smooth="yes"/>
      <point x="290" y="390"/>
      <point x="511" y="148"/>
      <point x="801" y="148" type="curve" smooth="yes"/>
      <point x="1091" y="148"/>
      <point x="1312" y="390"/>
      <point x="1312" y="740" type="curve" smooth="yes"/>
      <point x="1312" y="1090"/>
      <point x="1091" y="1332"/>
      <point x="801" y="1332" type="curve" smooth="yes"/>
      <point x="511" y="1332"/>
      <point x="290" y="1090"/>
    </contour>
    <contour>
      <point x="100" y="740" type="curve" smooth="yes"/>
      <point x="100" y="1179"/>
      <point x="406" y="1500"/>
      <point x="801" y="1500" type="curve" smooth="yes"/>
      <point x="1196" y="1500"/>
      <point x="1502" y="1179"/>
      <point x="1502" y="740" type="curve" smooth="yes"/>
      <point x="1502" y="301"/>
      <point x="1196" y="-20"/>
      <point x="801" y="-20" type="curve" smooth="yes"/>
      <point x="406" y="-20"/>
      <point x="100" y="301"/>
    </contour>
  </outline>
</glyph>
<glyph name="P" format="2">
  <advance width="1188"/>
  <unicode hex="0050"/>
  <anchor x="140" y="1480" name="top_left"/>
  <anchor x="235" y="0" name="bottom_center"/>
  <anchor x="598" y="1380" name="top_center"/>
  <outline>
    <contour>
      <point x="330" y="1312" type="line"/>
      <point x="330" y="740" type="line"/>
      <point x="612" y="740" type="line"/>
      <point x="777" y="740"/>
      <point x="898" y="861"/>
      <point x="898" y="1026" type="curve" smooth="yes"/>
      <point x="898" y="1191"/>
      <point x="777" y="1312"/>
      <point x="612" y="1312" type="curve"/>
    </contour>
    <contour>
      <point x="140" y="0" type="line"/>
      <point x="140" y="1480" type="line"/>
      <point x="612" y="1480" type="line"/>
      <point x="867" y="1480"/>
      <point x="1088" y="1281"/>
      <point x="1088" y="1026" type="curve" smooth="yes"/>
      <point x="1088" y="771"/>
      <point x="867" y="572"/>
      <point x="612" y="572" type="curve"/>
      <point x="330" y="572" type="line"/>
      <point x="330" y="0" type="line"/>
    </contour>
  </outline>
</glyph>
<glyph name="X" format="2">
  <advance width="1392"/>
  <unicode hex="0058"/>
  <anchor x="696" y="0" name="bottom_center"/>
  <anchor x="696" y="1380" name="top_center"/>
  <outline>
    <contour>
      <point x="694" y="617" type="line"/>
      <point x="284" y="0" type="line"/>
      <point x="70" y="0" type="line"/>
      <point x="568" y="740" type="line"/>
      <point x="70" y="1480" type="line"/>
      <point x="284" y="1480" type="line"/>
      <point x="696" y="858" type="line"/>
      <point x="1108" y="1480" type="line"/>
      <point x="1322" y="1480" type="line"/>
      <point x="824" y="740" type="line"/>
      <point x="1322" y="0" type="line"/>
      <point x="1108" y="0" type="line"/>
    </contour>
  </outline>
</glyph>
<glyph name="Y" format="2">
  <advance width="1392"/>
  <unicode hex="0059"/>
  <anchor x="-80" y="1040" name="greek_v"/>
  <anchor x="-284" y="1040" name="greek_t"/>
  <anchor x="-158" y="1040" name="greek_k"/>
  <anchor x="-324" y="1040" name="greek_kt"/>
  <anchor x="696" y="0" name="bottom_center"/>
  <anchor x="696" y="1380" name="top_center"/>
  <outline>
    <contour>
      <point x="601" y="0" type="line"/>
      <point x="601" y="740" type="line"/>
      <point x="791" y="740" type="line"/>
      <point x="791" y="0" type="line"/>
    </contour>
    <contour>
      <point x="755" y="628" type="line"/>
      <point x="621" y="666" type="line"/>
      <point x="70" y="1480" type="line"/>
      <point x="284" y="1480" type="line"/>
      <point x="696" y="858" type="line"/>
      <point x="1108" y="1480" type="line"/>
      <point x="1322" y="1480" type="line"/>
    </contour>
  </outline>
</glyph>
<glyph name="asciicircum" format="2">
  <advance width="1096"/>
  <unicode hex="005E"/>
  <outline>
    <contour>
      <point x="810" y="656" type="line"/>
      <point x="549" y="1270" type="line"/>
      <point x="286" y="656" type="line"/>
      <point x="100" y="656" type="line"/>
      <point x="460" y="1480" type="line"/>
      <point x="636" y="1480" type="line"/>
      <point x="996" y="656" type="line"/>
    </contour>
  </outline>
</glyph>
<glyph name="grave" format="2">
  <advance width="544"/>
  <unicode hex="0060"/>
  <anchor x="375" y="1040" name="_top_center"/>
  <outline>
    <contour>
      <point x="296" y="1224" type="line"/>
      <point x="70" y="1480" type="line"/>
      <point x="296" y="1480" type="line"/>
      <point x="474" y="1224" type="line"/>
    </contour>
  </outline>
</glyph>
<glyph name="a" format="2">
  <advance width="1140"/>
  <unicode hex="0061"/>
  <anchor x="500" y="-20" name="bottom_cedilla"/>
  <anchor x="1033" y="0" name="bottom_right"/>
  <anchor x="540" y="1040" name="top_center"/>
  <anchor x="540" y="0" name="bottom_center"/>
  <anchor x="980" y="1040" name="top_right"/>
  <outline>
    <contour>
      <point x="500" y="-20" type="curve" smooth="yes"/>
      <point x="245" y="-20"/>
      <point x="100" y="140"/>
      <point x="100" y="340" type="curve" smooth="yes"/>
      <point x="100" y="540"/>
      <point x="285" y="700"/>
      <point x="540" y="700" type="curve" smooth="yes"/>
      <point x="755" y="700"/>
      <point x="890" y="540"/>
      <point x="890" y="340" type="curve" smooth="yes"/>
      <point x="890" y="140"/>
      <point x="725" y="-20"/>
    </contour>
    <contour>
      <point x="800" y="340" type="curve" smooth="yes"/>
      <point x="800" y="460"/>
      <point x="720" y="540"/>
      <point x="540" y="540" type="curve" smooth="yes"/>
      <point x="360" y="540"/>
      <point x="280" y="460"/>
      <point x="280" y="340" type="curve" smooth="yes"/>
      <point x="280" y="220"/>
      <point x="360" y="140"/>
      <point x="540" y="140" type="curve" smooth="yes"/>
      <point x="690" y="140"/>
      <point x="800" y="220"/>
    </contour>
    <contour>
      <point x="980" y="227" type="line" smooth="yes"/>
      <point x="980" y="167"/>
      <point x="1010" y="138"/>
      <point x="1070" y="138" type="curve"/>
      <point x="1028" y="-20" type="line"/>
      <point x="884" y="-7"/>
      <point x="800" y="72"/>
      <point x="800" y="227" type="curve"/>
      <point x="820" y="256" type="line"/>
      <point x="820" y="449" type="line"/>
      <point x="800" y="468" type="line"/>
      <point x="800" y="640" type="line" smooth="yes"/>
      <point x="800" y="820"/>
      <point x="707" y="901"/>
      <point x="539" y="901" type="curve" smooth="yes"/>
      <point x="359" y="901"/>
      <point x="222" y="795"/>
      <point x="222" y="795" type="curve"/>
      <point x="140" y="936" type="line"/>
      <point x="140" y="936"/>
      <point x="285" y="1060"/>
      <point x="540" y="1060" type="curve" smooth="yes"/>
      <point x="786" y="1060"/>
      <point x="980" y="958"/>
      <point x="980" y="608" type="curve"/>
    </contour>
  </outline>
</glyph>
<glyph name="g" format="2">
  <advance width="1085"/>
  <unicode hex="0067"/>
  <anchor x="520" y="1040" name="top_center"/>
  <anchor x="520" y="-361" name="bottom_center"/>
  <outline>
    <contour>
      <point x="571" y="941" type="line"/>
      <point x="656" y="1026"/>
      <point x="736" y="1081"/>
      <point x="861" y="1081" type="curve" smooth="yes"/>
      <point x="929" y="1081"/>
      <point x="985" y="1071"/>
      <point x="1035" y="1049" type="curve"/>
      <point x="987" y="870" type="line"/>
      <point x="944" y="904"/>
      <point x="890" y="921"/>
      <point x="819" y="921" type="curve" smooth="yes"/>
      <point x="763" y="921"/>
      <point x="739" y="910"/>
      <point x="702" y="889" type="curve"/>
    </contour>
    <contour>
      <point x="520" y="420" type="curve" smooth="yes"/>
      <point x="520" y="300" type="line" smooth="yes"/>
      <point x="362" y="300"/>
      <point x="320" y="260"/>
      <point x="320" y="220" type="curve" smooth="yes"/>
      <point x="320" y="180"/>
      <point x="412" y="160"/>
      <point x="520" y="160" type="curve" smooth="yes"/>
      <point x="520" y="0" type="line" smooth="yes"/>
      <point x="280" y="0"/>
      <point x="141" y="80"/>
      <point x="141" y="210" type="curve" smooth="yes"/>
      <point x="141" y="370"/>
      <point x="380" y="420"/>
    </contour>
    <contour>
      <point x="1035" y="-110" type="curve" smooth="yes"/>
      <point x="1035" y="-290"/>
      <point x="881" y="-460"/>
      <point x="520" y="-460" type="curve" smooth="yes"/>
      <point x="159" y="-460"/>
      <point x="50" y="-325"/>
      <point x="50" y="-164" type="curve" smooth="yes"/>
      <point x="50" y="37"/>
      <point x="260" y="120"/>
      <point x="520" y="120" type="curve" smooth="yes"/>
      <point x="520" y="30" type="line" smooth="yes"/>
      <point x="272" y="30"/>
      <point x="230" y="-89"/>
      <point x="230" y="-164" type="curve" smooth="yes"/>
      <point x="230" y="-240"/>
      <point x="272" y="-300"/>
      <point x="520" y="-300" type="curve" smooth="yes"/>
      <point x="768" y="-300"/>
      <point x="855" y="-220"/>
      <point x="855" y="-120" type="curve" smooth="yes"/>
      <point x="855" y="-40"/>
      <point x="718" y="0"/>
      <point x="520" y="0" type="curve" smooth="yes"/>
      <point x="520" y="160" type="line" smooth="yes"/>
      <point x="841" y="160"/>
      <point x="1035" y="70"/>
    </contour>
    <contour>
      <point x="320" y="680" type="curve" smooth="yes"/>
      <point x="320" y="560"/>
      <point x="400" y="460"/>
      <point x="520" y="460" type="curve" smooth="yes"/>
      <point x="640" y="460"/>
      <point x="720" y="560"/>
      <point x="720" y="680" type="curve" smooth="yes"/>
      <point x="720" y="800"/>
      <point x="640" y="900"/>
      <point x="520" y="900" type="curve" smooth="yes"/>
      <point x="400" y="900"/>
      <point x="320" y="800"/>
    </contour>
    <contour>
      <point x="140" y="680" type="curve" smooth="yes"/>
      <point x="140" y="899"/>
      <point x="301" y="1060"/>
      <point x="520" y="1060" type="curve" smooth="yes"/>
      <point x="739" y="1060"/>
      <point x="900" y="899"/>
      <point x="900" y="680" type="curve" smooth="yes"/>
      <point x="900" y="461"/>
      <point x="739" y="300"/>
      <point x="520" y="300" type="curve" smooth="yes"/>
      <point x="301" y="300"/>
      <point x="140" y="461"/>
    </contour>
  </outline>
</glyph>
<glyph name="h" format="2">
  <advance width="1156"/>
  <unicode hex="0068"/>
  <anchor x="230" y="1380" name="top_center"/>
  <anchor x="598" y="0" name="bottom_center"/>
  <anchor x="230" y="-20" name="bottom_cedilla"/>
  <outline>
    <contour>
      <point x="836" y="0" type="line"/>
      <point x="836" y="572" type="line" smooth="yes"/>
      <point x="836" y="791"/>
      <point x="758" y="900"/>
      <point x="578" y="900" type="curve" smooth="yes"/>
      <point x="398" y="900"/>
      <point x="320" y="791"/>
      <point x="320" y="572" type="curve" smooth="yes"/>
      <point x="320" y="0" type="line"/>
      <point x="140" y="0" type="line"/>
      <point x="140" y="1480" type="line"/>
      <point x="312" y="1480" type="line"/>
      <point x="312" y="920" type="line"/>
      <point x="397" y="1005"/>
      <point x="493" y="1060"/>
      <point x="618" y="1060" type="curve" smooth="yes"/>
      <point x="888" y="1060"/>
      <point x="1016" y="892"/>
      <point x="1016" y="572" type="curve"/>
      <point x="1016" y="0" type="line"/>
    </contour>
  </outline>
</glyph>
<glyph name="o" format="2">
  <advance width="1196"/>
  <unicode hex="006F"/>
  <anchor x="598" y="1040" name="greek_v"/>
  <anchor x="598" y="1040" name="greek_kt"/>
  <anchor x="598" y="1040" name="greek_k"/>
  <anchor x="598" y="1040" name="greek_t"/>
  <anchor x="598" y="-20" name="bottom_cedilla"/>
  <anchor x="598" y="1040" name="top_center"/>
  <anchor x="598" y="0" name="bottom_center"/>
  <anchor x="1048" y="1040" name="top_right"/>
  <anchor x="738" y="0" name="bottom_right"/>
  <outline>
    <contour>
      <point x="280" y="520" type="curve" smooth="yes"/>
      <point x="280" y="300"/>
      <point x="407" y="140"/>
      <point x="598" y="140" type="curve" smooth="yes"/>
      <point x="789" y="140"/>
      <point x="916" y="300"/>
      <point x="916" y="520" type="curve" smooth="yes"/>
      <point x="916" y="740"/>
      <point x="789" y="900"/>
      <point x="598" y="900" type="curve" smooth="yes"/>
      <point x="407" y="900"/>
      <point x="280" y="740"/>
    </contour>
    <contour>
      <point x="100" y="520" type="curve" smooth="yes"/>
      <point x="100" y="832"/>
      <point x="317" y="1060"/>
      <point x="598" y="1060" type="curve" smooth="yes"/>
      <point x="879" y="1060"/>
      <point x="1096" y="832"/>
      <point x="1096" y="520" type="curve" smooth="yes"/>
      <point x="1096" y="208"/>
      <point x="879" y="-20"/>
      <point x="598" y="-20" type="curve" smooth="yes"/>
      <point x="317" y="-20"/>
      <point x="100" y="208"/>
    </contour>
  </outline>
</glyph>
<glyph name="s" format="2">
  <advance width="1020"/>
  <unicode hex="0073"/>
  <anchor x="514" y="-20" name="bottom_cedilla"/>
  <anchor x="676" y="0" name="bottom_right"/>
  <anchor x="514" y="0" name="bottom_center"/>
  <anchor x="514" y="1040" name="top_center"/>
  <outline>
    <contour>
      <point x="514" y="1060" type="curve" smooth="yes"/>
      <point x="733" y="1060"/>
      <point x="861" y="953"/>
      <point x="900" y="808" type="curve"/>
      <point x="743" y="720" type="line"/>
      <point x="712" y="836"/>
      <point x="646" y="900"/>
      <point x="514" y="900" type="curve" smooth="yes"/>
      <point x="382" y="900"/>
      <point x="320" y="840"/>
      <point x="320" y="760" type="curve" smooth="yes"/>
      <point x="320" y="680"/>
      <point x="368" y="642"/>
      <point x="514" y="608" type="curve" smooth="yes"/>
      <point x="748" y="554"/>
      <point x="920" y="477"/>
      <point x="920" y="281" type="curve" smooth="yes"/>
      <point x="920" y="85"/>
      <point x="744" y="-20"/>
      <point x="514" y="-20" type="curve" smooth="yes"/>
      <point x="284" y="-20"/>
      <point x="139" y="108"/>
      <point x="100" y="253" type="curve"/>
      <point x="257" y="341" type="line"/>
      <point x="288" y="225"/>
      <point x="364" y="141"/>
      <point x="514" y="141" type="curve" smooth="yes"/>
      <point x="664" y="141"/>
      <point x="740" y="191"/>
      <point x="740" y="281" type="curve" smooth="yes"/>
      <point x="740" y="371"/>
      <point x="660" y="404"/>
      <point x="514" y="438" type="curve" smooth="yes"/>
      <point x="280" y="492"/>
      <point x="140" y="585"/>
      <point x="140" y="760" type="curve" smooth="yes"/>
      <point x="140" y="935"/>
      <point x="295" y="1060"/>
    </contour>
  </outline>
</glyph>
<glyph name="u" format="2">
  <advance width="1156"/>
  <unicode hex="0075"/>
  <anchor x="538" y="-20" name="bottom_cedilla"/>
  <anchor x="1036" y="0" name="bottom_right"/>
  <anchor x="1016" y="1040" name="top_right"/>
  <anchor x="578" y="0" name="bottom_center"/>
  <anchor x="578" y="1040" name="top_center"/>
  <outline>
    <contour>
      <point x="320" y="1040" type="line"/>
      <point x="320" y="468" type="line" smooth="yes"/>
      <point x="320" y="249"/>
      <point x="398" y="140"/>
      <point x="578" y="140" type="curve" smooth="yes"/>
      <point x="758" y="140"/>
      <point x="836" y="249"/>
      <point x="836" y="468" type="curve" smooth="yes"/>
      <point x="836" y="1040" type="line"/>
      <point x="1016" y="1040" type="line"/>
      <point x="1016" y="168" type="line"/>
      <point x="1016" y="66"/>
      <point x="1036" y="0"/>
      <point x="1036" y="0" type="curve"/>
      <point x="864" y="0" type="line"/>
      <point x="864" y="0"/>
      <point x="848" y="60"/>
      <point x="848" y="120" type="curve"/>
      <point x="763" y="35"/>
      <point x="663" y="-20"/>
      <point x="538" y="-20" type="curve" smooth="yes"/>
      <point x="268" y="-20"/>
      <point x="140" y="148"/>
      <point x="140" y="468" type="curve"/>
      <point x="140" y="1040" type="line"/>
    </contour>
  </outline>
</glyph>
<glyph name="x" format="2">
  <advance width="1092"/>
  <unicode hex="0078"/>
  <anchor x="546" y="1040" name="top_center"/>
  <anchor x="546" y="0" name="bottom_center"/>
  <outline>
    <contour>
      <point x="407" y="520" type="line"/>
      <point x="70" y="1040" type="line"/>
      <point x="278" y="1040" type="line"/>
      <point x="546" y="613" type="line"/>
      <point x="814" y="1040" type="line"/>
      <point x="1022" y="1040" type="line"/>
      <point x="684" y="520" type="line"/>
      <point x="1022" y="0" type="line"/>
      <point x="814" y="0" type="line"/>
      <point x="544" y="430" type="line"/>
      <point x="280" y="0" type="line"/>
      <point x="70" y="0" type="line"/>
    </contour>
  </outline>
</glyph>
<glyph name="y" format="2">
  <advance width="1077"/>
  <unicode hex="0079"/>
  <anchor x="530" y="1040" name="top_center"/>
  <anchor x="294" y="-360" name="bottom_center"/>
  <outline>
    <contour>
      <point x="552" y="-255" type="line"/>
      <point x="507" y="-385"/>
      <point x="393" y="-460"/>
      <point x="235" y="-460" type="curve" smooth="yes"/>
      <point x="179" y="-460"/>
      <point x="115" y="-446"/>
      <point x="70" y="-428" type="curve"/>
      <point x="115" y="-265" type="line"/>
      <point x="141" y="-284"/>
      <point x="192" y="-300"/>
      <point x="235" y="-300" type="curve" smooth="yes"/>
      <point x="312" y="-300"/>
      <point x="364" y="-267"/>
      <point x="385" y="-206" type="curve"/>
      <point x="458" y="0" type="line"/>
      <point x="93" y="1040" type="line"/>
      <point x="282" y="1040" type="line"/>
      <point x="550" y="224" type="line"/>
      <point x="818" y="1040" type="line"/>
      <point x="1007" y="1040" type="line"/>
      <point x="642" y="0" type="line"/>
    </contour>
  </outline>
</glyph>
<glyph name="z" format="2">
  <advance width="1020"/>
  <unicode hex="007A"/>
  <anchor x="512" y="1040" name="top_center"/>
  <anchor x="512" y="0" name="bottom_center"/>
  <outline>
    <contour>
      <point x="140" y="1040" type="line"/>
      <point x="880" y="1040" type="line"/>
      <point x="880" y="896" type="line"/>
      <point x="736" y="880" type="line"/>
      <point x="140" y="880" type="line"/>
    </contour>
    <contour>
      <point x="880" y="160" type="line"/>
      <point x="880" y="0" type="line"/>
      <point x="140" y="0" type="line"/>
      <point x="140" y="144" type="line"/>
      <point x="284" y="160" type="line"/>
    </contour>
    <contour>
      <point x="344" y="160" type="line"/>
      <point x="140" y="144" type="line"/>
      <point x="676" y="880" type="line"/>
      <point x="880" y="896" type="line"/>
    </contour>
  </outline>
</glyph>
<glyph name="bar" format="2">
  <advance width="460"/>
  <unicode hex="007C"/>
  <outline>
    <contour>
      <point x="320" y="1640" type="line"/>
      <point x="320" y="-440" type="line"/>
      <point x="140" y="-440" type="line"/>
      <point x="140" y="1640" type="line"/>
    </contour>
  </outline>
</glyph>
<glyph name="currency" format="2">
  <advance width="1320"/>
  <unicode hex="00A4"/>
  <outline>
    <contour>
      <point x="930" y="798" type="line"/>
      <point x="802" y="926" type="line"/>
      <point x="1092" y="1216" type="line"/>
      <point x="1220" y="1088" type="line"/>
    </contour>
    <contour>
      <point x="390" y="514" type="line"/>
      <point x="518" y="386" type="line"/>
      <point x="228" y="96" type="line"/>
      <point x="100" y="224" type="line"/>
    </contour>
    <contour>
      <point x="802" y="386" type="line"/>
      <point x="930" y="514" type="line"/>
      <point x="1220" y="224" type="line"/>
      <point x="1092" y="96" type="line"/>
    </contour>
    <contour>
      <point x="518" y="926" type="line"/>
      <point x="390" y="798" type="line"/>
      <point x="100" y="1088" type="line"/>
      <point x="228" y="1216" type="line"/>
    </contour>
    <contour>
      <point x="220" y="656" type="curve" smooth="yes"/>
      <point x="220" y="907"/>
      <point x="397" y="1096"/>
      <point x="660" y="1096" type="curve" smooth="yes"/>
      <point x="923" y="1096"/>
      <point x="1100" y="907"/>
      <point x="1100" y="656" type="curve" smooth="yes"/>
      <point x="1100" y="405"/>
      <point x="923" y="216"/>
      <point x="660" y="216" type="curve" smooth="yes"/>
      <point x="397" y="216"/>
      <point x="220" y="405"/>
    </contour>
    <contour>
      <point x="400" y="656" type="curve" smooth="yes"/>
      <point x="400" y="496"/>
      <point x="500" y="376"/>
      <point x="660" y="376" type="curve" smooth="yes"/>
      <point x="820" y="376"/>
      <point x="920" y="496"/>
      <point x="920" y="656" type="curve" smooth="yes"/>
      <point x="920" y="816"/>
      <point x="820" y="936"/>
      <point x="660" y="936" type="curve" smooth="yes"/>
      <point x="500" y="936"/>
      <point x="400" y="816"/>
    </contour>
  </outline>
</glyph>
<glyph name="yen" format="2">
  <advance width="1392"/>
  <unicode hex="00A5"/>
  <outline>
    <contour>
      <point x="232" y="608" type="line"/>
      <point x="232" y="760" type="line"/>
      <point x="1160" y="760" type="line"/>
      <point x="1160" y="608" type="line"/>
    </contour>
    <contour>
      <point x="232" y="320" type="line"/>
      <point x="232" y="472" type="line"/>
      <point x="1160" y="472" type="line"/>
      <point x="1160" y="320" type="line"/>
    </contour>
    <contour>
      <point x="601" y="0" type="line"/>
      <point x="601" y="740" type="line"/>
      <point x="791" y="740" type="line"/>
      <point x="791" y="0" type="line"/>
    </contour>
    <contour>
      <point x="755" y="628" type="line"/>
      <point x="621" y="666" type="line"/>
      <point x="70" y="1480" type="line"/>
      <point x="284" y="1480" type="line"/>
      <point x="696" y="858" type="line"/>
      <point x="1108" y="1480" type="line"/>
      <point x="1322" y="1480" type="line"/>
    </contour>
  </outline>
</glyph>
<glyph name="dieresis" format="2">
  <advance width="844"/>
  <unicode hex="00A8"/>
  <outline>
    <contour>
      <point x="518" y="1318" type="curve" smooth="yes"/>
      <point x="518" y="1390"/>
      <point x="574" y="1446"/>
      <point x="646" y="1446" type="curve" smooth="yes"/>
      <point x="718" y="1446"/>
      <point x="774" y="1390"/>
      <point x="774" y="1318" type="curve" smooth="yes"/>
      <point x="774" y="1246"/>
      <point x="718" y="1190"/>
      <point x="646" y="1190" type="curve" smooth="yes"/>
      <point x="574" y="1190"/>
      <point x="518" y="1246"/>
    </contour>
    <contour>
      <point x="70" y="1318" type="curve" smooth="yes"/>
      <point x="70" y="1390"/>
      <point x="126" y="1446"/>
      <point x="198" y="1446" type="curve" smooth="yes"/>
      <point x="270" y="1446"/>
      <point x="326" y="1390"/>
      <point x="326" y="1318" type="curve" smooth="yes"/>
      <point x="326" y="1246"/>
      <point x="270" y="1190"/>
      <point x="198" y="1190" type="curve" smooth="yes"/>
      <point x="126" y="1190"/>
      <point x="70" y="1246"/>
    </contour>
  </outline>
</glyph>
<glyph name="copyright" format="2">
  <advance width="1720"/>
  <unicode hex="00A9"/>
  <outline>
    <contour>
      <point x="220" y="740" type="curve" smooth="yes"/>
      <point x="220" y="380"/>
      <point x="500" y="100"/>
      <point x="860" y="100" type="curve" smooth="yes"/>
      <point x="1220" y="100"/>
      <point x="1500" y="380"/>
      <point x="1500" y="740" type="curve" smooth="yes"/>
      <point x="1500" y="1100"/>
      <point x="1220" y="1380"/>
      <point x="860" y="1380" type="curve" smooth="yes"/>
      <point x="500" y="1380"/>
      <point x="220" y="1100"/>
    </contour>
    <contour>
      <point x="100" y="740" type="curve" smooth="yes"/>
      <point x="100" y="1160"/>
      <point x="440" y="1500"/>
      <point x="860" y="1500" type="curve" smooth="yes"/>
      <point x="1280" y="1500"/>
      <point x="1620" y="1160"/>
      <point x="1620" y="740" type="curve" smooth="yes"/>
      <point x="1620" y="320"/>
      <point x="1280" y="-20"/>
      <point x="860" y="-20" type="curve" smooth="yes"/>
      <point x="440" y="-20"/>
      <point x="100" y="320"/>
    </contour>
    <contour>
      <point x="576" y="740" type="curve" smooth="yes"/>
      <point x="576" y="930"/>
      <point x="705" y="1061"/>
      <point x="874" y="1061" type="curve" smooth="yes"/>
      <point x="991" y="1061"/>
      <point x="1083" y="999"/>
      <point x="1131" y="899" type="curve"/>
      <point x="1251" y="948" type="line"/>
      <point x="1178" y="1090"/>
      <point x="1039" y="1181"/>
      <point x="874" y="1181" type="curve" smooth="yes"/>
      <point x="630" y="1181"/>
      <point x="441" y="995"/>
      <point x="441" y="740" type="curve" smooth="yes"/>
      <point x="441" y="485"/>
      <point x="630" y="299"/>
      <point x="874" y="299" type="curve" smooth="yes"/>
      <point x="1039" y="299"/>
      <point x="1178" y="390"/>
      <point x="1251" y="532" type="curve"/>
      <point x="1131" y="581" type="line"/>
      <point x="1083" y="481"/>
      <point x="991" y="419"/>
      <point x="874" y="419" type="curve" smooth="yes"/>
      <point x="705" y="419"/>
      <point x="576" y="550"/>
    </contour>
  </outline>
</glyph>
<glyph name="uni00B3" format="2">
  <advance width="796"/>
  <unicode hex="00B3"/>
  <outline>
    <contour>
      <point x="398" y="1317" type="line" smooth="yes"/>
      <point x="504" y="1317"/>
      <point x="566" y="1366"/>
      <point x="566" y="1439" type="curve" smooth="yes"/>
      <point x="566" y="1512"/>
      <point x="504" y="1559"/>
      <point x="398" y="1559" type="curve" smooth="yes"/>
      <point x="292" y="1559"/>
      <point x="228" y="1489"/>
      <point x="228" y="1416" type="curve"/>
      <point x="94" y="1452" type="line"/>
      <point x="111" y="1576"/>
      <point x="219" y="1680"/>
      <point x="398" y="1680" type="curve" smooth="yes"/>
      <point x="577" y="1680"/>
      <point x="701" y="1579"/>
      <point x="701" y="1447" type="curve" smooth="yes"/>
      <point x="701" y="1370"/>
      <point x="656" y="1306"/>
      <point x="579" y="1263" type="curve"/>
      <point x="675" y="1216"/>
      <point x="733" y="1144"/>
      <point x="733" y="1053" type="curve" smooth="yes"/>
      <point x="733" y="908"/>
      <point x="594" y="798"/>
      <point x="398" y="798" type="curve" smooth="yes"/>
      <point x="214" y="798"/>
      <point x="81" y="901"/>
      <point x="63" y="1047" type="curve"/>
      <point x="197" y="1083" type="line"/>
      <point x="197" y="999"/>
      <point x="274" y="919"/>
      <point x="398" y="919" type="curve" smooth="yes"/>
      <point x="522" y="919"/>
      <point x="598" y="976"/>
      <point x="598" y="1060" type="curve" smooth="yes"/>
      <point x="598" y="1144"/>
      <point x="523" y="1202"/>
      <point x="399" y="1202" type="curve" smooth="yes"/>
      <point x="340" y="1202" type="line"/>
      <point x="340" y="1317" type="line"/>
    </contour>
  </outline>
</glyph>
<glyph name="acute" format="2">
  <advance width="544"/>
  <unicode hex="00B4"/>
  <anchor x="170" y="1140" name="_dieresis_center"/>
  <anchor x="170" y="1040" name="_top_center"/>
  <outline>
    <contour>
      <point x="248" y="1224" type="line"/>
      <point x="70" y="1224" type="line"/>
      <point x="248" y="1480" type="line"/>
      <point x="474" y="1480" type="line"/>
    </contour>
  </outline>
</glyph>
<glyph name="periodcentered" format="2">
  <advance width="532"/>
  <unicode hex="00B7"/>
  <outline>
    <contour>
      <point x="140" y="660" type="curve" smooth="yes"/>
      <point x="140" y="732"/>
      <point x="193" y="789"/>
      <point x="265" y="789" type="curve" smooth="yes"/>
      <point x="337" y="789"/>
      <point x="392" y="732"/>
      <point x="392" y="660" type="curve" smooth="yes"/>
      <point x="392" y="588"/>
      <point x="337" y="533"/>
      <point x="265" y="533" type="curve" smooth="yes"/>
      <point x="193" y="533"/>
      <point x="140" y="588"/>
    </contour>
  </outline>
</glyph>
<glyph name="threequarters" format="2">
  <advance width="2000"/>
  <unicode hex="00BE"/>
  <outline>
    <contour>
      <point x="452" y="1129" type="line" smooth="yes"/>
      <point x="558" y="1129"/>
      <point x="620" y="1178"/>
      <point x="620" y="1251" type="curve" smooth="yes"/>
      <point x="620" y="1324"/>
      <point x="558" y="1371"/>
      <point x="452" y="1371" type="curve" smooth="yes"/>
      <point x="346" y="1371"/>
      <point x="282" y="1301"/>
      <point x="282" y="1228" type="curve"/>
      <point x="148" y="1264" type="line"/>
      <point x="165" y="1388"/>
      <point x="273" y="1492"/>
      <point x="452" y="1492" type="curve" smooth="yes"/>
      <point x="631" y="1492"/>
      <point x="755" y="1391"/>
      <point x="755" y="1259" type="curve" smooth="yes"/>
      <point x="755" y="1182"/>
      <point x="710" y="1118"/>
      <point x="633" y="1075" type="curve"/>
      <point x="729" y="1028"/>
      <point x="787" y="956"/>
      <point x="787" y="865" type="curve" smooth="yes"/>
      <point x="787" y="720"/>
      <point x="648" y="610"/>
      <point x="452" y="610" type="curve" smooth="yes"/>
      <point x="268" y="610"/>
      <point x="135" y="713"/>
      <point x="117" y="859" type="curve"/>
      <point x="251" y="895" type="line"/>
      <point x="251" y="811"/>
      <point x="328" y="731"/>
      <point x="452" y="731" type="curve" smooth="yes"/>
      <point x="576" y="731"/>
      <point x="652" y="788"/>
      <point x="652" y="872" type="curve" smooth="yes"/>
      <point x="652" y="956"/>
      <point x="577" y="1014"/>
      <point x="453" y="1014" type="curve" smooth="yes"/>
      <point x="394" y="1014" type="line"/>
      <point x="394" y="1129" type="line"/>
    </contour>
    <contour>
      <point x="1655" y="858" type="line"/>
      <point x="1508" y="858" type="line"/>
      <point x="1214" y="295" type="line"/>
      <point x="1214" y="175" type="line"/>
      <point x="1609" y="175" type="line"/>
      <point x="1609" y="0" type="line"/>
      <point x="1744" y="0" type="line"/>
      <point x="1744" y="175" type="line"/>
      <point x="1860" y="175" type="line"/>
      <point x="1860" y="295" type="line"/>
      <point x="1744" y="295" type="line"/>
      <point x="1744" y="468" type="line"/>
      <point x="1609" y="468" type="line"/>
      <point x="1609" y="295" type="line"/>
      <point x="1358" y="295" type="line"/>
    </contour>
    <contour>
      <point x="700" y="98" type="line"/>
      <point x="592" y="160" type="line"/>
      <point x="1300" y="1382" type="line"/>
      <point x="1408" y="1320" type="line"/>
    </contour>
  </outline>
</glyph>
<glyph name="questiondown" format="2">
  <advance width="1144"/>
  <unicode hex="00BF"/>
  <outline>
    <contour>
      <point x="572" y="-300" type="curve" smooth="yes"/>
      <point x="383" y="-300"/>
      <point x="280" y="-172"/>
      <point x="280" y="-14" type="curve" smooth="yes"/>
      <point x="280" y="144"/>
      <point x="382" y="264"/>
      <point x="572" y="264" type="curve" smooth="yes"/>
      <point x="572" y="432" type="line" smooth="yes"/>
      <point x="317" y="432"/>
      <point x="100" y="256"/>
      <point x="100" y="-14" type="curve" smooth="yes"/>
      <point x="100" y="-284"/>
      <point x="302" y="-460"/>
      <point x="572" y="-460" type="curve" smooth="yes"/>
      <point x="842" y="-460"/>
      <point x="1044" y="-262"/>
      <point x="1044" y="8" type="curve" smooth="yes"/>
      <point x="859" y="62" type="line"/>
      <point x="862" y="45"/>
      <point x="864" y="27"/>
      <point x="864" y="8" type="curve" smooth="yes"/>
      <point x="864" y="-150"/>
      <point x="762" y="-300"/>
    </contour>
    <contour>
      <point x="702" y="933" type="curve" smooth="yes"/>
      <point x="702" y="861"/>
      <point x="649" y="804"/>
      <point x="577" y="804" type="curve" smooth="yes"/>
      <point x="505" y="804"/>
      <point x="450" y="861"/>
      <point x="450" y="933" type="curve" smooth="yes"/>
      <point x="450" y="1005"/>
      <point x="505" y="1060"/>
      <point x="577" y="1060" type="curve" smooth="yes"/>
      <point x="649" y="1060"/>
      <point x="702" y="1005"/>
    </contour>
    <contour>
      <point x="662" y="588" type="line"/>
      <point x="482" y="588" type="line"/>
      <point x="482" y="264" type="line"/>
      <point x="662" y="264" type="line"/>
    </contour>
  </outline>
</glyph>
<glyph name="Thorn" format="2">
  <advance width="1188"/>
  <unicode hex="00DE"/>
  <outline>
    <contour>
      <point x="330" y="1025" type="line"/>
      <point x="330" y="453" type="line"/>
      <point x="612" y="453" type="line"/>
      <point x="777" y="453"/>
      <point x="898" y="574"/>
      <point x="898" y="739" type="curve" smooth="yes"/>
      <point x="898" y="904"/>
      <point x="777" y="1025"/>
      <point x="612" y="1025" type="curve"/>
    </contour>
    <contour>
      <point x="140" y="0" type="line"/>
      <point x="140" y="1193" type="line"/>
      <point x="140" y="1480" type="line"/>
      <point x="330" y="1480" type="line"/>
      <point x="330" y="1193" type="line"/>
      <point x="612" y="1193" type="line"/>
      <point x="867" y="1193"/>
      <point x="1088" y="994"/>
      <point x="1088" y="739" type="curve" smooth="yes"/>
      <point x="1088" y="484"/>
      <point x="867" y="285"/>
      <point x="612" y="285" type="curve"/>
      <point x="330" y="285" type="line"/>
      <point x="330" y="0" type="line"/>
    </contour>
  </outline>
</glyph>
<glyph name="germandbls" format="2">
  <advance width="1224"/>
  <unicode hex="00DF"/>
  <outline>
    <contour>
      <point x="650" y="140" type="curve" smooth="yes"/>
      <point x="580" y="140"/>
      <point x="491" y="153"/>
      <point x="442" y="179" type="curve"/>
      <point x="396" y="20" type="line"/>
      <point x="462" y="-6"/>
      <point x="568" y="-20"/>
      <point x="650" y="-20" type="curve" smooth="yes"/>
      <point x="949" y="-20"/>
      <point x="1124" y="161"/>
      <point x="1124" y="416" type="curve" smooth="yes"/>
      <point x="1124" y="671"/>
      <point x="897" y="852"/>
      <point x="597" y="852" type="curve" smooth="yes"/>
      <point x="597" y="692" type="line" smooth="yes"/>
      <point x="797" y="692"/>
      <point x="944" y="572"/>
      <point x="944" y="416" type="curve" smooth="yes"/>
      <point x="944" y="260"/>
      <point x="850" y="140"/>
    </contour>
    <contour>
      <point x="320" y="1082" type="curve" smooth="yes"/>
      <point x="320" y="1242"/>
      <point x="437" y="1340"/>
      <point x="587" y="1340" type="curve" smooth="yes"/>
      <point x="737" y="1340"/>
      <point x="854" y="1252"/>
      <point x="854" y="1082" type="curve" smooth="yes"/>
      <point x="854" y="932"/>
      <point x="747" y="852"/>
      <point x="597" y="852" type="curve" smooth="yes"/>
      <point x="657" y="729" type="line" smooth="yes"/>
      <point x="852" y="729"/>
      <point x="1034" y="827"/>
      <point x="1034" y="1082" type="curve" smooth="yes"/>
      <point x="1034" y="1337"/>
      <point x="842" y="1500"/>
      <point x="587" y="1500" type="curve" smooth="yes"/>
      <point x="332" y="1500"/>
      <point x="140" y="1337"/>
      <point x="140" y="1082" type="curve" smooth="yes"/>
      <point x="140" y="827"/>
      <point x="140" y="0"/>
      <point x="140" y="0" type="curve"/>
      <point x="320" y="0" type="line"/>
      <point x="320" y="0"/>
      <point x="320" y="924"/>
    </contour>
  </outline>
</glyph>
<glyph name="eth" format="2">
  <advance width="1196"/>
  <unicode hex="00F0"/>
  <outline>
    <contour>
      <point x="787" y="1279" type="line"/>
      <point x="913" y="1352" type="line"/>
      <point x="839" y="1480" type="line"/>
      <point x="713" y="1407" type="line"/>
      <point x="375" y="1212" type="line"/>
      <point x="449" y="1084" type="line"/>
    </contour>
    <contour>
      <point x="375" y="1355" type="line"/>
      <point x="596" y="1227"/>
      <point x="916" y="1080"/>
      <point x="916" y="520" type="curve"/>
      <point x="1096" y="520" type="line"/>
      <point x="1096" y="1000"/>
      <point x="814" y="1310"/>
      <point x="468" y="1510" type="curve"/>
    </contour>
    <contour>
      <point x="280" y="520" type="curve" smooth="yes"/>
      <point x="280" y="740"/>
      <point x="407" y="900"/>
      <point x="598" y="900" type="curve" smooth="yes"/>
      <point x="789" y="900"/>
      <point x="916" y="740"/>
      <point x="916" y="520" type="curve" smooth="yes"/>
      <point x="916" y="300"/>
      <point x="789" y="140"/>
      <point x="598" y="140" type="curve" smooth="yes"/>
      <point x="407" y="140"/>
      <point x="280" y="300"/>
    </contour>
    <contour>
      <point x="100" y="520" type="curve" smooth="yes"/>
      <point x="100" y="208"/>
      <point x="317" y="-20"/>
      <point x="598" y="-20" type="curve" smooth="yes"/>
      <point x="879" y="-20"/>
      <point x="1096" y="208"/>
      <point x="1096" y="520" type="curve"/>
      <point x="1096" y="520"/>
      <point x="1032" y="520"/>
      <point x="1013" y="520" type="curve"/>
      <point x="1013" y="832"/>
      <point x="848" y="1060"/>
      <point x="598" y="1060" type="curve" smooth="yes"/>
      <point x="317" y="1060"/>
      <point x="100" y="832"/>
    </contour>
  </outline>
</glyph>
<glyph name="divide" format="2">
  <advance width="1232"/>
  <unicode hex="00F7"/>
  <outline>
    <contour>
      <point x="491" y="291" type="curve" smooth="yes"/>
      <point x="491" y="363"/>
      <point x="544" y="420"/>
      <point x="616" y="420" type="curve" smooth="yes"/>
      <point x="688" y="420"/>
      <point x="743" y="363"/>
      <point x="743" y="291" type="curve" smooth="yes"/>
      <point x="743" y="219"/>
      <point x="688" y="164"/>
      <point x="616" y="164" type="curve" smooth="yes"/>
      <point x="544" y="164"/>
      <point x="491" y="219"/>
    </contour>
    <contour>
      <point x="491" y="1027" type="curve" smooth="yes"/>
      <point x="491" y="1099"/>
      <point x="544" y="1156"/>
      <point x="616" y="1156" type="curve" smooth="yes"/>
      <point x="688" y="1156"/>
      <point x="743" y="1099"/>
      <point x="743" y="1027" type="curve" smooth="yes"/>
      <point x="743" y="955"/>
      <point x="688" y="900"/>
      <point x="616" y="900" type="curve" smooth="yes"/>
      <point x="544" y="900"/>
      <point x="491" y="955"/>
    </contour>
    <contour>
      <point x="140" y="580" type="line"/>
      <point x="140" y="740" type="line"/>
      <point x="1092" y="740" type="line"/>
      <point x="1092" y="580" type="line"/>
    </contour>
  </outline>
</glyph>
<glyph name="dcaron" format="2">
  <advance width="1476"/>
  <unicode hex="010F"/>
  <outline>
    <contour>
      <point x="1184" y="1373" type="curve" smooth="yes"/>
      <point x="1184" y="1445"/>
      <point x="1240" y="1501"/>
      <point x="1312" y="1501" type="curve" smooth="yes"/>
      <point x="1384" y="1501"/>
      <point x="1440" y="1445"/>
      <point x="1440" y="1373" type="curve" smooth="yes"/>
      <point x="1440" y="1301"/>
      <point x="1384" y="1245"/>
      <point x="1312" y="1245" type="curve" smooth="yes"/>
      <point x="1240" y="1245"/>
      <point x="1184" y="1301"/>
    </contour>
    <contour>
      <point x="1202" y="1104" type="line"/>
      <point x="1259" y="1117"/>
      <point x="1349" y="1165"/>
      <point x="1349" y="1285" type="curve" smooth="yes"/>
      <point x="1349" y="1313"/>
      <point x="1313" y="1373"/>
      <point x="1313" y="1373" type="curve"/>
      <point x="1312" y="1501" type="line"/>
      <point x="1382" y="1501"/>
      <point x="1476" y="1455"/>
      <point x="1476" y="1285" type="curve" smooth="yes"/>
      <point x="1476" y="1105"/>
      <point x="1309" y="1009"/>
      <point x="1232" y="989" type="curve"/>
    </contour>
    <contour>
      <point x="876" y="520" type="curve" smooth="yes"/>
      <point x="876" y="750"/>
      <point x="758" y="900"/>
      <point x="578" y="900" type="curve" smooth="yes"/>
      <point x="398" y="900"/>
      <point x="280" y="750"/>
      <point x="280" y="520" type="curve" smooth="yes"/>
      <point x="280" y="290"/>
      <point x="398" y="140"/>
      <point x="578" y="140" type="curve" smooth="yes"/>
      <point x="758" y="140"/>
      <point x="876" y="290"/>
    </contour>
    <contour>
      <point x="1044" y="168" type="line"/>
      <point x="1044" y="66"/>
      <point x="1064" y="0"/>
      <point x="1064" y="0" type="curve"/>
      <point x="892" y="0" type="line"/>
      <point x="892" y="0"/>
      <point x="876" y="60"/>
      <point x="876" y="120" type="curve"/>
      <point x="791" y="35"/>
      <point x="703" y="-20"/>
      <point x="578" y="-20" type="curve" smooth="yes"/>
      <point x="297" y="-20"/>
      <point x="100" y="208"/>
      <point x="100" y="520" type="curve" smooth="yes"/>
      <point x="100" y="832"/>
      <point x="297" y="1060"/>
      <point x="578" y="1060" type="curve" smooth="yes"/>
      <point x="703" y="1060"/>
      <point x="779" y="1005"/>
      <point x="864" y="920" type="curve"/>
      <point x="864" y="1480" type="line"/>
      <point x="1044" y="1480" type="line"/>
    </contour>
  </outline>
</glyph>
<glyph name="Lcaron" format="2">
  <advance width="1208"/>
  <unicode hex="013D"/>
  <outline>
    <contour>
      <point x="470" y="1371" type="curve" smooth="yes"/>
      <point x="470" y="1443"/>
      <point x="523" y="1500"/>
      <point x="595" y="1500" type="curve" smooth="yes"/>
      <point x="667" y="1500"/>
      <point x="722" y="1443"/>
      <point x="722" y="1371" type="curve" smooth="yes"/>
      <point x="722" y="1299"/>
      <point x="667" y="1244"/>
      <point x="595" y="1244" type="curve" smooth="yes"/>
      <point x="523" y="1244"/>
      <point x="470" y="1299"/>
    </contour>
    <contour>
      <point x="485" y="1103" type="line"/>
      <point x="542" y="1116"/>
      <point x="631" y="1164"/>
      <point x="631" y="1284" type="curve" smooth="yes"/>
      <point x="631" y="1312"/>
      <point x="596" y="1372"/>
      <point x="596" y="1372" type="curve"/>
      <point x="595" y="1500" type="line"/>
      <point x="665" y="1500"/>
      <point x="758" y="1454"/>
      <point x="758" y="1284" type="curve" smooth="yes"/>
      <point x="758" y="1104"/>
      <point x="592" y="1008"/>
      <point x="515" y="988" type="curve"/>
    </contour>
    <contour>
      <point x="330" y="1480" type="line"/>
      <point x="330" y="168" type="line"/>
      <point x="1068" y="168" type="line"/>
      <point x="1068" y="0" type="line"/>
      <point x="140" y="0" type="line"/>
      <point x="140" y="1480" type="line"/>
    </contour>
  </outline>
</glyph>
<glyph name="Lslash" format="2">
  <advance width="1208"/>
  <unicode hex="0141"/>
  <outline>
    <contour>
      <point x="600" y="1100" type="line"/>
      <point x="600" y="907" type="line"/>
      <point x="-70" y="520" type="line"/>
      <point x="-70" y="713" type="line"/>
    </contour>
    <contour>
      <point x="330" y="1480" type="line"/>
      <point x="330" y="168" type="line"/>
      <point x="1068" y="168" type="line"/>
      <point x="1068" y="0" type="line"/>
      <point x="140" y="0" type="line"/>
      <point x="140" y="1480" type="line"/>
    </contour>
  </outline>
</glyph>
<glyph name="OE" format="2">
  <advance width="2380"/>
  <unicode hex="0152"/>
  <outline>
    <contour>
      <point x="290" y="740" type="curve" smooth="yes"/>
      <point x="290" y="390"/>
      <point x="511" y="148"/>
      <point x="801" y="148" type="curve" smooth="yes"/>
      <point x="1091" y="148"/>
      <point x="1312" y="390"/>
      <point x="1312" y="740" type="curve" smooth="yes"/>
      <point x="1312" y="1090"/>
      <point x="1091" y="1332"/>
      <point x="801" y="1332" type="curve" smooth="yes"/>
      <point x="511" y="1332"/>
      <point x="290" y="1090"/>
    </contour>
    <contour>
      <point x="100" y="740" type="curve" smooth="yes"/>
      <point x="100" y="1179"/>
      <point x="406" y="1500"/>
      <point x="801" y="1500" type="curve" smooth="yes"/>
      <point x="1196" y="1500"/>
      <point x="1502" y="1179"/>
      <point x="1502" y="740" type="curve" smooth="yes"/>
      <point x="1502" y="301"/>
      <point x="1196" y="-20"/>
      <point x="801" y="-20" type="curve" smooth="yes"/>
      <point x="406" y="-20"/>
      <point x="100" y="301"/>
    </contour>
    <contour>
      <point x="2145" y="824" type="line"/>
      <point x="2145" y="656" type="line"/>
      <point x="1502" y="656" type="line"/>
      <point x="1502" y="168" type="line"/>
      <point x="2240" y="168" type="line"/>
      <point x="2240" y="0" type="line"/>
      <point x="1312" y="0" type="line"/>
      <point x="1312" y="1480" type="line"/>
      <point x="2240" y="1480" type="line"/>
      <point x="2240" y="1312" type="line"/>
      <point x="1502" y="1312" type="line"/>
      <point x="1502" y="824" type="line"/>
    </contour>
  </outline>
</glyph>
<glyph name="tcaron" format="2">
  <advance width="1152"/>
  <unicode hex="0165"/>
  <outline>
    <contour>
      <point x="860" y="1372" type="curve" smooth="yes"/>
      <point x="860" y="1444"/>
      <point x="916" y="1500"/>
      <point x="988" y="1500" type="curve" smooth="yes"/>
      <point x="1060" y="1500"/>
      <point x="1116" y="1444"/>
      <point x="1116" y="1372" type="curve" smooth="yes"/>
      <point x="1116" y="1300"/>
      <point x="1060" y="1244"/>
      <point x="988" y="1244" type="curve" smooth="yes"/>
      <point x="916" y="1244"/>
      <point x="860" y="1300"/>
    </contour>
    <contour>
      <point x="878" y="1103" type="line"/>
      <point x="935" y="1116"/>
      <point x="1025" y="1164"/>
      <point x="1025" y="1284" type="curve" smooth="yes"/>
      <point x="1025" y="1312"/>
      <point x="989" y="1372"/>
      <point x="989" y="1372" type="curve"/>
      <point x="988" y="1500" type="line"/>
      <point x="1058" y="1500"/>
      <point x="1152" y="1454"/>
      <point x="1152" y="1284" type="curve" smooth="yes"/>
      <point x="1152" y="1104"/>
      <point x="985" y="1008"/>
      <point x="908" y="988" type="curve"/>
    </contour>
    <contour>
      <point x="122" y="1028" type="line"/>
      <point x="212" y="1028"/>
      <point x="272" y="1092"/>
      <point x="272" y="1182" type="curve"/>
      <point x="272" y="1320" type="line"/>
      <point x="440" y="1320" type="line"/>
      <point x="440" y="1040" type="line"/>
      <point x="720" y="1040" type="line"/>
      <point x="720" y="880" type="line"/>
      <point x="440" y="880" type="line"/>
      <point x="440" y="300" type="line" smooth="yes"/>
      <point x="440" y="198"/>
      <point x="498" y="140"/>
      <point x="600" y="140" type="curve" smooth="yes"/>
      <point x="643" y="140"/>
      <point x="694" y="156"/>
      <point x="720" y="175" type="curve"/>
      <point x="765" y="12" type="line"/>
      <point x="720" y="-6"/>
      <point x="656" y="-20"/>
      <point x="600" y="-20" type="curve" smooth="yes"/>
      <point x="400" y="-20"/>
      <point x="260" y="101"/>
      <point x="260" y="300" type="curve" smooth="yes"/>
      <point x="260" y="880" type="line"/>
      <point x="50" y="880" type="line"/>
      <point x="50" y="926"/>
      <point x="50" y="982"/>
      <point x="50" y="1028" type="curve"/>
    </contour>
  </outline>
</glyph>
<glyph name="Tbar" format="2">
  <advance width="1398"/>
  <unicode hex="0166"/>
  <outline>
    <contour>
      <point x="1034" y="656" type="line"/>
      <point x="364" y="656" type="line"/>
      <point x="364" y="702"/>
      <point x="364" y="778"/>
      <point x="364" y="824" type="curve"/>
      <point x="1034" y="824" type="line"/>
    </contour>
    <contour>
      <point x="794" y="0" type="line"/>
      <point x="604" y="0" type="line"/>
      <point x="604" y="1312" type="line"/>
      <point x="140" y="1312" type="line"/>
      <point x="140" y="1480" type="line"/>
      <point x="1258" y="1480" type="line"/>
      <point x="1258" y="1312" type="line"/>
      <point x="794" y="1312" type="line"/>
    </contour>
  </outline>
</glyph>
<glyph name="longs" format="2">
  <advance width="695"/>
  <unicode hex="017F"/>
  <anchor x="390" y="1400" name="top_center"/>
  <anchor x="230" y="0" name="bottom_center"/>
  <outline>
    <contour>
      <point x="320" y="1040" type="line"/>
      <point x="320" y="1180" type="line" smooth="yes"/>
      <point x="320" y="1282"/>
      <point x="378" y="1340"/>
      <point x="480" y="1340" type="curve" smooth="yes"/>
      <point x="523" y="1340"/>
      <point x="574" y="1324"/>
      <point x="600" y="1305" type="curve"/>
      <point x="645" y="1468" type="line"/>
      <point x="600" y="1486"/>
      <point x="536" y="1500"/>
      <point x="480" y="1500" type="curve" smooth="yes"/>
      <point x="280" y="1500"/>
      <point x="140" y="1380"/>
      <point x="140" y="1180" type="curve" smooth="yes"/>
      <point x="140" y="1040" type="line"/>
      <point x="140" y="0" type="line"/>
      <point x="320" y="0" type="line"/>
    </contour>
  </outline>
</glyph>
<glyph name="uni0181" format="2">
  <advance width="1473"/>
  <unicode hex="0181"/>
  <outline>
    <contour>
      <point x="196" y="1110" type="curve"/>
      <point x="4" y="1110" type="line"/>
      <point x="1" y="1126"/>
      <point x="0" y="1143"/>
      <point x="0" y="1160" type="curve" smooth="yes"/>
      <point x="0" y="1338"/>
      <point x="152" y="1480"/>
      <point x="330" y="1480" type="curve" smooth="yes"/>
      <point x="345" y="1480"/>
      <point x="360" y="1479"/>
      <point x="374" y="1477" type="curve"/>
      <point x="374" y="1306" type="line"/>
      <point x="361" y="1310"/>
      <point x="346" y="1312"/>
      <point x="330" y="1312" type="curve" smooth="yes"/>
      <point x="240" y="1312"/>
      <point x="190" y="1250"/>
      <point x="190" y="1160" type="curve" smooth="yes"/>
      <point x="190" y="1142"/>
      <point x="191" y="1125"/>
    </contour>
    <contour>
      <point x="897" y="1480" type="line"/>
      <point x="1117" y="1480"/>
      <point x="1309" y="1330"/>
      <point x="1309" y="1110" type="curve" smooth="yes"/>
      <point x="1309" y="890"/>
      <point x="1117" y="740"/>
      <point x="897" y="740" type="curve"/>
      <point x="897" y="908" type="line"/>
      <point x="1022" y="908"/>
      <point x="1119" y="987"/>
      <point x="1119" y="1112" type="curve" smooth="yes"/>
      <point x="1119" y="1237"/>
      <point x="1022" y="1312"/>
      <point x="897" y="1312" type="curve"/>
      <point x="520" y="1312" type="line"/>
      <point x="520" y="1480" type="line"/>
    </contour>
    <contour>
      <point x="520" y="168" type="line"/>
      <point x="897" y="168" type="line"/>
      <point x="1062" y="168"/>
      <point x="1183" y="289"/>
      <point x="1183" y="454" type="curve" smooth="yes"/>
      <point x="1183" y="619"/>
      <point x="1062" y="740"/>
      <point x="897" y="740" type="curve"/>
      <point x="520" y="740" type="line"/>
    </contour>
    <contour>
      <point x="330" y="0" type="line"/>
      <point x="330" y="1480" type="line"/>
      <point x="520" y="1480" type="line"/>
      <point x="520" y="908" type="line"/>
      <point x="897" y="908" type="line"/>
      <point x="1152" y="908"/>
      <point x="1373" y="709"/>
      <point x="1373" y="454" type="curve" smooth="yes"/>
      <point x="1373" y="199"/>
      <point x="1152" y="0"/>
      <point x="897" y="0" type="curve"/>
    </contour>
  </outline>
</glyph>
<glyph name="uni018D" format="2">
  <advance width="1196"/>
  <unicode hex="018D"/>
  <outline>
    <contour>
      <point x="1096" y="520" type="curve" smooth="yes"/>
      <point x="1096" y="208"/>
      <point x="879" y="20"/>
      <point x="598" y="20" type="curve" smooth="yes"/>
      <point x="598" y="140" type="line" smooth="yes"/>
      <point x="789" y="140"/>
      <point x="916" y="300"/>
      <point x="916" y="520" type="curve" smooth="yes"/>
      <point x="916" y="740"/>
      <point x="789" y="900"/>
      <point x="598" y="900" type="curve" smooth="yes"/>
      <point x="407" y="900"/>
      <point x="280" y="740"/>
      <point x="280" y="520" type="curve" smooth="yes"/>
      <point x="280" y="300"/>
      <point x="407" y="140"/>
      <point x="598" y="140" type="curve" smooth="yes"/>
      <point x="598" y="-20" type="line" smooth="yes"/>
      <point x="317" y="-20"/>
      <point x="100" y="208"/>
      <point x="100" y="520" type="curve" smooth="yes"/>
      <point x="100" y="832"/>
      <point x="317" y="1060"/>
      <point x="598" y="1060" type="curve" smooth="yes"/>
      <point x="879" y="1060"/>
      <point x="1096" y="832"/>
    </contour>
    <contour>
      <point x="519" y="-460" type="curve" smooth="yes"/>
      <point x="349" y="-460"/>
      <point x="199" y="-346"/>
      <point x="199" y="-346" type="curve"/>
      <point x="281" y="-205" type="line"/>
      <point x="281" y="-205"/>
      <point x="408" y="-311"/>
      <point x="558" y="-311" type="curve" smooth="yes"/>
      <point x="808" y="-311"/>
      <point x="848" y="-217"/>
      <point x="848" y="-157" type="curve" smooth="yes"/>
      <point x="848" y="-97"/>
      <point x="818" y="-20"/>
      <point x="598" y="-20" type="curve" smooth="yes"/>
      <point x="598" y="140" type="line" smooth="yes"/>
      <point x="898" y="140"/>
      <point x="1028" y="-7"/>
      <point x="1028" y="-157" type="curve" smooth="yes"/>
      <point x="1028" y="-307"/>
      <point x="899" y="-460"/>
    </contour>
  </outline>
</glyph>
<glyph name="uni018E" format="2">
  <advance width="1208"/>
  <unicode hex="018E"/>
  <anchor x="604" y="-20" name="bottom_cedilla"/>
  <anchor x="604" y="0" name="bottom_center"/>
  <anchor x="604" y="1380" name="top_center"/>
  <outline>
    <contour>
      <point x="235" y="656" type="line"/>
      <point x="235" y="824" type="line"/>
      <point x="878" y="824" type="line"/>
      <point x="878" y="1312" type="line"/>
      <point x="140" y="1312" type="line"/>
      <point x="140" y="1480" type="line"/>
      <point x="1068" y="1480" type="line"/>
      <point x="1068" y="0" type="line"/>
      <point x="140" y="0" type="line"/>
      <point x="140" y="168" type="line"/>
      <point x="878" y="168" type="line"/>
      <point x="878" y="656" type="line"/>
    </contour>
  </outline>
</glyph>
<glyph name="uni018F" format="2">
  <advance width="1602"/>
  <unicode hex="018F"/>
  <anchor x="801" y="-20" name="bottom_cedilla"/>
  <anchor x="801" y="0" name="bottom_center"/>
  <anchor x="801" y="1380" name="top_center"/>
  <outline>
    <contour>
      <point x="104" y="824" type="line"/>
      <point x="102" y="797"/>
      <point x="100" y="769"/>
      <point x="100" y="740" type="curve" smooth="yes"/>
      <point x="100" y="301"/>
      <point x="406" y="-20"/>
      <point x="801" y="-20" type="curve" smooth="yes"/>
      <point x="1196" y="-20"/>
      <point x="1502" y="291"/>
      <point x="1502" y="730" type="curve" smooth="yes"/>
      <point x="1502" y="1169"/>
      <point x="1196" y="1500"/>
      <point x="801" y="1500" type="curve" smooth="yes"/>
      <point x="533" y="1500"/>
      <point x="282" y="1351"/>
      <point x="164" y="1119" type="curve"/>
      <point x="325" y="1027" type="line"/>
      <point x="408" y="1214"/>
      <point x="600" y="1332"/>
      <point x="801" y="1332" type="curve" smooth="yes"/>
      <point x="1091" y="1332"/>
      <point x="1312" y="1090"/>
      <point x="1312" y="740" type="curve" smooth="yes"/>
      <point x="1312" y="390"/>
      <point x="1091" y="148"/>
      <point x="801" y="148" type="curve" smooth="yes"/>
      <point x="511" y="148"/>
      <point x="290" y="390"/>
      <point x="290" y="740" type="curve" smooth="yes"/>
      <point x="290" y="769"/>
      <point x="291" y="797"/>
      <point x="294" y="824" type="curve"/>
    </contour>
    <contour>
      <point x="1406" y="656" type="line"/>
      <point x="1406" y="824" type="line"/>
      <point x="294" y="824" type="line"/>
      <point x="198" y="656" type="line"/>
    </contour>
  </outline>
</glyph>
<glyph name="uni0190" format="2">
  <advance width="1222"/>
  <unicode hex="0190"/>
  <anchor x="768" y="0" name="bottom_right"/>
  <anchor x="612" y="-20" name="bottom_cedilla"/>
  <anchor x="612" y="0" name="bottom_center"/>
  <anchor x="612" y="1380" name="top_center"/>
  <outline>
    <contour>
      <point x="612" y="856" type="line" smooth="yes"/>
      <point x="437" y="856"/>
      <point x="335" y="957"/>
      <point x="335" y="1094" type="curve" smooth="yes"/>
      <point x="335" y="1231"/>
      <point x="437" y="1332"/>
      <point x="612" y="1332" type="curve" smooth="yes"/>
      <point x="787" y="1332"/>
      <point x="891" y="1207"/>
      <point x="891" y="1070" type="curve"/>
      <point x="1078" y="1120" type="line"/>
      <point x="1052" y="1321"/>
      <point x="887" y="1500"/>
      <point x="612" y="1500" type="curve" smooth="yes"/>
      <point x="337" y="1500"/>
      <point x="145" y="1321"/>
      <point x="145" y="1098" type="curve" smooth="yes"/>
      <point x="145" y="969"/>
      <point x="209" y="854"/>
      <point x="317" y="781" type="curve"/>
      <point x="182" y="702"/>
      <point x="100" y="570"/>
      <point x="100" y="418" type="curve" smooth="yes"/>
      <point x="100" y="175"/>
      <point x="312" y="-20"/>
      <point x="612" y="-20" type="curve" smooth="yes"/>
      <point x="893" y="-20"/>
      <point x="1095" y="158"/>
      <point x="1122" y="396" type="curve"/>
      <point x="935" y="446" type="line"/>
      <point x="935" y="290"/>
      <point x="812" y="148"/>
      <point x="612" y="148" type="curve" smooth="yes"/>
      <point x="412" y="148"/>
      <point x="290" y="266"/>
      <point x="290" y="422" type="curve" smooth="yes"/>
      <point x="290" y="578"/>
      <point x="412" y="696"/>
      <point x="612" y="696" type="curve" smooth="yes"/>
      <point x="707" y="696" type="line"/>
      <point x="707" y="856" type="line"/>
    </contour>
  </outline>
</glyph>
<glyph name="uni0191" format="2">
  <advance width="1208"/>
  <unicode hex="0191"/>
  <outline>
    <contour>
      <point x="-44" y="-146" type="line"/>
      <point x="-31" y="-150"/>
      <point x="-16" y="-152"/>
      <point x="-0" y="-152" type="curve" smooth="yes"/>
      <point x="90" y="-152"/>
      <point x="140" y="-90"/>
      <point x="140" y="0" type="curve"/>
      <point x="330" y="0" type="line"/>
      <point x="330" y="-178"/>
      <point x="178" y="-320"/>
      <point x="0" y="-320" type="curve" smooth="yes"/>
      <point x="-15" y="-320"/>
      <point x="-30" y="-319"/>
      <point x="-44" y="-317" type="curve"/>
    </contour>
    <contour>
      <point x="330" y="168" type="line"/>
      <point x="330" y="0" type="line"/>
      <point x="140" y="0" type="line"/>
      <point x="140" y="1480" type="line"/>
      <point x="1068" y="1480" type="line"/>
      <point x="1068" y="1312" type="line"/>
      <point x="330" y="1312" type="line"/>
      <point x="330" y="824" type="line"/>
      <point x="973" y="824" type="line"/>
      <point x="973" y="656" type="line"/>
      <point x="330" y="656" type="line"/>
    </contour>
  </outline>
</glyph>
<glyph name="uni0193" format="2">
  <advance width="1586"/>
  <unicode hex="0193"/>
  <outline>
    <contour>
      <point x="1542" y="1500" type="curve" smooth="yes"/>
      <point x="1557" y="1500"/>
      <point x="1572" y="1499"/>
      <point x="1586" y="1497" type="curve"/>
      <point x="1586" y="1326" type="line"/>
      <point x="1573" y="1330"/>
      <point x="1558" y="1332"/>
      <point x="1542" y="1332" type="curve" smooth="yes"/>
      <point x="1452" y="1332"/>
      <point x="1402" y="1270"/>
      <point x="1402" y="1180" type="curve" smooth="yes"/>
      <point x="1402" y="1162"/>
      <point x="1403" y="1145"/>
      <point x="1408" y="1130" type="curve"/>
      <point x="1216" y="1130" type="line"/>
      <point x="1213" y="1146"/>
      <point x="1212" y="1163"/>
      <point x="1212" y="1180" type="curve" smooth="yes"/>
      <point x="1212" y="1358"/>
      <point x="1364" y="1500"/>
    </contour>
    <contour>
      <point x="1253" y="1029" type="line"/>
      <point x="1170" y="1216"/>
      <point x="1002" y="1332"/>
      <point x="801" y="1332" type="curve" smooth="yes"/>
      <point x="511" y="1332"/>
      <point x="290" y="1090"/>
      <point x="290" y="740" type="curve" smooth="yes"/>
      <point x="290" y="390"/>
      <point x="511" y="148"/>
      <point x="801" y="148" type="curve" smooth="yes"/>
      <point x="1002" y="148"/>
      <point x="1170" y="264"/>
      <point x="1253" y="451" type="curve"/>
      <point x="1414" y="360" type="line"/>
      <point x="1296" y="128"/>
      <point x="1069" y="-20"/>
      <point x="801" y="-20" type="curve" smooth="yes"/>
      <point x="406" y="-20"/>
      <point x="100" y="301"/>
      <point x="100" y="740" type="curve" smooth="yes"/>
      <point x="100" y="1179"/>
      <point x="406" y="1500"/>
      <point x="801" y="1500" type="curve" smooth="yes"/>
      <point x="1069" y="1500"/>
      <point x="1296" y="1352"/>
      <point x="1414" y="1120" type="curve"/>
    </contour>
    <contour>
      <point x="801" y="740" type="line"/>
      <point x="1422" y="740" type="line"/>
      <point x="1422" y="0" type="line"/>
      <point x="1240" y="0" type="line"/>
      <point x="1240" y="227" type="line"/>
      <point x="1232" y="253" type="line"/>
      <point x="1232" y="572" type="line"/>
      <point x="801" y="572" type="line"/>
    </contour>
  </outline>
</glyph>
<glyph name="uni0194" format="2">
  <advance width="1356"/>
  <unicode hex="0194"/>
  <outline>
    <contour>
      <point x="976" y="0" type="line"/>
      <point x="996" y="-42"/>
      <point x="1008" y="-90"/>
      <point x="1008" y="-140" type="curve" smooth="yes"/>
      <point x="1008" y="-318"/>
      <point x="856" y="-460"/>
      <point x="678" y="-460" type="curve" smooth="yes"/>
      <point x="500" y="-460"/>
      <point x="348" y="-318"/>
      <point x="348" y="-140" type="curve" smooth="yes"/>
      <point x="348" y="-90"/>
      <point x="360" y="-42"/>
      <point x="380" y="0" type="curve"/>
      <point x="580" y="402" type="line"/>
      <point x="70" y="1480" type="line"/>
      <point x="266" y="1480" type="line"/>
      <point x="678" y="599" type="line"/>
      <point x="1090" y="1480" type="line"/>
      <point x="1286" y="1480" type="line"/>
      <point x="776" y="402" type="line"/>
    </contour>
    <contour>
      <point x="784" y="0" type="curve"/>
      <point x="678" y="195" type="line"/>
      <point x="582" y="0" type="line"/>
      <point x="559" y="-45"/>
      <point x="538" y="-100"/>
      <point x="538" y="-140" type="curve" smooth="yes"/>
      <point x="538" y="-230"/>
      <point x="588" y="-292"/>
      <point x="678" y="-292" type="curve" smooth="yes"/>
      <point x="768" y="-292"/>
      <point x="828" y="-230"/>
      <point x="828" y="-140" type="curve" smooth="yes"/>
      <point x="828" y="-100"/>
      <point x="807" y="-45"/>
    </contour>
  </outline>
</glyph>
<glyph name="uni0195" format="2">
  <advance width="1812"/>
  <unicode hex="0195"/>
  <outline>
    <contour>
      <point x="1712" y="468" type="curve" smooth="yes"/>
      <point x="1712" y="197"/>
      <point x="1544" y="-20"/>
      <point x="1274" y="-20" type="curve" smooth="yes"/>
      <point x="1004" y="-20"/>
      <point x="836" y="118"/>
      <point x="836" y="468" type="curve"/>
      <point x="836" y="572" type="line"/>
      <point x="836" y="791"/>
      <point x="758" y="900"/>
      <point x="578" y="900" type="curve" smooth="yes"/>
      <point x="398" y="900"/>
      <point x="320" y="791"/>
      <point x="320" y="572" type="curve" smooth="yes"/>
      <point x="320" y="0" type="line"/>
      <point x="140" y="0" type="line"/>
      <point x="140" y="1480" type="line"/>
      <point x="312" y="1480" type="line"/>
      <point x="312" y="920" type="line"/>
      <point x="397" y="1005"/>
      <point x="493" y="1060"/>
      <point x="618" y="1060" type="curve" smooth="yes"/>
      <point x="888" y="1060"/>
      <point x="1016" y="892"/>
      <point x="1016" y="572" type="curve"/>
      <point x="1016" y="468" type="line" smooth="yes"/>
      <point x="1016" y="249"/>
      <point x="1094" y="140"/>
      <point x="1274" y="140" type="curve" smooth="yes"/>
      <point x="1454" y="140"/>
      <point x="1532" y="289"/>
      <point x="1532" y="468" type="curve" smooth="yes"/>
      <point x="1532" y="738"/>
      <point x="1454" y="863"/>
      <point x="1372" y="972" type="curve"/>
      <point x="1525" y="1060" type="line"/>
      <point x="1598" y="969"/>
      <point x="1712" y="818"/>
    </contour>
  </outline>
</glyph>
<glyph name="uni0197" format="2">
  <advance width="770"/>
  <unicode hex="0197"/>
  <outline>
    <contour>
      <point x="720" y="656" type="line"/>
      <point x="50" y="656" type="line"/>
      <point x="50" y="702"/>
      <point x="50" y="778"/>
      <point x="50" y="824" type="curve"/>
      <point x="720" y="824" type="line"/>
    </contour>
    <contour>
      <point x="122" y="1480" type="line"/>
      <point x="648" y="1480" type="line"/>
      <point x="648" y="1312" type="line"/>
      <point x="480" y="1312" type="line"/>
      <point x="480" y="168" type="line"/>
      <point x="648" y="168" type="line"/>
      <point x="648" y="0" type="line"/>
      <point x="122" y="0" type="line"/>
      <point x="122" y="168" type="line"/>
      <point x="290" y="168" type="line"/>
      <point x="290" y="1312" type="line"/>
      <point x="122" y="1312" type="line"/>
    </contour>
  </outline>
</glyph>
<glyph name="uni019C" format="2">
  <advance width="1721"/>
  <unicode hex="019C"/>
  <anchor x="860" y="1380" name="top_center"/>
  <anchor x="860" y="0" name="bottom_center"/>
  <outline>
    <contour>
      <point x="1581" y="168" type="line"/>
      <point x="1581" y="66"/>
      <point x="1601" y="0"/>
      <point x="1601" y="0" type="curve"/>
      <point x="1419" y="0" type="line"/>
      <point x="1419" y="0"/>
      <point x="1403" y="60"/>
      <point x="1403" y="120" type="curve"/>
      <point x="1330" y="33"/>
      <point x="1266" y="-20"/>
      <point x="1141" y="-20" type="curve" smooth="yes"/>
      <point x="911" y="-20"/>
      <point x="765" y="128"/>
      <point x="765" y="468" type="curve"/>
      <point x="765" y="1500" type="line"/>
      <point x="955" y="1500" type="line"/>
      <point x="955" y="468" type="line"/>
      <point x="955" y="249"/>
      <point x="1013" y="148"/>
      <point x="1173" y="148" type="curve" smooth="yes"/>
      <point x="1333" y="148"/>
      <point x="1391" y="249"/>
      <point x="1391" y="468" type="curve" smooth="yes"/>
      <point x="1391" y="1500" type="line"/>
      <point x="1581" y="1500" type="line"/>
    </contour>
    <contour>
      <point x="911" y="468" type="line"/>
      <point x="911" y="148"/>
      <point x="746" y="-20"/>
      <point x="516" y="-20" type="curve" smooth="yes"/>
      <point x="286" y="-20"/>
      <point x="140" y="128"/>
      <point x="140" y="468" type="curve"/>
      <point x="140" y="1500" type="line"/>
      <point x="330" y="1500" type="line"/>
      <point x="330" y="468" type="line"/>
      <point x="330" y="249"/>
      <point x="388" y="148"/>
      <point x="548" y="148" type="curve" smooth="yes"/>
      <point x="708" y="148"/>
      <point x="765" y="249"/>
      <point x="765" y="468" type="curve"/>
    </contour>
  </outline>
</glyph>
<glyph name="uni019D" format="2">
  <advance width="1442"/>
  <unicode hex="019D"/>
  <outline>
    <contour>
      <point x="0" y="-146" type="line"/>
      <point x="13" y="-150"/>
      <point x="28" y="-152"/>
      <point x="44" y="-152" type="curve" smooth="yes"/>
      <point x="134" y="-152"/>
      <point x="184" y="-90"/>
      <point x="184" y="0" type="curve" smooth="yes"/>
      <point x="374" y="0" type="line" smooth="yes"/>
      <point x="374" y="-178"/>
      <point x="222" y="-320"/>
      <point x="44" y="-320" type="curve" smooth="yes"/>
      <point x="29" y="-320"/>
      <point x="14" y="-319"/>
      <point x="0" y="-317" type="curve"/>
    </contour>
    <contour>
      <point x="374" y="1480" type="line"/>
      <point x="1112" y="320" type="line"/>
      <point x="1112" y="1480" type="line"/>
      <point x="1302" y="1480" type="line"/>
      <point x="1302" y="0" type="line"/>
      <point x="1112" y="0" type="line"/>
      <point x="374" y="1160" type="line"/>
      <point x="374" y="0" type="line"/>
      <point x="184" y="0" type="line"/>
      <point x="184" y="1480" type="line"/>
    </contour>
  </outline>
</glyph>
<glyph name="uni019F" format="2">
  <advance width="1602"/>
  <unicode hex="019F"/>
  <outline>
    <contour>
      <point x="1406" y="656" type="line"/>
      <point x="198" y="656" type="line"/>
      <point x="198" y="824" type="line"/>
      <point x="1406" y="824" type="line"/>
    </contour>
    <contour>
      <point x="290" y="740" type="curve" smooth="yes"/>
      <point x="290" y="390"/>
      <point x="511" y="148"/>
      <point x="801" y="148" type="curve" smooth="yes"/>
      <point x="1091" y="148"/>
      <point x="1312" y="390"/>
      <point x="1312" y="740" type="curve" smooth="yes"/>
      <point x="1312" y="1090"/>
      <point x="1091" y="1332"/>
      <point x="801" y="1332" type="curve" smooth="yes"/>
      <point x="511" y="1332"/>
      <point x="290" y="1090"/>
    </contour>
    <contour>
      <point x="100" y="740" type="curve" smooth="yes"/>
      <point x="100" y="1179"/>
      <point x="406" y="1500"/>
      <point x="801" y="1500" type="curve" smooth="yes"/>
      <point x="1196" y="1500"/>
      <point x="1502" y="1179"/>
      <point x="1502" y="740" type="curve" smooth="yes"/>
      <point x="1502" y="301"/>
      <point x="1196" y="-20"/>
      <point x="801" y="-20" type="curve" smooth="yes"/>
      <point x="406" y="-20"/>
      <point x="100" y="301"/>
    </contour>
  </outline>
</glyph>
<glyph name="uni01A3" format="2">
  <advance width="1496"/>
  <unicode hex="01A3"/>
  <outline>
    <contour>
      <point x="1335" y="969" type="curve"/>
      <point x="1176" y="1040" type="line"/>
      <point x="1120" y="966"/>
      <point x="1037" y="922"/>
      <point x="937" y="922" type="curve" smooth="yes"/>
      <point x="937" y="762" type="line" smooth="yes"/>
      <point x="1102" y="762"/>
      <point x="1244" y="841"/>
    </contour>
    <contour>
      <point x="1176" y="-440" type="line"/>
      <point x="1356" y="-440" type="line"/>
      <point x="1356" y="1040" type="line"/>
      <point x="1176" y="1040" type="line"/>
    </contour>
    <contour>
      <point x="816" y="187" type="line"/>
      <point x="996" y="187" type="line"/>
      <point x="996" y="853" type="line"/>
      <point x="816" y="853" type="line"/>
    </contour>
    <contour>
      <point x="865" y="302" type="line"/>
      <point x="811" y="202"/>
      <point x="717" y="140"/>
      <point x="598" y="140" type="curve" smooth="yes"/>
      <point x="407" y="140"/>
      <point x="280" y="300"/>
      <point x="280" y="520" type="curve" smooth="yes"/>
      <point x="280" y="740"/>
      <point x="407" y="900"/>
      <point x="598" y="900" type="curve" smooth="yes"/>
      <point x="731" y="900"/>
      <point x="833" y="822"/>
      <point x="883" y="700" type="curve"/>
      <point x="996" y="853" type="line"/>
      <point x="905" y="981"/>
      <point x="763" y="1060"/>
      <point x="598" y="1060" type="curve" smooth="yes"/>
      <point x="317" y="1060"/>
      <point x="100" y="832"/>
      <point x="100" y="520" type="curve" smooth="yes"/>
      <point x="100" y="208"/>
      <point x="317" y="-20"/>
      <point x="598" y="-20" type="curve" smooth="yes"/>
      <point x="763" y="-20"/>
      <point x="906" y="59"/>
      <point x="996" y="187" type="curve"/>
    </contour>
  </outline>
</glyph>
<glyph name="uni01A8" format="2">
  <advance width="1020"/>
  <unicode hex="01A8"/>
  <anchor x="506" y="1040" name="top_center"/>
  <anchor x="506" y="0" name="bottom_center"/>
  <anchor x="344" y="0" name="bottom_right"/>
  <outline>
    <contour>
      <point x="506" y="1060" type="curve" smooth="yes"/>
      <point x="287" y="1060"/>
      <point x="159" y="953"/>
      <point x="120" y="808" type="curve"/>
      <point x="277" y="720" type="line"/>
      <point x="308" y="836"/>
      <point x="374" y="900"/>
      <point x="506" y="900" type="curve" smooth="yes"/>
      <point x="638" y="900"/>
      <point x="700" y="840"/>
      <point x="700" y="760" type="curve" smooth="yes"/>
      <point x="700" y="680"/>
      <point x="652" y="642"/>
      <point x="506" y="608" type="curve" smooth="yes"/>
      <point x="272" y="554"/>
      <point x="100" y="477"/>
      <point x="100" y="281" type="curve" smooth="yes"/>
      <point x="100" y="85"/>
      <point x="276" y="-20"/>
      <point x="506" y="-20" type="curve" smooth="yes"/>
      <point x="736" y="-20"/>
      <point x="881" y="108"/>
      <point x="920" y="253" type="curve"/>
      <point x="763" y="341" type="line"/>
      <point x="732" y="225"/>
      <point x="656" y="141"/>
      <point x="506" y="141" type="curve" smooth="yes"/>
      <point x="356" y="141"/>
      <point x="280" y="191"/>
      <point x="280" y="281" type="curve" smooth="yes"/>
      <point x="280" y="371"/>
      <point x="360" y="404"/>
      <point x="506" y="438" type="curve" smooth="yes"/>
      <point x="740" y="492"/>
      <point x="880" y="585"/>
      <point x="880" y="760" type="curve" smooth="yes"/>
      <point x="880" y="935"/>
      <point x="725" y="1060"/>
    </contour>
  </outline>
</glyph>
<glyph name="uni01B1" format="2">
  <advance width="1602"/>
  <unicode hex="01B1"/>
  <outline>
    <contour>
      <point x="1502" y="1480" type="line"/>
      <point x="1502" y="1312" type="line"/>
      <point x="941" y="1312" type="line"/>
      <point x="941" y="1480" type="line"/>
    </contour>
    <contour>
      <point x="100" y="1480" type="line"/>
      <point x="661" y="1480" type="line"/>
      <point x="661" y="1312" type="line"/>
      <point x="100" y="1312" type="line"/>
    </contour>
    <contour>
      <point x="1502" y="740" type="curve" smooth="yes"/>
      <point x="1502" y="301"/>
      <point x="1196" y="-20"/>
      <point x="801" y="-20" type="curve"/>
      <point x="801" y="148" type="line"/>
      <point x="1091" y="148"/>
      <point x="1312" y="390"/>
      <point x="1312" y="740" type="curve" smooth="yes"/>
      <point x="1312" y="1031"/>
      <point x="1159" y="1247"/>
      <point x="941" y="1312" type="curve"/>
      <point x="1263" y="1312" type="line"/>
      <point x="1405" y="1176"/>
      <point x="1502" y="975"/>
    </contour>
    <contour>
      <point x="100" y="740" type="curve" smooth="yes"/>
      <point x="100" y="975"/>
      <point x="197" y="1176"/>
      <point x="339" y="1312" type="curve"/>
      <point x="661" y="1312" type="line"/>
      <point x="443" y="1247"/>
      <point x="290" y="1031"/>
      <point x="290" y="740" type="curve" smooth="yes"/>
      <point x="290" y="390"/>
      <point x="511" y="148"/>
      <point x="801" y="148" type="curve"/>
      <point x="801" y="-20" type="line"/>
      <point x="406" y="-20"/>
      <point x="100" y="301"/>
    </contour>
  </outline>
</glyph>
<glyph name="uni01B8" format="2">
  <advance width="1222"/>
  <unicode hex="01B8"/>
  <outline>
    <contour>
      <point x="582" y="740" type="line"/>
      <point x="707" y="840" type="line"/>
      <point x="359" y="1312" type="line"/>
      <point x="145" y="1328" type="line"/>
    </contour>
    <contour>
      <point x="100" y="422" type="curve" smooth="yes"/>
      <point x="100" y="179"/>
      <point x="312" y="-20"/>
      <point x="612" y="-20" type="curve" smooth="yes"/>
      <point x="893" y="-20"/>
      <point x="1095" y="158"/>
      <point x="1122" y="396" type="curve"/>
      <point x="935" y="446" type="line"/>
      <point x="935" y="290"/>
      <point x="812" y="148"/>
      <point x="612" y="148" type="curve" smooth="yes"/>
      <point x="412" y="148"/>
      <point x="290" y="266"/>
      <point x="290" y="422" type="curve" smooth="yes"/>
      <point x="290" y="578"/>
      <point x="412" y="696"/>
      <point x="612" y="696" type="curve"/>
      <point x="683" y="696"/>
      <point x="707" y="696"/>
      <point x="707" y="696" type="curve"/>
      <point x="707" y="840" type="line"/>
      <point x="707" y="840"/>
      <point x="682" y="856"/>
      <point x="612" y="856" type="curve"/>
      <point x="329" y="856"/>
      <point x="100" y="662"/>
    </contour>
    <contour>
      <point x="1050" y="1480" type="line"/>
      <point x="145" y="1480" type="line"/>
      <point x="145" y="1328" type="line"/>
      <point x="319" y="1312" type="line"/>
      <point x="1050" y="1312" type="line"/>
    </contour>
  </outline>
</glyph>
<glyph name="uni01C1" format="2">
  <advance width="820"/>
  <unicode hex="01C1"/>
  <outline>
    <contour>
      <point x="680" y="1480" type="line"/>
      <point x="680" y="0" type="line"/>
      <point x="500" y="0" type="line"/>
      <point x="500" y="1480" type="line"/>
    </contour>
    <contour>
      <point x="320" y="1480" type="line"/>
      <point x="320" y="0" type="line"/>
      <point x="140" y="0" type="line"/>
      <point x="140" y="1480" type="line"/>
    </contour>
  </outline>
</glyph>
<glyph name="uni01F6" format="2">
  <advance width="2104"/>
  <unicode hex="01F6"/>
  <outline>
    <contour>
      <point x="1964" y="1040" type="line"/>
      <point x="1964" y="468" type="line"/>
      <point x="1964" y="118"/>
      <point x="1786" y="-20"/>
      <point x="1516" y="-20" type="curve" smooth="yes"/>
      <point x="1246" y="-20"/>
      <point x="1068" y="118"/>
      <point x="1068" y="468" type="curve"/>
      <point x="1068" y="530" type="line"/>
      <point x="1258" y="530" type="line"/>
      <point x="1258" y="468" type="line" smooth="yes"/>
      <point x="1258" y="254"/>
      <point x="1336" y="148"/>
      <point x="1516" y="148" type="curve" smooth="yes"/>
      <point x="1696" y="148"/>
      <point x="1774" y="249"/>
      <point x="1774" y="468" type="curve" smooth="yes"/>
      <point x="1774" y="1040" type="line"/>
    </contour>
    <contour>
      <point x="140" y="1480" type="line"/>
      <point x="330" y="1480" type="line"/>
      <point x="330" y="824" type="line"/>
      <point x="1068" y="824" type="line"/>
      <point x="1068" y="1480" type="line"/>
      <point x="1258" y="1480" type="line"/>
      <point x="1258" y="530" type="line"/>
      <point x="1068" y="530" type="line"/>
      <point x="1068" y="656" type="line"/>
      <point x="330" y="656" type="line"/>
      <point x="330" y="0" type="line"/>
      <point x="140" y="0" type="line"/>
    </contour>
  </outline>
</glyph>
<glyph name="uni021D" format="2">
  <advance width="939"/>
  <unicode hex="021D"/>
  <outline>
    <contour>
      <point x="536" y="349" type="line"/>
      <point x="640" y="329"/>
      <point x="696" y="253"/>
      <point x="696" y="159" type="curve" smooth="yes"/>
      <point x="696" y="3"/>
      <point x="491" y="-280"/>
      <point x="153" y="-280" type="curve"/>
      <point x="153" y="-440" type="line"/>
      <point x="560" y="-440"/>
      <point x="876" y="-116"/>
      <point x="876" y="140" type="curve" smooth="yes"/>
      <point x="876" y="285"/>
      <point x="800" y="424"/>
      <point x="648" y="471" type="curve"/>
    </contour>
    <contour>
      <point x="448" y="899" type="curve" smooth="yes"/>
      <point x="581" y="899"/>
      <point x="653" y="821"/>
      <point x="653" y="718" type="curve" smooth="yes"/>
      <point x="653" y="573"/>
      <point x="484" y="305"/>
      <point x="153" y="305" type="curve"/>
      <point x="153" y="145" type="line"/>
      <point x="555" y="145"/>
      <point x="833" y="471"/>
      <point x="833" y="730" type="curve" smooth="yes"/>
      <point x="833" y="929"/>
      <point x="664" y="1060"/>
      <point x="448" y="1060" type="curve" smooth="yes"/>
      <point x="232" y="1060"/>
      <point x="63" y="911"/>
      <point x="63" y="709" type="curve"/>
      <point x="247" y="669" type="line"/>
      <point x="245" y="680"/>
      <point x="243" y="692"/>
      <point x="243" y="704" type="curve" smooth="yes"/>
      <point x="243" y="807"/>
      <point x="315" y="899"/>
    </contour>
  </outline>
</glyph>
<glyph name="uni0221" format="2">
  <advance width="1344"/>
  <unicode hex="0221"/>
  <outline>
    <contour>
      <point x="876" y="520" type="curve" smooth="yes"/>
      <point x="876" y="750"/>
      <point x="758" y="900"/>
      <point x="578" y="900" type="curve" smooth="yes"/>
      <point x="398" y="900"/>
      <point x="280" y="750"/>
      <point x="280" y="520" type="curve" smooth="yes"/>
      <point x="280" y="290"/>
      <point x="398" y="140"/>
      <point x="578" y="140" type="curve" smooth="yes"/>
      <point x="758" y="140"/>
      <point x="876" y="290"/>
    </contour>
    <contour>
      <point x="876" y="120" type="line"/>
      <point x="791" y="35"/>
      <point x="703" y="-20"/>
      <point x="578" y="-20" type="curve" smooth="yes"/>
      <point x="297" y="-20"/>
      <point x="100" y="208"/>
      <point x="100" y="520" type="curve" smooth="yes"/>
      <point x="100" y="832"/>
      <point x="297" y="1060"/>
      <point x="578" y="1060" type="curve" smooth="yes"/>
      <point x="703" y="1060"/>
      <point x="779" y="1005"/>
      <point x="864" y="920" type="curve"/>
      <point x="864" y="1480" type="line"/>
      <point x="1044" y="1480" type="line"/>
      <point x="1044" y="206" type="line"/>
      <point x="1044" y="170"/>
      <point x="1068" y="140"/>
      <point x="1104" y="140" type="curve" smooth="yes"/>
      <point x="1140" y="140"/>
      <point x="1164" y="170"/>
      <point x="1164" y="206" type="curve" smooth="yes"/>
      <point x="1164" y="242"/>
      <point x="1140" y="272"/>
      <point x="1104" y="272" type="curve" smooth="yes"/>
      <point x="884" y="272"/>
      <point x="793" y="-197"/>
      <point x="793" y="-197" type="curve"/>
      <point x="640" y="-109" type="line"/>
      <point x="640" y="-109"/>
      <point x="744" y="432"/>
      <point x="1104" y="432" type="curve" smooth="yes"/>
      <point x="1234" y="432"/>
      <point x="1344" y="348"/>
      <point x="1344" y="206" type="curve" smooth="yes"/>
      <point x="1344" y="64"/>
      <point x="1234" y="-20"/>
      <point x="1104" y="-20" type="curve" smooth="yes"/>
      <point x="974" y="-20"/>
      <point x="864" y="64"/>
      <point x="864" y="206" type="curve" smooth="yes"/>
    </contour>
  </outline>
</glyph>
<glyph name="uni0222" format="2">
  <advance width="1312"/>
  <unicode hex="0222"/>
  <outline>
    <contour>
      <point x="143" y="1024" type="curve" smooth="yes"/>
      <point x="143" y="934"/>
      <point x="218" y="824"/>
      <point x="315" y="781" type="curve"/>
      <point x="181" y="702"/>
      <point x="100" y="569"/>
      <point x="100" y="418" type="curve" smooth="yes"/>
      <point x="100" y="175"/>
      <point x="295" y="-20"/>
      <point x="655" y="-20" type="curve" smooth="yes"/>
      <point x="1015" y="-20"/>
      <point x="1212" y="175"/>
      <point x="1212" y="418" type="curve" smooth="yes"/>
      <point x="1212" y="570"/>
      <point x="1130" y="702"/>
      <point x="995" y="781" type="curve"/>
      <point x="1103" y="854"/>
      <point x="1167" y="969"/>
      <point x="1167" y="1098" type="curve" smooth="yes"/>
      <point x="1167" y="1338"/>
      <point x="1024" y="1502"/>
      <point x="700" y="1502" type="curve" smooth="yes"/>
      <point x="700" y="1334" type="line" smooth="yes"/>
      <point x="922" y="1334"/>
      <point x="977" y="1244"/>
      <point x="977" y="1094" type="curve" smooth="yes"/>
      <point x="977" y="957"/>
      <point x="877" y="856"/>
      <point x="655" y="856" type="curve" smooth="yes"/>
      <point x="433" y="856"/>
      <point x="333" y="935"/>
      <point x="333" y="1030" type="curve" smooth="yes"/>
      <point x="333" y="1125"/>
      <point x="430" y="1186"/>
      <point x="610" y="1186" type="curve" smooth="yes"/>
      <point x="610" y="1354" type="line" smooth="yes"/>
      <point x="391" y="1354"/>
      <point x="143" y="1264"/>
    </contour>
    <contour>
      <point x="655" y="696" type="curve" smooth="yes"/>
      <point x="895" y="696"/>
      <point x="1022" y="578"/>
      <point x="1022" y="422" type="curve" smooth="yes"/>
      <point x="1022" y="266"/>
      <point x="895" y="148"/>
      <point x="655" y="148" type="curve" smooth="yes"/>
      <point x="415" y="148"/>
      <point x="290" y="266"/>
      <point x="290" y="422" type="curve" smooth="yes"/>
      <point x="290" y="578"/>
      <point x="415" y="696"/>
    </contour>
  </outline>
</glyph>
<glyph name="uni0223" format="2">
  <advance width="1222"/>
  <unicode hex="0223"/>
  <outline>
    <contour>
      <point x="733" y="1336" type="curve"/>
      <point x="777" y="1500" type="line"/>
      <point x="960" y="1444"/>
      <point x="1077" y="1285"/>
      <point x="1077" y="1110" type="curve" smooth="yes"/>
      <point x="1077" y="981"/>
      <point x="1013" y="854"/>
      <point x="905" y="781" type="curve"/>
      <point x="1040" y="702"/>
      <point x="1122" y="570"/>
      <point x="1122" y="418" type="curve" smooth="yes"/>
      <point x="1122" y="175"/>
      <point x="910" y="-20"/>
      <point x="610" y="-20" type="curve" smooth="yes"/>
      <point x="310" y="-20"/>
      <point x="100" y="175"/>
      <point x="100" y="418" type="curve" smooth="yes"/>
      <point x="100" y="569"/>
      <point x="181" y="702"/>
      <point x="315" y="781" type="curve"/>
      <point x="207" y="854"/>
      <point x="143" y="981"/>
      <point x="143" y="1110" type="curve" smooth="yes"/>
      <point x="143" y="1285"/>
      <point x="260" y="1443"/>
      <point x="443" y="1500" type="curve"/>
      <point x="487" y="1336" type="line"/>
      <point x="388" y="1300"/>
      <point x="333" y="1207"/>
      <point x="333" y="1106" type="curve" smooth="yes"/>
      <point x="333" y="969"/>
      <point x="435" y="856"/>
      <point x="610" y="856" type="curve" smooth="yes"/>
      <point x="785" y="856"/>
      <point x="887" y="969"/>
      <point x="887" y="1106" type="curve" smooth="yes"/>
      <point x="887" y="1207"/>
      <point x="832" y="1301"/>
    </contour>
    <contour>
      <point x="610" y="696" type="curve" smooth="yes"/>
      <point x="410" y="696"/>
      <point x="290" y="578"/>
      <point x="290" y="422" type="curve" smooth="yes"/>
      <point x="290" y="266"/>
      <point x="410" y="148"/>
      <point x="610" y="148" type="curve" smooth="yes"/>
      <point x="810" y="148"/>
      <point x="932" y="266"/>
      <point x="932" y="422" type="curve" smooth="yes"/>
      <point x="932" y="578"/>
      <point x="810" y="696"/>
    </contour>
  </outline>
</glyph>
<glyph name="uni0234" format="2">
  <advance width="704"/>
  <unicode hex="0234"/>
  <outline>
    <contour>
      <point x="404" y="206" type="line"/>
      <point x="404" y="170"/>
      <point x="428" y="140"/>
      <point x="464" y="140" type="curve" smooth="yes"/>
      <point x="500" y="140"/>
      <point x="524" y="170"/>
      <point x="524" y="206" type="curve" smooth="yes"/>
      <point x="524" y="242"/>
      <point x="500" y="272"/>
      <point x="464" y="272" type="curve" smooth="yes"/>
      <point x="244" y="272"/>
      <point x="153" y="-197"/>
      <point x="153" y="-197" type="curve"/>
      <point x="0" y="-109" type="line"/>
      <point x="0" y="-109"/>
      <point x="104" y="432"/>
      <point x="464" y="432" type="curve" smooth="yes"/>
      <point x="594" y="432"/>
      <point x="704" y="348"/>
      <point x="704" y="206" type="curve" smooth="yes"/>
      <point x="704" y="64"/>
      <point x="594" y="-20"/>
      <point x="464" y="-20" type="curve" smooth="yes"/>
      <point x="334" y="-20"/>
      <point x="224" y="64"/>
      <point x="224" y="206" type="curve" smooth="yes"/>
      <point x="224" y="273" type="line"/>
      <point x="224" y="1480" type="line"/>
      <point x="404" y="1480" type="line"/>
      <point x="404" y="521" type="line"/>
    </contour>
  </outline>
</glyph>
<glyph name="uni0235" format="2">
  <advance width="1316"/>
  <unicode hex="0235"/>
  <outline>
    <contour>
      <point x="1016" y="206" type="line"/>
      <point x="1016" y="170"/>
      <point x="1040" y="140"/>
      <point x="1076" y="140" type="curve" smooth="yes"/>
      <point x="1112" y="140"/>
      <point x="1136" y="170"/>
      <point x="1136" y="206" type="curve" smooth="yes"/>
      <point x="1136" y="242"/>
      <point x="1112" y="272"/>
      <point x="1076" y="272" type="curve" smooth="yes"/>
      <point x="856" y="272"/>
      <point x="765" y="-197"/>
      <point x="765" y="-197" type="curve"/>
      <point x="612" y="-109" type="line"/>
      <point x="612" y="-109"/>
      <point x="716" y="432"/>
      <point x="1076" y="432" type="curve" smooth="yes"/>
      <point x="1206" y="432"/>
      <point x="1316" y="348"/>
      <point x="1316" y="206" type="curve" smooth="yes"/>
      <point x="1316" y="64"/>
      <point x="1206" y="-20"/>
      <point x="1076" y="-20" type="curve" smooth="yes"/>
      <point x="946" y="-20"/>
      <point x="836" y="64"/>
      <point x="836" y="206" type="curve" smooth="yes"/>
      <point x="836" y="268" type="line"/>
      <point x="836" y="572" type="line"/>
      <point x="836" y="791"/>
      <point x="758" y="900"/>
      <point x="578" y="900" type="curve" smooth="yes"/>
      <point x="398" y="900"/>
      <point x="320" y="791"/>
      <point x="320" y="572" type="curve" smooth="yes"/>
      <point x="320" y="0" type="line"/>
      <point x="140" y="0" type="line"/>
      <point x="140" y="1040" type="line"/>
      <point x="308" y="1040" type="line"/>
      <point x="308" y="920" type="line"/>
      <point x="393" y="1005"/>
      <point x="493" y="1060"/>
      <point x="618" y="1060" type="curve" smooth="yes"/>
      <point x="888" y="1060"/>
      <point x="1016" y="892"/>
      <point x="1016" y="572" type="curve"/>
    </contour>
  </outline>
</glyph>
<glyph name="uni023F" format="2">
  <advance width="1020"/>
  <unicode hex="023F"/>
  <outline>
    <contour>
      <point x="604" y="0" type="line"/>
      <point x="604" y="-93"/>
      <point x="650" y="-163"/>
      <point x="740" y="-163" type="curve" smooth="yes"/>
      <point x="756" y="-163"/>
      <point x="771" y="-161"/>
      <point x="784" y="-157" type="curve"/>
      <point x="784" y="-320" type="line"/>
      <point x="770" y="-322"/>
      <point x="755" y="-323"/>
      <point x="740" y="-323" type="curve" smooth="yes"/>
      <point x="562" y="-323"/>
      <point x="424" y="-181"/>
      <point x="424" y="0" type="curve"/>
    </contour>
    <contour>
      <point x="514" y="1060" type="curve" smooth="yes"/>
      <point x="733" y="1060"/>
      <point x="861" y="953"/>
      <point x="900" y="808" type="curve"/>
      <point x="743" y="720" type="line"/>
      <point x="712" y="836"/>
      <point x="646" y="900"/>
      <point x="514" y="900" type="curve" smooth="yes"/>
      <point x="382" y="900"/>
      <point x="320" y="840"/>
      <point x="320" y="760" type="curve" smooth="yes"/>
      <point x="320" y="680"/>
      <point x="368" y="642"/>
      <point x="514" y="608" type="curve" smooth="yes"/>
      <point x="748" y="554"/>
      <point x="920" y="477"/>
      <point x="920" y="281" type="curve" smooth="yes"/>
      <point x="920" y="85"/>
      <point x="744" y="-20"/>
      <point x="514" y="-20" type="curve" smooth="yes"/>
      <point x="284" y="-20"/>
      <point x="139" y="108"/>
      <point x="100" y="253" type="curve"/>
      <point x="257" y="341" type="line"/>
      <point x="288" y="225"/>
      <point x="364" y="141"/>
      <point x="514" y="141" type="curve" smooth="yes"/>
      <point x="664" y="141"/>
      <point x="740" y="191"/>
      <point x="740" y="281" type="curve" smooth="yes"/>
      <point x="740" y="371"/>
      <point x="660" y="404"/>
      <point x="514" y="438" type="curve" smooth="yes"/>
      <point x="280" y="492"/>
      <point x="140" y="585"/>
      <point x="140" y="760" type="curve" smooth="yes"/>
      <point x="140" y="935"/>
      <point x="295" y="1060"/>
    </contour>
  </outline>
</glyph>
<glyph name="uni0243" format="2">
  <advance width="1353"/>
  <unicode hex="0243"/>
  <outline>
    <contour>
      <point x="670" y="366" type="line"/>
      <point x="0" y="366" type="line"/>
      <point x="0" y="412"/>
      <point x="0" y="488"/>
      <point x="0" y="534" type="curve"/>
      <point x="670" y="534" type="line"/>
    </contour>
    <contour>
      <point x="777" y="1480" type="line"/>
      <point x="997" y="1480"/>
      <point x="1189" y="1330"/>
      <point x="1189" y="1110" type="curve" smooth="yes"/>
      <point x="1189" y="890"/>
      <point x="997" y="740"/>
      <point x="777" y="740" type="curve"/>
      <point x="777" y="908" type="line"/>
      <point x="902" y="908"/>
      <point x="999" y="987"/>
      <point x="999" y="1112" type="curve" smooth="yes"/>
      <point x="999" y="1237"/>
      <point x="902" y="1312"/>
      <point x="777" y="1312" type="curve"/>
      <point x="400" y="1312" type="line"/>
      <point x="400" y="1480" type="line"/>
    </contour>
    <contour>
      <point x="400" y="168" type="line"/>
      <point x="777" y="168" type="line"/>
      <point x="942" y="168"/>
      <point x="1063" y="289"/>
      <point x="1063" y="454" type="curve" smooth="yes"/>
      <point x="1063" y="619"/>
      <point x="942" y="740"/>
      <point x="777" y="740" type="curve"/>
      <point x="400" y="740" type="line"/>
    </contour>
    <contour>
      <point x="210" y="1480" type="line"/>
      <point x="400" y="1480" type="line"/>
      <point x="400" y="908" type="line"/>
      <point x="777" y="908" type="line"/>
      <point x="1032" y="908"/>
      <point x="1253" y="709"/>
      <point x="1253" y="454" type="curve" smooth="yes"/>
      <point x="1253" y="199"/>
      <point x="1032" y="0"/>
      <point x="777" y="0" type="curve"/>
      <point x="210" y="0" type="line"/>
    </contour>
  </outline>
</glyph>
<glyph name="uni0248" format="2">
  <advance width="1237"/>
  <unicode hex="0248"/>
  <outline>
    <contour>
      <point x="293" y="491" type="line"/>
      <point x="291" y="474"/>
      <point x="290" y="458"/>
      <point x="290" y="440" type="curve" smooth="yes"/>
      <point x="291" y="260"/>
      <point x="384" y="148"/>
      <point x="564" y="148" type="curve" smooth="yes"/>
      <point x="744" y="148"/>
      <point x="838" y="260"/>
      <point x="838" y="440" type="curve"/>
      <point x="838" y="1480" type="line"/>
      <point x="1028" y="1480" type="line"/>
      <point x="1028" y="440" type="line"/>
      <point x="1028" y="170"/>
      <point x="834" y="-20"/>
      <point x="564" y="-20" type="curve" smooth="yes"/>
      <point x="294" y="-20"/>
      <point x="101" y="170"/>
      <point x="100" y="440" type="curve" smooth="yes"/>
    </contour>
    <contour>
      <point x="1237" y="656" type="line"/>
      <point x="567" y="656" type="line"/>
      <point x="567" y="702"/>
      <point x="567" y="778"/>
      <point x="567" y="824" type="curve"/>
      <point x="1237" y="824" type="line"/>
    </contour>
  </outline>
</glyph>
<glyph name="uni0249" format="2">
  <advance width="670"/>
  <unicode hex="0249"/>
  <outline>
    <contour>
      <point x="0" y="440" type="line"/>
      <point x="0" y="486"/>
      <point x="0" y="554"/>
      <point x="0" y="600" type="curve"/>
      <point x="670" y="600" type="line"/>
      <point x="670" y="440" type="line"/>
    </contour>
    <contour>
      <point x="207" y="1372" type="curve" smooth="yes"/>
      <point x="207" y="1444"/>
      <point x="263" y="1500"/>
      <point x="335" y="1500" type="curve" smooth="yes"/>
      <point x="407" y="1500"/>
      <point x="463" y="1444"/>
      <point x="463" y="1372" type="curve" smooth="yes"/>
      <point x="463" y="1300"/>
      <point x="407" y="1244"/>
      <point x="335" y="1244" type="curve" smooth="yes"/>
      <point x="263" y="1244"/>
      <point x="207" y="1300"/>
    </contour>
    <contour>
      <point x="103" y="-284" type="line"/>
      <point x="115" y="-291"/>
      <point x="139" y="-300"/>
      <point x="155" y="-300" type="curve" smooth="yes"/>
      <point x="215" y="-300"/>
      <point x="245" y="-270"/>
      <point x="245" y="-210" type="curve" smooth="yes"/>
      <point x="245" y="0" type="line"/>
      <point x="245" y="138" type="line"/>
      <point x="245" y="1040" type="line"/>
      <point x="425" y="1040" type="line"/>
      <point x="425" y="138" type="line"/>
      <point x="425" y="0" type="line"/>
      <point x="425" y="-210" type="line" smooth="yes"/>
      <point x="425" y="-380"/>
      <point x="325" y="-460"/>
      <point x="155" y="-460" type="curve" smooth="yes"/>
      <point x="123" y="-460"/>
      <point x="83" y="-449"/>
      <point x="61" y="-436" type="curve"/>
    </contour>
  </outline>
</glyph>
<glyph name="uni024E" format="2">
  <advance width="1442"/>
  <unicode hex="024E"/>
  <outline>
    <contour>
      <point x="1392" y="1195" type="line"/>
      <point x="1392" y="1027" type="line"/>
      <point x="50" y="1027" type="line"/>
      <point x="50" y="1195" type="line"/>
    </contour>
    <contour>
      <point x="626" y="0" type="line"/>
      <point x="626" y="740" type="line"/>
      <point x="816" y="740" type="line"/>
      <point x="816" y="0" type="line"/>
    </contour>
    <contour>
      <point x="780" y="628" type="line"/>
      <point x="646" y="666" type="line"/>
      <point x="95" y="1480" type="line"/>
      <point x="309" y="1480" type="line"/>
      <point x="721" y="858" type="line"/>
      <point x="1133" y="1480" type="line"/>
      <point x="1347" y="1480" type="line"/>
    </contour>
  </outline>
</glyph>
<glyph name="uni0250" format="2">
  <advance width="1140"/>
  <unicode hex="0250"/>
  <outline>
    <contour>
      <point x="640" y="1060" type="curve" smooth="yes"/>
      <point x="895" y="1060"/>
      <point x="1040" y="900"/>
      <point x="1040" y="700" type="curve" smooth="yes"/>
      <point x="1040" y="500"/>
      <point x="855" y="340"/>
      <point x="600" y="340" type="curve" smooth="yes"/>
      <point x="385" y="340"/>
      <point x="250" y="500"/>
      <point x="250" y="700" type="curve" smooth="yes"/>
      <point x="250" y="900"/>
      <point x="415" y="1060"/>
    </contour>
    <contour>
      <point x="340" y="700" type="curve" smooth="yes"/>
      <point x="340" y="580"/>
      <point x="420" y="500"/>
      <point x="600" y="500" type="curve" smooth="yes"/>
      <point x="780" y="500"/>
      <point x="860" y="580"/>
      <point x="860" y="700" type="curve" smooth="yes"/>
      <point x="860" y="820"/>
      <point x="780" y="900"/>
      <point x="600" y="900" type="curve" smooth="yes"/>
      <point x="450" y="900"/>
      <point x="340" y="820"/>
    </contour>
    <contour>
      <point x="160" y="813" type="line" smooth="yes"/>
      <point x="160" y="873"/>
      <point x="130" y="902"/>
      <point x="70" y="902" type="curve" smooth="yes"/>
      <point x="112" y="1060" type="line"/>
      <point x="256" y="1047"/>
      <point x="340" y="968"/>
      <point x="340" y="813" type="curve"/>
      <point x="320" y="784" type="line"/>
      <point x="320" y="591" type="line"/>
      <point x="340" y="572" type="line"/>
      <point x="340" y="400" type="line" smooth="yes"/>
      <point x="340" y="220"/>
      <point x="433" y="139"/>
      <point x="601" y="139" type="curve" smooth="yes"/>
      <point x="781" y="139"/>
      <point x="918" y="245"/>
      <point x="918" y="245" type="curve"/>
      <point x="1000" y="104" type="line"/>
      <point x="1000" y="104"/>
      <point x="855" y="-20"/>
      <point x="600" y="-20" type="curve" smooth="yes"/>
      <point x="354" y="-20"/>
      <point x="160" y="82"/>
      <point x="160" y="432" type="curve"/>
    </contour>
  </outline>
</glyph>
<glyph name="uni0259" format="2">
  <advance width="1196"/>
  <unicode hex="0259"/>
  <outline>
    <contour>
      <point x="1022" y="440" type="line"/>
      <point x="216" y="440" type="line"/>
      <point x="286" y="600" type="line"/>
      <point x="1022" y="600" type="line"/>
    </contour>
    <contour>
      <point x="286" y="700" type="curve"/>
      <point x="133" y="788" type="line"/>
      <point x="216" y="966"/>
      <point x="399" y="1060"/>
      <point x="598" y="1060" type="curve" smooth="yes"/>
      <point x="879" y="1060"/>
      <point x="1096" y="832"/>
      <point x="1096" y="520" type="curve" smooth="yes"/>
      <point x="1096" y="208"/>
      <point x="879" y="-20"/>
      <point x="598" y="-20" type="curve" smooth="yes"/>
      <point x="317" y="-20"/>
      <point x="100" y="208"/>
      <point x="100" y="520" type="curve" smooth="yes"/>
      <point x="100" y="547"/>
      <point x="102" y="574"/>
      <point x="105" y="600" type="curve"/>
      <point x="286" y="600" type="line"/>
      <point x="282" y="574"/>
      <point x="280" y="548"/>
      <point x="280" y="520" type="curve" smooth="yes"/>
      <point x="280" y="300"/>
      <point x="407" y="140"/>
      <point x="598" y="140" type="curve" smooth="yes"/>
      <point x="789" y="140"/>
      <point x="916" y="300"/>
      <point x="916" y="520" type="curve" smooth="yes"/>
      <point x="916" y="740"/>
      <point x="789" y="900"/>
      <point x="598" y="900" type="curve" smooth="yes"/>
      <point x="457" y="900"/>
      <point x="335" y="833"/>
    </contour>
  </outline>
</glyph>
<glyph name="uni0262" format="2">
  <advance width="1211"/>
  <unicode hex="0262"/>
  <outline>
    <contour>
      <point x="921" y="703" type="line"/>
      <point x="875" y="803"/>
      <point x="775" y="914"/>
      <point x="625" y="914" type="curve" smooth="yes"/>
      <point x="421" y="914"/>
      <point x="280" y="753"/>
      <point x="280" y="520" type="curve" smooth="yes"/>
      <point x="280" y="287"/>
      <point x="421" y="125"/>
      <point x="625" y="125" type="curve" smooth="yes"/>
      <point x="775" y="125"/>
      <point x="871" y="236"/>
      <point x="917" y="336" type="curve"/>
      <point x="1030" y="256" type="line"/>
      <point x="943" y="71"/>
      <point x="823" y="-36"/>
      <point x="625" y="-36" type="curve" smooth="yes"/>
      <point x="333" y="-36"/>
      <point x="100" y="199"/>
      <point x="100" y="520" type="curve" smooth="yes"/>
      <point x="100" y="841"/>
      <point x="333" y="1075"/>
      <point x="625" y="1075" type="curve" smooth="yes"/>
      <point x="823" y="1075"/>
      <point x="983" y="974"/>
      <point x="1070" y="789" type="curve"/>
    </contour>
    <contour>
      <point x="890" y="217" type="line"/>
      <point x="890" y="363" type="line"/>
      <point x="587" y="363" type="line"/>
      <point x="587" y="523" type="line"/>
      <point x="1070" y="523" type="line"/>
      <point x="1070" y="0" type="line"/>
      <point x="898" y="0" type="line"/>
      <point x="898" y="192" type="line"/>
    </contour>
  </outline>
</glyph>
<glyph name="uni0265" format="2">
  <advance width="1156"/>
  <unicode hex="0265"/>
  <outline>
    <contour>
      <point x="320" y="1040" type="line"/>
      <point x="320" y="468" type="line" smooth="yes"/>
      <point x="320" y="249"/>
      <point x="398" y="140"/>
      <point x="578" y="140" type="curve" smooth="yes"/>
      <point x="758" y="140"/>
      <point x="836" y="249"/>
      <point x="836" y="468" type="curve" smooth="yes"/>
      <point x="836" y="1040" type="line"/>
      <point x="1016" y="1040" type="line"/>
      <point x="1016" y="-440" type="line"/>
      <point x="844" y="-440" type="line"/>
      <point x="844" y="120" type="line"/>
      <point x="759" y="35"/>
      <point x="663" y="-20"/>
      <point x="538" y="-20" type="curve" smooth="yes"/>
      <point x="268" y="-20"/>
      <point x="140" y="148"/>
      <point x="140" y="468" type="curve"/>
      <point x="140" y="1040" type="line"/>
    </contour>
  </outline>
</glyph>
<glyph name="uni0266" format="2">
  <advance width="1156"/>
  <unicode hex="0266"/>
  <outline>
    <contour>
      <point x="140" y="1174" type="line"/>
      <point x="140" y="1358"/>
      <point x="284" y="1500"/>
      <point x="462" y="1500" type="curve" smooth="yes"/>
      <point x="477" y="1500"/>
      <point x="492" y="1499"/>
      <point x="506" y="1497" type="curve"/>
      <point x="506" y="1334" type="line"/>
      <point x="493" y="1338"/>
      <point x="478" y="1340"/>
      <point x="462" y="1340" type="curve" smooth="yes"/>
      <point x="372" y="1340"/>
      <point x="312" y="1270"/>
      <point x="312" y="1174" type="curve"/>
      <point x="312" y="920" type="line"/>
      <point x="397" y="1005"/>
      <point x="493" y="1060"/>
      <point x="618" y="1060" type="curve" smooth="yes"/>
      <point x="888" y="1060"/>
      <point x="1016" y="892"/>
      <point x="1016" y="572" type="curve"/>
      <point x="1016" y="0" type="line"/>
      <point x="836" y="0" type="line"/>
      <point x="836" y="572" type="line" smooth="yes"/>
      <point x="836" y="791"/>
      <point x="758" y="900"/>
      <point x="578" y="900" type="curve" smooth="yes"/>
      <point x="398" y="900"/>
      <point x="320" y="791"/>
      <point x="320" y="572" type="curve" smooth="yes"/>
      <point x="320" y="0" type="line"/>
      <point x="140" y="0" type="line"/>
    </contour>
  </outline>
</glyph>
<glyph name="uni026A" format="2">
  <advance width="778"/>
  <unicode hex="026A"/>
  <outline>
    <contour>
      <point x="140" y="1040" type="line"/>
      <point x="638" y="1040" type="line"/>
      <point x="638" y="880" type="line"/>
      <point x="479" y="880" type="line"/>
      <point x="479" y="160" type="line"/>
      <point x="638" y="160" type="line"/>
      <point x="638" y="0" type="line"/>
      <point x="140" y="0" type="line"/>
      <point x="140" y="160" type="line"/>
      <point x="299" y="160" type="line"/>
      <point x="299" y="880" type="line"/>
      <point x="140" y="880" type="line"/>
    </contour>
  </outline>
</glyph>
<glyph name="uni026D" format="2">
  <advance width="514"/>
  <unicode hex="026D"/>
  <outline>
    <contour>
      <point x="140" y="-137" type="curve"/>
      <point x="140" y="440" type="line"/>
      <point x="140" y="578" type="line"/>
      <point x="140" y="1480" type="line"/>
      <point x="320" y="1480" type="line"/>
      <point x="320" y="578" type="line"/>
      <point x="320" y="440" type="line"/>
      <point x="320" y="-137" type="line"/>
      <point x="320" y="-230"/>
      <point x="380" y="-300"/>
      <point x="470" y="-300" type="curve" smooth="yes"/>
      <point x="486" y="-300"/>
      <point x="501" y="-298"/>
      <point x="514" y="-294" type="curve"/>
      <point x="514" y="-457" type="line"/>
      <point x="500" y="-459"/>
      <point x="485" y="-460"/>
      <point x="470" y="-460" type="curve" smooth="yes"/>
      <point x="292" y="-460"/>
      <point x="140" y="-318"/>
    </contour>
  </outline>
</glyph>
<glyph name="uni026F" format="2">
  <advance width="1672"/>
  <unicode hex="026F"/>
  <outline>
    <contour>
      <point x="926" y="1040" type="line"/>
      <point x="926" y="468" type="line" smooth="yes"/>
      <point x="926" y="249"/>
      <point x="979" y="140"/>
      <point x="1139" y="140" type="curve" smooth="yes"/>
      <point x="1299" y="140"/>
      <point x="1352" y="249"/>
      <point x="1352" y="468" type="curve" smooth="yes"/>
      <point x="1352" y="1040" type="line"/>
      <point x="1532" y="1040" type="line"/>
      <point x="1532" y="0" type="line"/>
      <point x="1364" y="0" type="line"/>
      <point x="1364" y="120" type="line"/>
      <point x="1279" y="35"/>
      <point x="1232" y="-20"/>
      <point x="1107" y="-20" type="curve" smooth="yes"/>
      <point x="970" y="-20"/>
      <point x="868" y="33"/>
      <point x="808" y="148" type="curve"/>
      <point x="742" y="37"/>
      <point x="635" y="-20"/>
      <point x="501" y="-20" type="curve" smooth="yes"/>
      <point x="271" y="-20"/>
      <point x="140" y="128"/>
      <point x="140" y="468" type="curve" smooth="yes"/>
      <point x="140" y="1040" type="line"/>
      <point x="320" y="1040" type="line"/>
      <point x="320" y="468" type="line" smooth="yes"/>
      <point x="320" y="249"/>
      <point x="373" y="140"/>
      <point x="533" y="140" type="curve" smooth="yes"/>
      <point x="693" y="140"/>
      <point x="746" y="249"/>
      <point x="746" y="468" type="curve" smooth="yes"/>
      <point x="746" y="1040" type="line"/>
    </contour>
  </outline>
</glyph>
<glyph name="uni0272" format="2">
  <advance width="1210"/>
  <unicode hex="0272"/>
  <outline>
    <contour>
      <point x="374" y="0" type="curve"/>
      <point x="374" y="572" type="line" smooth="yes"/>
      <point x="374" y="791"/>
      <point x="452" y="900"/>
      <point x="632" y="900" type="curve" smooth="yes"/>
      <point x="812" y="900"/>
      <point x="890" y="791"/>
      <point x="890" y="572" type="curve" smooth="yes"/>
      <point x="890" y="0" type="line"/>
      <point x="1070" y="0" type="line"/>
      <point x="1070" y="572" type="line"/>
      <point x="1070" y="892"/>
      <point x="942" y="1060"/>
      <point x="672" y="1060" type="curve" smooth="yes"/>
      <point x="547" y="1060"/>
      <point x="447" y="1005"/>
      <point x="362" y="920" type="curve"/>
      <point x="362" y="1040" type="line"/>
      <point x="194" y="1040" type="line"/>
      <point x="194" y="0" type="line"/>
      <point x="194" y="-93"/>
      <point x="134" y="-163"/>
      <point x="44" y="-163" type="curve" smooth="yes"/>
      <point x="28" y="-163"/>
      <point x="13" y="-161"/>
      <point x="0" y="-157" type="curve"/>
      <point x="0" y="-320" type="line"/>
      <point x="14" y="-322"/>
      <point x="29" y="-323"/>
      <point x="44" y="-323" type="curve" smooth="yes"/>
      <point x="222" y="-323"/>
      <point x="374" y="-181"/>
    </contour>
  </outline>
</glyph>
<glyph name="uni0277" format="2">
  <advance width="1580"/>
  <unicode hex="0277"/>
  <outline>
    <contour>
      <point x="1300" y="468" type="curve" smooth="yes"/>
      <point x="1300" y="288"/>
      <point x="1247" y="140"/>
      <point x="1087" y="140" type="curve" smooth="yes"/>
      <point x="927" y="140"/>
      <point x="874" y="290"/>
      <point x="874" y="520" type="curve"/>
      <point x="740" y="520" type="line"/>
      <point x="740" y="70"/>
      <point x="889" y="-20"/>
      <point x="1119" y="-20" type="curve" smooth="yes"/>
      <point x="1349" y="-20"/>
      <point x="1480" y="198"/>
      <point x="1480" y="468" type="curve" smooth="yes"/>
      <point x="1480" y="828"/>
      <point x="1170" y="1060"/>
      <point x="790" y="1060" type="curve" smooth="yes"/>
      <point x="410" y="1060"/>
      <point x="100" y="828"/>
      <point x="100" y="468" type="curve" smooth="yes"/>
      <point x="100" y="198"/>
      <point x="231" y="-20"/>
      <point x="461" y="-20" type="curve" smooth="yes"/>
      <point x="691" y="-20"/>
      <point x="840" y="70"/>
      <point x="840" y="520" type="curve"/>
      <point x="706" y="520" type="line"/>
      <point x="706" y="290"/>
      <point x="653" y="140"/>
      <point x="493" y="140" type="curve" smooth="yes"/>
      <point x="333" y="140"/>
      <point x="280" y="288"/>
      <point x="280" y="468" type="curve" smooth="yes"/>
      <point x="280" y="748"/>
      <point x="510" y="900"/>
      <point x="790" y="900" type="curve" smooth="yes"/>
      <point x="1070" y="900"/>
      <point x="1300" y="748"/>
    </contour>
  </outline>
</glyph>
<glyph name="uni027F" format="2">
  <advance width="509"/>
  <unicode hex="027F"/>
  <outline>
    <contour>
      <point x="47" y="884" type="curve"/>
      <point x="5" y="1036" type="line"/>
      <point x="27" y="1049"/>
      <point x="67" y="1060"/>
      <point x="99" y="1060" type="curve" smooth="yes"/>
      <point x="269" y="1060"/>
      <point x="369" y="980"/>
      <point x="369" y="810" type="curve" smooth="yes"/>
      <point x="369" y="600" type="line"/>
      <point x="369" y="462" type="line"/>
      <point x="369" y="-440" type="line"/>
      <point x="189" y="-440" type="line"/>
      <point x="189" y="462" type="line"/>
      <point x="189" y="600" type="line"/>
      <point x="189" y="810" type="line" smooth="yes"/>
      <point x="189" y="870"/>
      <point x="159" y="900"/>
      <point x="99" y="900" type="curve" smooth="yes"/>
      <point x="83" y="900"/>
      <point x="59" y="891"/>
    </contour>
  </outline>
</glyph>
<glyph name="uni0280" format="2">
  <advance width="999"/>
  <unicode hex="0280"/>
  <outline>
    <contour>
      <point x="140" y="0" type="line"/>
      <point x="140" y="1040" type="line"/>
      <point x="518" y="1040" type="line" smooth="yes"/>
      <point x="722" y="1040"/>
      <point x="899" y="892"/>
      <point x="899" y="703" type="curve" smooth="yes"/>
      <point x="899" y="544"/>
      <point x="794" y="445"/>
      <point x="644" y="391" type="curve"/>
      <point x="931" y="0" type="line"/>
      <point x="729" y="0" type="line"/>
      <point x="471" y="363" type="line"/>
      <point x="320" y="363" type="line"/>
      <point x="320" y="0" type="line"/>
    </contour>
    <contour>
      <point x="320" y="880" type="line"/>
      <point x="320" y="524" type="line"/>
      <point x="518" y="524" type="line" smooth="yes"/>
      <point x="634" y="524"/>
      <point x="719" y="599"/>
      <point x="719" y="702" type="curve" smooth="yes"/>
      <point x="719" y="805"/>
      <point x="634" y="880"/>
      <point x="518" y="880" type="curve" smooth="yes"/>
    </contour>
  </outline>
</glyph>
<glyph name="uni0283" format="2">
  <advance width="930"/>
  <unicode hex="0283"/>
  <outline>
    <contour>
      <point x="555" y="1040" type="line"/>
      <point x="555" y="1180" type="line" smooth="yes"/>
      <point x="555" y="1282"/>
      <point x="613" y="1340"/>
      <point x="715" y="1340" type="curve" smooth="yes"/>
      <point x="758" y="1340"/>
      <point x="809" y="1324"/>
      <point x="835" y="1305" type="curve"/>
      <point x="880" y="1468" type="line"/>
      <point x="835" y="1486"/>
      <point x="771" y="1500"/>
      <point x="715" y="1500" type="curve" smooth="yes"/>
      <point x="515" y="1500"/>
      <point x="375" y="1380"/>
      <point x="375" y="1180" type="curve" smooth="yes"/>
      <point x="375" y="1040" type="line"/>
      <point x="375" y="0" type="line"/>
      <point x="375" y="-140" type="line" smooth="yes"/>
      <point x="375" y="-242"/>
      <point x="317" y="-300"/>
      <point x="215" y="-300" type="curve" smooth="yes"/>
      <point x="172" y="-300"/>
      <point x="121" y="-284"/>
      <point x="95" y="-265" type="curve"/>
      <point x="50" y="-428" type="line"/>
      <point x="95" y="-446"/>
      <point x="159" y="-460"/>
      <point x="215" y="-460" type="curve" smooth="yes"/>
      <point x="415" y="-460"/>
      <point x="555" y="-340"/>
      <point x="555" y="-140" type="curve" smooth="yes"/>
      <point x="555" y="0" type="line"/>
    </contour>
  </outline>
</glyph>
<glyph name="uni0284" format="2">
  <advance width="750"/>
  <unicode hex="0284"/>
  <outline>
    <contour>
      <point x="670" y="0" type="line"/>
      <point x="670" y="160" type="line"/>
      <point x="0" y="160" type="line"/>
      <point x="0" y="114"/>
      <point x="0" y="46"/>
      <point x="0" y="0" type="curve"/>
    </contour>
    <contour>
      <point x="425" y="1040" type="line"/>
      <point x="425" y="1180" type="line" smooth="yes"/>
      <point x="425" y="1282"/>
      <point x="483" y="1340"/>
      <point x="585" y="1340" type="curve" smooth="yes"/>
      <point x="628" y="1340"/>
      <point x="679" y="1324"/>
      <point x="705" y="1305" type="curve"/>
      <point x="750" y="1468" type="line"/>
      <point x="705" y="1486"/>
      <point x="641" y="1500"/>
      <point x="585" y="1500" type="curve" smooth="yes"/>
      <point x="385" y="1500"/>
      <point x="245" y="1380"/>
      <point x="245" y="1180" type="curve" smooth="yes"/>
      <point x="245" y="1040" type="line"/>
      <point x="245" y="-137" type="line"/>
      <point x="245" y="-230"/>
      <point x="185" y="-300"/>
      <point x="95" y="-300" type="curve" smooth="yes"/>
      <point x="79" y="-300"/>
      <point x="64" y="-298"/>
      <point x="51" y="-294" type="curve"/>
      <point x="51" y="-457" type="line"/>
      <point x="65" y="-459"/>
      <point x="80" y="-460"/>
      <point x="95" y="-460" type="curve" smooth="yes"/>
      <point x="273" y="-460"/>
      <point x="425" y="-318"/>
      <point x="425" y="-137" type="curve"/>
    </contour>
  </outline>
</glyph>
<glyph name="uni0285" format="2">
  <advance width="608"/>
  <unicode hex="0285"/>
  <outline>
    <contour>
      <point x="414" y="0" type="line"/>
      <point x="414" y="-93"/>
      <point x="474" y="-163"/>
      <point x="564" y="-163" type="curve" smooth="yes"/>
      <point x="580" y="-163"/>
      <point x="595" y="-161"/>
      <point x="608" y="-157" type="curve"/>
      <point x="608" y="-320" type="line"/>
      <point x="594" y="-322"/>
      <point x="579" y="-323"/>
      <point x="564" y="-323" type="curve" smooth="yes"/>
      <point x="386" y="-323"/>
      <point x="234" y="-181"/>
      <point x="234" y="0" type="curve"/>
      <point x="234" y="462" type="line"/>
      <point x="234" y="600" type="line"/>
      <point x="234" y="810" type="line" smooth="yes"/>
      <point x="234" y="870"/>
      <point x="204" y="900"/>
      <point x="144" y="900" type="curve" smooth="yes"/>
      <point x="128" y="900"/>
      <point x="104" y="891"/>
      <point x="92" y="884" type="curve"/>
      <point x="50" y="1036" type="line"/>
      <point x="72" y="1049"/>
      <point x="112" y="1060"/>
      <point x="144" y="1060" type="curve" smooth="yes"/>
      <point x="314" y="1060"/>
      <point x="414" y="980"/>
      <point x="414" y="810" type="curve" smooth="yes"/>
      <point x="414" y="600" type="line"/>
      <point x="414" y="462" type="line"/>
    </contour>
  </outline>
</glyph>
<glyph name="uni028A" format="2">
  <advance width="1196"/>
  <unicode hex="028A"/>
  <anchor x="599" y="0" name="bottom_center"/>
  <anchor x="599" y="1040" name="top_center"/>
  <outline>
    <contour>
      <point x="1096" y="880" type="line"/>
      <point x="1096" y="1040" type="line"/>
      <point x="709" y="1040" type="line"/>
      <point x="709" y="880" type="line"/>
    </contour>
    <contour>
      <point x="100" y="880" type="line"/>
      <point x="487" y="880" type="line"/>
      <point x="487" y="1040" type="line"/>
      <point x="100" y="1040" type="line"/>
    </contour>
    <contour>
      <point x="598" y="-20" type="curve" smooth="yes"/>
      <point x="879" y="-20"/>
      <point x="1096" y="208"/>
      <point x="1096" y="520" type="curve" smooth="yes"/>
      <point x="1096" y="662"/>
      <point x="1051" y="786"/>
      <point x="976" y="880" type="curve"/>
      <point x="709" y="880" type="line"/>
      <point x="836" y="831"/>
      <point x="916" y="694"/>
      <point x="916" y="520" type="curve" smooth="yes"/>
      <point x="916" y="300"/>
      <point x="789" y="140"/>
      <point x="598" y="140" type="curve" smooth="yes"/>
      <point x="407" y="140"/>
      <point x="280" y="300"/>
      <point x="280" y="520" type="curve" smooth="yes"/>
      <point x="280" y="694"/>
      <point x="358" y="831"/>
      <point x="487" y="880" type="curve"/>
      <point x="220" y="880" type="line"/>
      <point x="146" y="786"/>
      <point x="100" y="662"/>
      <point x="100" y="520" type="curve" smooth="yes"/>
      <point x="100" y="208"/>
      <point x="317" y="-20"/>
    </contour>
  </outline>
</glyph>
<glyph name="uni028B" format="2">
  <advance width="1156"/>
  <unicode hex="028B"/>
  <outline>
    <contour>
      <point x="836" y="737" type="curve"/>
      <point x="836" y="468" type="line" smooth="yes"/>
      <point x="836" y="249"/>
      <point x="758" y="140"/>
      <point x="578" y="140" type="curve" smooth="yes"/>
      <point x="398" y="140"/>
      <point x="320" y="249"/>
      <point x="320" y="468" type="curve" smooth="yes"/>
      <point x="320" y="1040" type="line"/>
      <point x="140" y="1040" type="line"/>
      <point x="140" y="468" type="line"/>
      <point x="140" y="128"/>
      <point x="308" y="-20"/>
      <point x="578" y="-20" type="curve" smooth="yes"/>
      <point x="848" y="-20"/>
      <point x="1016" y="128"/>
      <point x="1016" y="468" type="curve"/>
      <point x="1016" y="737" type="line"/>
      <point x="1016" y="918"/>
      <point x="864" y="1060"/>
      <point x="686" y="1060" type="curve" smooth="yes"/>
      <point x="671" y="1060"/>
      <point x="656" y="1059"/>
      <point x="642" y="1057" type="curve"/>
      <point x="642" y="894" type="line"/>
      <point x="655" y="898"/>
      <point x="670" y="900"/>
      <point x="686" y="900" type="curve" smooth="yes"/>
      <point x="776" y="900"/>
      <point x="836" y="830"/>
    </contour>
  </outline>
</glyph>
<glyph name="uni028D" format="2">
  <advance width="1594"/>
  <unicode hex="028D"/>
  <outline>
    <contour>
      <point x="1203" y="1040" type="line"/>
      <point x="1524" y="0" type="line"/>
      <point x="1334" y="0" type="line"/>
      <point x="1111" y="790" type="line"/>
      <point x="888" y="0" type="line"/>
      <point x="708" y="0" type="line"/>
      <point x="485" y="790" type="line"/>
      <point x="262" y="0" type="line"/>
      <point x="70" y="0" type="line"/>
      <point x="393" y="1040" type="line"/>
      <point x="577" y="1040" type="line"/>
      <point x="794" y="270" type="line"/>
      <point x="1019" y="1040" type="line"/>
    </contour>
  </outline>
</glyph>
<glyph name="uni028E" format="2">
  <advance width="1077"/>
  <unicode hex="028E"/>
  <outline>
    <contour>
      <point x="525" y="1295" type="line"/>
      <point x="570" y="1425"/>
      <point x="684" y="1500"/>
      <point x="842" y="1500" type="curve" smooth="yes"/>
      <point x="898" y="1500"/>
      <point x="962" y="1486"/>
      <point x="1007" y="1468" type="curve"/>
      <point x="962" y="1305" type="line"/>
      <point x="936" y="1324"/>
      <point x="885" y="1340"/>
      <point x="842" y="1340" type="curve" smooth="yes"/>
      <point x="765" y="1340"/>
      <point x="713" y="1307"/>
      <point x="692" y="1246" type="curve"/>
      <point x="619" y="1040" type="line"/>
      <point x="984" y="0" type="line"/>
      <point x="795" y="0" type="line"/>
      <point x="527" y="816" type="line"/>
      <point x="259" y="0" type="line"/>
      <point x="70" y="0" type="line"/>
      <point x="435" y="1040" type="line"/>
    </contour>
  </outline>
</glyph>
<glyph name="uni028F" format="2">
  <advance width="1066"/>
  <unicode hex="028F"/>
  <outline>
    <contour>
      <point x="623" y="480" type="line"/>
      <point x="623" y="0" type="line"/>
      <point x="443" y="0" type="line"/>
      <point x="443" y="480" type="line"/>
      <point x="70" y="1040" type="line"/>
      <point x="281" y="1040" type="line"/>
      <point x="533" y="642" type="line"/>
      <point x="786" y="1040" type="line"/>
      <point x="996" y="1040" type="line"/>
    </contour>
  </outline>
</glyph>
<glyph name="uni0292" format="2">
  <advance width="1222"/>
  <unicode hex="0292"/>
  <outline>
    <contour>
      <point x="640" y="300" type="line"/>
      <point x="515" y="400" type="line"/>
      <point x="863" y="872" type="line"/>
      <point x="1077" y="888" type="line"/>
    </contour>
    <contour>
      <point x="1122" y="-18" type="curve" smooth="yes"/>
      <point x="1122" y="-261"/>
      <point x="910" y="-460"/>
      <point x="610" y="-460" type="curve" smooth="yes"/>
      <point x="329" y="-460"/>
      <point x="127" y="-282"/>
      <point x="100" y="-44" type="curve"/>
      <point x="287" y="6" type="line" smooth="yes"/>
      <point x="287" y="-150"/>
      <point x="410" y="-292"/>
      <point x="610" y="-292" type="curve" smooth="yes"/>
      <point x="810" y="-292"/>
      <point x="932" y="-174"/>
      <point x="932" y="-18" type="curve" smooth="yes"/>
      <point x="932" y="138"/>
      <point x="810" y="256"/>
      <point x="610" y="256" type="curve"/>
      <point x="539" y="256"/>
      <point x="515" y="256"/>
      <point x="515" y="256" type="curve"/>
      <point x="515" y="400" type="line"/>
      <point x="515" y="400"/>
      <point x="540" y="416"/>
      <point x="610" y="416" type="curve"/>
      <point x="893" y="416"/>
      <point x="1122" y="222"/>
    </contour>
    <contour>
      <point x="172" y="1040" type="line"/>
      <point x="1077" y="1040" type="line"/>
      <point x="1077" y="888" type="line"/>
      <point x="943" y="872" type="line"/>
      <point x="172" y="872" type="line"/>
    </contour>
  </outline>
</glyph>
<glyph name="uni0293" format="2">
  <advance width="1190"/>
  <unicode hex="0293"/>
  <outline>
    <contour>
      <point x="578" y="-293" type="line" smooth="yes"/>
      <point x="778" y="-293"/>
      <point x="900" y="-174"/>
      <point x="900" y="-18" type="curve" smooth="yes"/>
      <point x="900" y="138"/>
      <point x="778" y="256"/>
      <point x="578" y="256" type="curve"/>
      <point x="507" y="256"/>
      <point x="483" y="256"/>
      <point x="483" y="256" type="curve"/>
      <point x="483" y="400" type="line"/>
      <point x="483" y="400"/>
      <point x="508" y="416"/>
      <point x="578" y="416" type="curve"/>
      <point x="861" y="416"/>
      <point x="1090" y="222"/>
      <point x="1090" y="-18" type="curve" smooth="yes"/>
      <point x="1090" y="-261"/>
      <point x="878" y="-459"/>
      <point x="578" y="-459" type="curve" smooth="yes"/>
      <point x="440" y="-459" type="line" smooth="yes"/>
      <point x="310" y="-459"/>
      <point x="200" y="-375"/>
      <point x="200" y="-233" type="curve" smooth="yes"/>
      <point x="200" y="-91"/>
      <point x="310" y="-7"/>
      <point x="440" y="-7" type="curve" smooth="yes"/>
      <point x="800" y="-7"/>
      <point x="904" y="-480"/>
      <point x="904" y="-480" type="curve"/>
      <point x="751" y="-568" type="line"/>
      <point x="751" y="-568"/>
      <point x="660" y="-167"/>
      <point x="440" y="-167" type="curve" smooth="yes"/>
      <point x="404" y="-167"/>
      <point x="380" y="-197"/>
      <point x="380" y="-233" type="curve" smooth="yes"/>
      <point x="380" y="-269"/>
      <point x="404" y="-293"/>
      <point x="440" y="-293" type="curve" smooth="yes"/>
    </contour>
    <contour>
      <point x="608" y="300" type="line"/>
      <point x="483" y="400" type="line"/>
      <point x="831" y="872" type="line"/>
      <point x="1045" y="888" type="line"/>
    </contour>
    <contour>
      <point x="140" y="1040" type="line"/>
      <point x="1045" y="1040" type="line"/>
      <point x="1045" y="888" type="line"/>
      <point x="871" y="872" type="line"/>
      <point x="140" y="872" type="line"/>
    </contour>
  </outline>
</glyph>
<glyph name="uni0297" format="2">
  <advance width="1142"/>
  <unicode hex="0297"/>
  <outline>
    <contour>
      <point x="280" y="80" type="line" smooth="yes"/>
      <point x="280" y="-140"/>
      <point x="407" y="-300"/>
      <point x="598" y="-300" type="curve" smooth="yes"/>
      <point x="739" y="-300"/>
      <point x="840" y="-233"/>
      <point x="889" y="-100" type="curve"/>
      <point x="1042" y="-188" type="line"/>
      <point x="959" y="-366"/>
      <point x="797" y="-460"/>
      <point x="598" y="-460" type="curve" smooth="yes"/>
      <point x="317" y="-460"/>
      <point x="100" y="-253"/>
      <point x="100" y="80" type="curve" smooth="yes"/>
      <point x="100" y="520" type="line" smooth="yes"/>
      <point x="100" y="853"/>
      <point x="317" y="1060"/>
      <point x="598" y="1060" type="curve" smooth="yes"/>
      <point x="797" y="1060"/>
      <point x="959" y="966"/>
      <point x="1042" y="788" type="curve"/>
      <point x="889" y="700" type="line"/>
      <point x="840" y="833"/>
      <point x="739" y="900"/>
      <point x="598" y="900" type="curve" smooth="yes"/>
      <point x="407" y="900"/>
      <point x="280" y="740"/>
      <point x="280" y="520" type="curve" smooth="yes"/>
    </contour>
  </outline>
</glyph>
<glyph name="uni0298" format="2">
  <advance width="1602"/>
  <unicode hex="0298"/>
  <outline>
    <contour>
      <point x="673" y="740" type="curve" smooth="yes"/>
      <point x="673" y="812"/>
      <point x="729" y="868"/>
      <point x="801" y="868" type="curve" smooth="yes"/>
      <point x="873" y="868"/>
      <point x="929" y="812"/>
      <point x="929" y="740" type="curve" smooth="yes"/>
      <point x="929" y="668"/>
      <point x="873" y="612"/>
      <point x="801" y="612" type="curve" smooth="yes"/>
      <point x="729" y="612"/>
      <point x="673" y="668"/>
    </contour>
    <contour>
      <point x="290" y="740" type="curve" smooth="yes"/>
      <point x="290" y="390"/>
      <point x="511" y="148"/>
      <point x="801" y="148" type="curve" smooth="yes"/>
      <point x="1091" y="148"/>
      <point x="1312" y="390"/>
      <point x="1312" y="740" type="curve" smooth="yes"/>
      <point x="1312" y="1090"/>
      <point x="1091" y="1332"/>
      <point x="801" y="1332" type="curve" smooth="yes"/>
      <point x="511" y="1332"/>
      <point x="290" y="1090"/>
    </contour>
    <contour>
      <point x="100" y="740" type="curve" smooth="yes"/>
      <point x="100" y="1179"/>
      <point x="406" y="1500"/>
      <point x="801" y="1500" type="curve" smooth="yes"/>
      <point x="1196" y="1500"/>
      <point x="1502" y="1179"/>
      <point x="1502" y="740" type="curve" smooth="yes"/>
      <point x="1502" y="301"/>
      <point x="1196" y="-20"/>
      <point x="801" y="-20" type="curve" smooth="yes"/>
      <point x="406" y="-20"/>
      <point x="100" y="301"/>
    </contour>
  </outline>
</glyph>
<glyph name="uni0299" format="2">
  <advance width="1084"/>
  <unicode hex="0299"/>
  <outline>
    <contour>
      <point x="320" y="160" type="line"/>
      <point x="596" y="160" type="line" smooth="yes"/>
      <point x="716" y="160"/>
      <point x="804" y="230"/>
      <point x="804" y="326" type="curve" smooth="yes"/>
      <point x="804" y="422"/>
      <point x="716" y="492"/>
      <point x="596" y="492" type="curve" smooth="yes"/>
      <point x="320" y="492" type="line"/>
    </contour>
    <contour>
      <point x="789" y="575" type="curve"/>
      <point x="906" y="519"/>
      <point x="984" y="425"/>
      <point x="984" y="316" type="curve" smooth="yes"/>
      <point x="984" y="139"/>
      <point x="845" y="0"/>
      <point x="599" y="0" type="curve" smooth="yes"/>
      <point x="140" y="0" type="line"/>
      <point x="140" y="1040" type="line"/>
      <point x="292" y="1040" type="line"/>
      <point x="594" y="1040" type="line" smooth="yes"/>
      <point x="800" y="1040"/>
      <point x="923" y="934"/>
      <point x="923" y="777" type="curve" smooth="yes"/>
      <point x="923" y="692"/>
      <point x="870" y="621"/>
    </contour>
    <contour>
      <point x="320" y="880" type="line"/>
      <point x="320" y="652" type="line"/>
      <point x="587" y="652" type="line" smooth="yes"/>
      <point x="675" y="652"/>
      <point x="743" y="698"/>
      <point x="743" y="768" type="curve" smooth="yes"/>
      <point x="743" y="838"/>
      <point x="675" y="880"/>
      <point x="587" y="880" type="curve" smooth="yes"/>
    </contour>
  </outline>
</glyph>
<glyph name="uni029E" format="2">
  <advance width="1059"/>
  <unicode hex="029E"/>
  <outline>
    <contour>
      <point x="642" y="918" type="line"/>
      <point x="533" y="778" type="line"/>
      <point x="35" y="1480" type="line"/>
      <point x="243" y="1480" type="line"/>
    </contour>
    <contour>
      <point x="739" y="1140" type="line"/>
      <point x="739" y="1480" type="line"/>
      <point x="919" y="1480" type="line"/>
      <point x="919" y="0" type="line"/>
      <point x="739" y="0" type="line"/>
      <point x="739" y="908" type="line"/>
      <point x="271" y="440" type="line"/>
      <point x="211" y="440"/>
      <point x="99" y="440"/>
      <point x="39" y="440" type="curve"/>
    </contour>
  </outline>
</glyph>
<glyph name="uni02A7" format="2">
  <advance width="1370"/>
  <unicode hex="02A7"/>
  <outline>
    <contour>
      <point x="600" y="0" type="line" smooth="yes"/>
      <point x="400" y="0"/>
      <point x="260" y="101"/>
      <point x="260" y="300" type="curve" smooth="yes"/>
      <point x="260" y="880" type="line"/>
      <point x="50" y="880" type="line"/>
      <point x="50" y="1028" type="line"/>
      <point x="122" y="1028" type="line"/>
      <point x="212" y="1028"/>
      <point x="272" y="1092"/>
      <point x="272" y="1182" type="curve"/>
      <point x="272" y="1320" type="line"/>
      <point x="440" y="1320" type="line"/>
      <point x="440" y="1040" type="line"/>
      <point x="720" y="1040" type="line"/>
      <point x="720" y="880" type="line"/>
      <point x="440" y="880" type="line"/>
      <point x="440" y="300" type="line" smooth="yes"/>
      <point x="440" y="198"/>
      <point x="498" y="160"/>
      <point x="600" y="160" type="curve" smooth="yes"/>
      <point x="849" y="160" type="line"/>
      <point x="849" y="0" type="line"/>
    </contour>
    <contour>
      <point x="770" y="1180" type="line" smooth="yes"/>
      <point x="770" y="1380"/>
      <point x="910" y="1500"/>
      <point x="1110" y="1500" type="curve" smooth="yes"/>
      <point x="1166" y="1500"/>
      <point x="1225" y="1486"/>
      <point x="1270" y="1468" type="curve"/>
      <point x="1230" y="1305" type="line"/>
      <point x="1204" y="1324"/>
      <point x="1153" y="1340"/>
      <point x="1110" y="1340" type="curve" smooth="yes"/>
      <point x="1008" y="1340"/>
      <point x="950" y="1282"/>
      <point x="950" y="1180" type="curve" smooth="yes"/>
      <point x="950" y="1040" type="line"/>
      <point x="950" y="0" type="line"/>
      <point x="950" y="-140" type="line" smooth="yes"/>
      <point x="950" y="-340"/>
      <point x="810" y="-460"/>
      <point x="610" y="-460" type="curve" smooth="yes"/>
      <point x="554" y="-460"/>
      <point x="490" y="-446"/>
      <point x="445" y="-428" type="curve"/>
      <point x="490" y="-265" type="line"/>
      <point x="516" y="-284"/>
      <point x="567" y="-300"/>
      <point x="610" y="-300" type="curve" smooth="yes"/>
      <point x="712" y="-300"/>
      <point x="770" y="-242"/>
      <point x="770" y="-140" type="curve" smooth="yes"/>
      <point x="770" y="-36" type="line"/>
      <point x="770" y="1060" type="line"/>
    </contour>
  </outline>
</glyph>
<glyph name="uni02A9" format="2">
  <advance width="1736"/>
  <unicode hex="02A9"/>
  <outline>
    <contour>
      <point x="1596" y="0" type="line"/>
      <point x="1596" y="-210" type="line" smooth="yes"/>
      <point x="1595" y="-380"/>
      <point x="1496" y="-460"/>
      <point x="1326" y="-460" type="curve" smooth="yes"/>
      <point x="1294" y="-460"/>
      <point x="1254" y="-449"/>
      <point x="1232" y="-436" type="curve"/>
      <point x="1274" y="-284" type="line"/>
      <point x="1286" y="-291"/>
      <point x="1310" y="-300"/>
      <point x="1326" y="-300" type="curve" smooth="yes"/>
      <point x="1386" y="-300"/>
      <point x="1416" y="-270"/>
      <point x="1416" y="-210" type="curve" smooth="yes"/>
      <point x="1416" y="0" type="line"/>
      <point x="1416" y="572" type="line" smooth="yes"/>
      <point x="1416" y="791"/>
      <point x="1338" y="900"/>
      <point x="1158" y="900" type="curve" smooth="yes"/>
      <point x="978" y="900"/>
      <point x="900" y="791"/>
      <point x="900" y="572" type="curve" smooth="yes"/>
      <point x="900" y="0" type="line"/>
      <point x="720" y="0" type="line"/>
      <point x="720" y="1040" type="line"/>
      <point x="888" y="1040" type="line"/>
      <point x="888" y="920" type="line"/>
      <point x="973" y="1005"/>
      <point x="1073" y="1060"/>
      <point x="1198" y="1060" type="curve" smooth="yes"/>
      <point x="1468" y="1060"/>
      <point x="1596" y="892"/>
      <point x="1596" y="572" type="curve"/>
    </contour>
    <contour>
      <point x="720" y="1305" type="line"/>
      <point x="694" y="1324"/>
      <point x="643" y="1340"/>
      <point x="600" y="1340" type="curve" smooth="yes"/>
      <point x="498" y="1340"/>
      <point x="440" y="1282"/>
      <point x="440" y="1180" type="curve" smooth="yes"/>
      <point x="440" y="1040" type="line"/>
      <point x="720" y="1040" type="line"/>
      <point x="720" y="880" type="line"/>
      <point x="440" y="880" type="line"/>
      <point x="440" y="0" type="line"/>
      <point x="260" y="0" type="line"/>
      <point x="260" y="880" type="line"/>
      <point x="50" y="880" type="line"/>
      <point x="50" y="1040" type="line"/>
      <point x="260" y="1040" type="line"/>
      <point x="260" y="1180" type="line" smooth="yes"/>
      <point x="260" y="1380"/>
      <point x="400" y="1500"/>
      <point x="600" y="1500" type="curve" smooth="yes"/>
      <point x="656" y="1500"/>
      <point x="720" y="1486"/>
      <point x="765" y="1468" type="curve"/>
    </contour>
  </outline>
</glyph>
<glyph name="uni02AB" format="2">
  <advance width="1290"/>
  <unicode hex="02AB"/>
  <outline>
    <contour>
      <point x="460" y="160" type="line"/>
      <point x="410" y="160" type="line"/>
      <point x="350" y="160"/>
      <point x="320" y="170"/>
      <point x="320" y="230" type="curve" smooth="yes"/>
      <point x="320" y="440" type="line"/>
      <point x="320" y="578" type="line"/>
      <point x="320" y="1480" type="line"/>
      <point x="140" y="1480" type="line"/>
      <point x="140" y="578" type="line"/>
      <point x="140" y="440" type="line"/>
      <point x="140" y="230" type="line" smooth="yes"/>
      <point x="140" y="60"/>
      <point x="240" y="0"/>
      <point x="410" y="0" type="curve" smooth="yes"/>
    </contour>
    <contour>
      <point x="410" y="1040" type="line"/>
      <point x="410" y="880" type="line"/>
      <point x="1036" y="880" type="line"/>
      <point x="1150" y="896" type="line"/>
      <point x="1150" y="1040" type="line"/>
    </contour>
    <contour>
      <point x="1150" y="160" type="line"/>
      <point x="514" y="160" type="line"/>
      <point x="410" y="144" type="line"/>
      <point x="410" y="0" type="line"/>
      <point x="1150" y="0" type="line"/>
    </contour>
    <contour>
      <point x="614" y="160" type="line"/>
      <point x="1150" y="896" type="line"/>
      <point x="946" y="880" type="line"/>
      <point x="410" y="144" type="line"/>
    </contour>
  </outline>
</glyph>
<glyph name="uni02B8" format="2">
  <advance width="726"/>
  <unicode hex="02B8"/>
  <outline>
    <contour>
      <point x="384" y="681" type="line"/>
      <point x="355" y="593"/>
      <point x="265" y="543"/>
      <point x="163" y="543" type="curve" smooth="yes"/>
      <point x="127" y="543"/>
      <point x="86" y="553"/>
      <point x="57" y="567" type="curve"/>
      <point x="83" y="682" type="line"/>
      <point x="98" y="671"/>
      <point x="128" y="663"/>
      <point x="153" y="663" type="curve" smooth="yes"/>
      <point x="198" y="663"/>
      <point x="228" y="679"/>
      <point x="240" y="709" type="curve"/>
      <point x="292" y="829" type="line"/>
      <point x="40" y="1413" type="line"/>
      <point x="185" y="1413" type="line"/>
      <point x="368" y="973" type="line"/>
      <point x="541" y="1413" type="line"/>
      <point x="686" y="1413" type="line"/>
      <point x="443" y="829" type="line"/>
    </contour>
  </outline>
</glyph>
<glyph name="uni02BB" format="2">
  <advance width="428"/>
  <unicode hex="02BB"/>
  <outline>
    <contour>
      <point x="358" y="1117" type="curve" smooth="yes"/>
      <point x="358" y="1045"/>
      <point x="305" y="988"/>
      <point x="233" y="988" type="curve" smooth="yes"/>
      <point x="161" y="988"/>
      <point x="106" y="1045"/>
      <point x="106" y="1117" type="curve" smooth="yes"/>
      <point x="106" y="1189"/>
      <point x="161" y="1244"/>
      <point x="233" y="1244" type="curve" smooth="yes"/>
      <point x="305" y="1244"/>
      <point x="358" y="1189"/>
    </contour>
    <contour>
      <point x="343" y="1385" type="line"/>
      <point x="286" y="1372"/>
      <point x="197" y="1324"/>
      <point x="197" y="1204" type="curve" smooth="yes"/>
      <point x="197" y="1176"/>
      <point x="232" y="1116"/>
      <point x="232" y="1116" type="curve"/>
      <point x="233" y="988" type="line"/>
      <point x="163" y="988"/>
      <point x="70" y="1034"/>
      <point x="70" y="1204" type="curve" smooth="yes"/>
      <point x="70" y="1384"/>
      <point x="236" y="1480"/>
      <point x="313" y="1500" type="curve"/>
    </contour>
  </outline>
</glyph>
<glyph name="uni02BC" format="2">
  <advance width="428"/>
  <unicode hex="02BC"/>
  <outline>
    <contour>
      <point x="70" y="1371" type="curve" smooth="yes"/>
      <point x="70" y="1443"/>
      <point x="123" y="1500"/>
      <point x="195" y="1500" type="curve" smooth="yes"/>
      <point x="267" y="1500"/>
      <point x="322" y="1443"/>
      <point x="322" y="1371" type="curve" smooth="yes"/>
      <point x="322" y="1299"/>
      <point x="267" y="1244"/>
      <point x="195" y="1244" type="curve" smooth="yes"/>
      <point x="123" y="1244"/>
      <point x="70" y="1299"/>
    </contour>
    <contour>
      <point x="85" y="1103" type="line"/>
      <point x="142" y="1116"/>
      <point x="231" y="1164"/>
      <point x="231" y="1284" type="curve" smooth="yes"/>
      <point x="231" y="1312"/>
      <point x="196" y="1372"/>
      <point x="196" y="1372" type="curve"/>
      <point x="195" y="1500" type="line"/>
      <point x="265" y="1500"/>
      <point x="358" y="1454"/>
      <point x="358" y="1284" type="curve" smooth="yes"/>
      <point x="358" y="1104"/>
      <point x="192" y="1008"/>
      <point x="115" y="988" type="curve"/>
    </contour>
  </outline>
</glyph>
<glyph name="uni02C0" format="2">
  <advance width="496"/>
  <unicode hex="02C0"/>
  <outline>
    <contour>
      <point x="169" y="1314" type="line"/>
      <point x="297" y="1314" type="line"/>
      <point x="297" y="1156" type="line"/>
      <point x="169" y="1156" type="line"/>
    </contour>
    <contour>
      <point x="104" y="1405" type="curve"/>
      <point x="70" y="1523" type="line"/>
      <point x="70" y="1523"/>
      <point x="125" y="1558"/>
      <point x="209" y="1558" type="curve" smooth="yes"/>
      <point x="333" y="1558"/>
      <point x="426" y="1486"/>
      <point x="426" y="1376" type="curve" smooth="yes"/>
      <point x="426" y="1266"/>
      <point x="343" y="1197"/>
      <point x="233" y="1197" type="curve"/>
      <point x="233" y="1314" type="line"/>
      <point x="278" y="1314"/>
      <point x="299" y="1346"/>
      <point x="299" y="1376" type="curve" smooth="yes"/>
      <point x="299" y="1406"/>
      <point x="279" y="1437"/>
      <point x="219" y="1437" type="curve" smooth="yes"/>
      <point x="149" y="1437"/>
      <point x="104" y="1405"/>
    </contour>
  </outline>
</glyph>
<glyph name="caron" format="2">
  <advance width="722"/>
  <unicode hex="02C7"/>
  <outline>
    <contour>
      <point x="248" y="1480" type="line"/>
      <point x="456" y="1224" type="line"/>
      <point x="266" y="1224" type="line"/>
      <point x="70" y="1480" type="line"/>
    </contour>
    <contour>
      <point x="474" y="1480" type="line"/>
      <point x="652" y="1480" type="line"/>
      <point x="456" y="1224" type="line"/>
      <point x="266" y="1224" type="line"/>
    </contour>
  </outline>
</glyph>
<glyph name="uni02D7" format="2">
  <advance width="692"/>
  <unicode hex="02D7"/>
  <outline>
    <contour>
      <point x="70" y="454" type="line"/>
      <point x="70" y="594" type="line"/>
      <point x="622" y="594" type="line"/>
      <point x="622" y="454" type="line"/>
    </contour>
  </outline>
</glyph>
<glyph name="ring" format="2">
  <advance width="556"/>
  <unicode hex="02DA"/>
  <outline>
    <contour>
      <point x="70" y="1347" type="curve" smooth="yes"/>
      <point x="70" y="1457"/>
      <point x="168" y="1544"/>
      <point x="278" y="1544" type="curve" smooth="yes"/>
      <point x="388" y="1544"/>
      <point x="486" y="1457"/>
      <point x="486" y="1347" type="curve" smooth="yes"/>
      <point x="486" y="1237"/>
      <point x="388" y="1150"/>
      <point x="278" y="1150" type="curve" smooth="yes"/>
      <point x="168" y="1150"/>
      <point x="70" y="1237"/>
    </contour>
    <contour>
      <point x="198" y="1347" type="curve" smooth="yes"/>
      <point x="198" y="1301"/>
      <point x="232" y="1267"/>
      <point x="278" y="1267" type="curve" smooth="yes"/>
      <point x="324" y="1267"/>
      <point x="358" y="1301"/>
      <point x="358" y="1347" type="curve" smooth="yes"/>
      <point x="358" y="1393"/>
      <point x="324" y="1427"/>
      <point x="278" y="1427" type="curve" smooth="yes"/>
      <point x="232" y="1427"/>
      <point x="198" y="1393"/>
    </contour>
  </outline>
</glyph>
<glyph name="uni02EE" format="2">
  <advance width="846"/>
  <unicode hex="02EE"/>
  <outline>
    <contour>
      <point x="458" y="1371" type="curve" smooth="yes"/>
      <point x="458" y="1443"/>
      <point x="511" y="1500"/>
      <point x="583" y="1500" type="curve" smooth="yes"/>
      <point x="655" y="1500"/>
      <point x="710" y="1443"/>
      <point x="710" y="1371" type="curve" smooth="yes"/>
      <point x="710" y="1299"/>
      <point x="655" y="1244"/>
      <point x="583" y="1244" type="curve" smooth="yes"/>
      <point x="511" y="1244"/>
      <point x="458" y="1299"/>
    </contour>
    <contour>
      <point x="473" y="1103" type="line"/>
      <point x="530" y="1116"/>
      <point x="619" y="1164"/>
      <point x="619" y="1284" type="curve" smooth="yes"/>
      <point x="619" y="1312"/>
      <point x="584" y="1372"/>
      <point x="584" y="1372" type="curve"/>
      <point x="583" y="1500" type="line"/>
      <point x="653" y="1500"/>
      <point x="746" y="1454"/>
      <point x="746" y="1284" type="curve" smooth="yes"/>
      <point x="746" y="1104"/>
      <point x="580" y="1008"/>
      <point x="503" y="988" type="curve"/>
    </contour>
    <contour>
      <point x="100" y="1371" type="curve" smooth="yes"/>
      <point x="100" y="1443"/>
      <point x="153" y="1500"/>
      <point x="225" y="1500" type="curve" smooth="yes"/>
      <point x="297" y="1500"/>
      <point x="352" y="1443"/>
      <point x="352" y="1371" type="curve" smooth="yes"/>
      <point x="352" y="1299"/>
      <point x="297" y="1244"/>
      <point x="225" y="1244" type="curve" smooth="yes"/>
      <point x="153" y="1244"/>
      <point x="100" y="1299"/>
    </contour>
    <contour>
      <point x="115" y="1103" type="line"/>
      <point x="172" y="1116"/>
      <point x="261" y="1164"/>
      <point x="261" y="1284" type="curve" smooth="yes"/>
      <point x="261" y="1312"/>
      <point x="226" y="1372"/>
      <point x="226" y="1372" type="curve"/>
      <point x="225" y="1500" type="line"/>
      <point x="295" y="1500"/>
      <point x="388" y="1454"/>
      <point x="388" y="1284" type="curve" smooth="yes"/>
      <point x="388" y="1104"/>
      <point x="222" y="1008"/>
      <point x="145" y="988" type="curve"/>
    </contour>
  </outline>
</glyph>
<glyph name="uni02F3" format="2">
  <advance width="555"/>
  <unicode hex="02F3"/>
  <outline>
    <contour>
      <point x="70" y="-307" type="curve" smooth="yes"/>
      <point x="70" y="-197"/>
      <point x="168" y="-110"/>
      <point x="278" y="-110" type="curve" smooth="yes"/>
      <point x="388" y="-110"/>
      <point x="485" y="-197"/>
      <point x="485" y="-307" type="curve" smooth="yes"/>
      <point x="485" y="-417"/>
      <point x="388" y="-504"/>
      <point x="278" y="-504" type="curve" smooth="yes"/>
      <point x="168" y="-504"/>
      <point x="70" y="-417"/>
    </contour>
    <contour>
      <point x="198" y="-307" type="curve" smooth="yes"/>
      <point x="198" y="-353"/>
      <point x="232" y="-387"/>
      <point x="278" y="-387" type="curve" smooth="yes"/>
      <point x="324" y="-387"/>
      <point x="358" y="-353"/>
      <point x="358" y="-307" type="curve" smooth="yes"/>
      <point x="358" y="-261"/>
      <point x="324" y="-227"/>
      <point x="278" y="-227" type="curve" smooth="yes"/>
      <point x="232" y="-227"/>
      <point x="198" y="-261"/>
    </contour>
  </outline>
</glyph>
<glyph name="gravecomb" format="2">
  <advance width="0"/>
  <unicode hex="0300"/>
  <anchor x="642" y="1224" name="_mark_anchor_left"/>
  <anchor x="642" y="1040" name="_top_center"/>
  <outline>
    <contour>
      <point x="563" y="1224" type="line"/>
      <point x="337" y="1480" type="line"/>
      <point x="563" y="1480" type="line"/>
      <point x="741" y="1224" type="line"/>
    </contour>
  </outline>
</glyph>
<glyph name="acutecomb" format="2">
  <advance width="0"/>
  <unicode hex="0301"/>
  <anchor x="587" y="1092" name="_circumflex_right"/>
  <anchor x="642" y="1040" name="_top_center"/>
  <outline>
    <contour>
      <point x="721" y="1224" type="line"/>
      <point x="543" y="1224" type="line"/>
      <point x="721" y="1480" type="line"/>
      <point x="947" y="1480" type="line"/>
    </contour>
  </outline>
</glyph>
<glyph name="uni0304" format="2">
  <advance width="0"/>
  <unicode hex="0304"/>
  <anchor x="642" y="1144" name="_mkmk_top_center"/>
  <anchor x="642" y="1364" name="mkmk_top_center"/>
  <anchor x="642" y="1040" name="_top_center"/>
  <outline>
    <contour>
      <point x="337" y="1224" type="line"/>
      <point x="337" y="1364" type="line"/>
      <point x="947" y="1364" type="line"/>
      <point x="947" y="1224" type="line"/>
    </contour>
  </outline>
</glyph>
<glyph name="uni0307" format="2">
  <advance width="0"/>
  <unicode hex="0307"/>
  <anchor x="642" y="1372" name="_mark_anchor_center"/>
  <anchor x="642" y="1580" name="mark_anchor_top"/>
  <anchor x="642" y="1040" name="_top_center"/>
  <outline>
    <contour>
      <point x="514" y="1372" type="curve" smooth="yes"/>
      <point x="514" y="1444"/>
      <point x="570" y="1500"/>
      <point x="642" y="1500" type="curve" smooth="yes"/>
      <point x="714" y="1500"/>
      <point x="770" y="1444"/>
      <point x="770" y="1372" type="curve" smooth="yes"/>
      <point x="770" y="1300"/>
      <point x="714" y="1244"/>
      <point x="642" y="1244" type="curve" smooth="yes"/>
      <point x="570" y="1244"/>
      <point x="514" y="1300"/>
    </contour>
  </outline>
</glyph>
<glyph name="uni0308" format="2">
  <advance width="0"/>
  <unicode hex="0308"/>
  <anchor x="642" y="1372" name="_mark_anchor_5"/>
  <anchor x="642" y="1525" name="mark_anchor_5"/>
  <anchor x="642" y="1641" name="mark_anchor_2"/>
  <anchor x="642" y="1480" name="mark_anchor_6"/>
  <anchor x="642" y="1480" name="mark_anchor_4"/>
  <anchor x="642" y="1040" name="_top_center"/>
  <outline>
    <contour>
      <point x="737" y="1372" type="curve" smooth="yes"/>
      <point x="737" y="1444"/>
      <point x="793" y="1500"/>
      <point x="865" y="1500" type="curve" smooth="yes"/>
      <point x="937" y="1500"/>
      <point x="993" y="1444"/>
      <point x="993" y="1372" type="curve" smooth="yes"/>
      <point x="993" y="1300"/>
      <point x="937" y="1244"/>
      <point x="865" y="1244" type="curve" smooth="yes"/>
      <point x="793" y="1244"/>
      <point x="737" y="1300"/>
    </contour>
    <contour>
      <point x="289" y="1372" type="curve" smooth="yes"/>
      <point x="289" y="1444"/>
      <point x="345" y="1500"/>
      <point x="417" y="1500" type="curve" smooth="yes"/>
      <point x="489" y="1500"/>
      <point x="545" y="1444"/>
      <point x="545" y="1372" type="curve" smooth="yes"/>
      <point x="545" y="1300"/>
      <point x="489" y="1244"/>
      <point x="417" y="1244" type="curve" smooth="yes"/>
      <point x="345" y="1244"/>
      <point x="289" y="1300"/>
    </contour>
  </outline>
</glyph>
<glyph name="hookabovecomb" format="2">
  <advance width="0"/>
  <unicode hex="0309"/>
  <anchor x="642" y="1144" name="_mkmk_top_center"/>
  <anchor x="642" y="1538" name="mkmk_top_center"/>
  <anchor x="642" y="1040" name="_top_center"/>
  <outline>
    <contour>
      <point x="578" y="1354" type="line"/>
      <point x="642" y="1354" type="line"/>
      <point x="706" y="1308" type="line"/>
      <point x="706" y="1196" type="line"/>
      <point x="578" y="1196" type="line"/>
    </contour>
    <contour>
      <point x="513" y="1405" type="curve"/>
      <point x="479" y="1523" type="line"/>
      <point x="479" y="1523"/>
      <point x="554" y="1558"/>
      <point x="628" y="1558" type="curve" smooth="yes"/>
      <point x="752" y="1558"/>
      <point x="835" y="1496"/>
      <point x="835" y="1396" type="curve" smooth="yes"/>
      <point x="835" y="1306"/>
      <point x="752" y="1257"/>
      <point x="642" y="1257" type="curve"/>
      <point x="642" y="1354" type="line"/>
      <point x="687" y="1354"/>
      <point x="708" y="1366"/>
      <point x="708" y="1396" type="curve" smooth="yes"/>
      <point x="708" y="1416"/>
      <point x="683" y="1437"/>
      <point x="628" y="1437" type="curve" smooth="yes"/>
      <point x="558" y="1437"/>
      <point x="513" y="1405"/>
    </contour>
  </outline>
</glyph>
<glyph name="uni030A" format="2">
  <advance width="0"/>
  <unicode hex="030A"/>
  <anchor x="642" y="1538" name="mkmk_top_center"/>
  <anchor x="642" y="1144" name="_mkmk_top_center"/>
  <anchor x="642" y="1040" name="_top_center"/>
  <outline>
    <contour>
      <point x="434" y="1347" type="curve" smooth="yes"/>
      <point x="434" y="1457"/>
      <point x="532" y="1544"/>
      <point x="642" y="1544" type="curve" smooth="yes"/>
      <point x="752" y="1544"/>
      <point x="850" y="1457"/>
      <point x="850" y="1347" type="curve" smooth="yes"/>
      <point x="850" y="1237"/>
      <point x="752" y="1150"/>
      <point x="642" y="1150" type="curve" smooth="yes"/>
      <point x="532" y="1150"/>
      <point x="434" y="1237"/>
    </contour>
    <contour>
      <point x="562" y="1347" type="curve" smooth="yes"/>
      <point x="562" y="1301"/>
      <point x="596" y="1267"/>
      <point x="642" y="1267" type="curve" smooth="yes"/>
      <point x="688" y="1267"/>
      <point x="722" y="1301"/>
      <point x="722" y="1347" type="curve" smooth="yes"/>
      <point x="722" y="1393"/>
      <point x="688" y="1427"/>
      <point x="642" y="1427" type="curve" smooth="yes"/>
      <point x="596" y="1427"/>
      <point x="562" y="1393"/>
    </contour>
  </outline>
</glyph>
<glyph name="uni030C" format="2">
  <advance width="0"/>
  <unicode hex="030C"/>
  <anchor x="642" y="1480" name="mkmk_top_center"/>
  <anchor x="642" y="1144" name="_mkmk_top_center"/>
  <anchor x="642" y="1040" name="_top_center"/>
  <outline>
    <contour>
      <point x="529" y="1480" type="line"/>
      <point x="737" y="1224" type="line"/>
      <point x="547" y="1224" type="line"/>
      <point x="351" y="1480" type="line"/>
    </contour>
    <contour>
      <point x="755" y="1480" type="line"/>
      <point x="933" y="1480" type="line"/>
      <point x="737" y="1224" type="line"/>
      <point x="547" y="1224" type="line"/>
    </contour>
  </outline>
</glyph>
<glyph name="uni030D" format="2">
  <advance width="0"/>
  <unicode hex="030D"/>
  <anchor x="642" y="1376" name="mkmk_top_center"/>
  <anchor x="642" y="1040" name="_mkmk_top_center"/>
  <anchor x="642" y="1040" name="_top_center"/>
  <outline>
    <contour>
      <point x="721" y="1224" type="line"/>
      <point x="543" y="1224" type="line"/>
      <point x="543" y="1480" type="line"/>
      <point x="721" y="1480" type="line"/>
    </contour>
  </outline>
</glyph>
<glyph name="uni030F" format="2">
  <advance width="0"/>
  <unicode hex="030F"/>
  <anchor x="642" y="1040" name="_top_center"/>
  <outline>
    <contour>
      <point x="401" y="1224" type="line"/>
      <point x="579" y="1224" type="line"/>
      <point x="401" y="1480" type="line"/>
      <point x="175" y="1480" type="line"/>
    </contour>
    <contour>
      <point x="805" y="1224" type="line"/>
      <point x="983" y="1224" type="line"/>
      <point x="805" y="1480" type="line"/>
      <point x="579" y="1480" type="line"/>
    </contour>
  </outline>
</glyph>
<glyph name="uni0311" format="2">
  <advance width="0"/>
  <unicode hex="0311"/>
  <anchor x="642" y="1040" name="_top_center"/>
  <outline>
    <contour>
      <point x="642" y="1490" type="curve" smooth="yes"/>
      <point x="492" y="1490"/>
      <point x="362" y="1364"/>
      <point x="362" y="1224" type="curve"/>
      <point x="522" y="1224" type="line"/>
      <point x="522" y="1290"/>
      <point x="576" y="1350"/>
      <point x="642" y="1350" type="curve" smooth="yes"/>
      <point x="708" y="1350"/>
      <point x="762" y="1290"/>
      <point x="762" y="1224" type="curve"/>
      <point x="922" y="1224" type="line"/>
      <point x="922" y="1364"/>
      <point x="792" y="1490"/>
    </contour>
  </outline>
</glyph>
<glyph name="uni0312" format="2">
  <advance width="0"/>
  <unicode hex="0312"/>
  <anchor x="642" y="1144" name="_mkmk_top_center"/>
  <anchor x="642" y="1538" name="mkmk_top_center"/>
  <anchor x="642" y="1040" name="_top_center"/>
  <outline>
    <contour>
      <point x="742" y="1256" type="curve" smooth="yes"/>
      <point x="742" y="1198"/>
      <point x="700" y="1153"/>
      <point x="642" y="1153" type="curve" smooth="yes"/>
      <point x="586" y="1153"/>
      <point x="541" y="1198"/>
      <point x="541" y="1256" type="curve" smooth="yes"/>
      <point x="541" y="1314"/>
      <point x="584" y="1358"/>
      <point x="642" y="1358" type="curve" smooth="yes"/>
      <point x="700" y="1358"/>
      <point x="742" y="1314"/>
    </contour>
    <contour>
      <point x="730" y="1471" type="line"/>
      <point x="684" y="1461"/>
      <point x="613" y="1422"/>
      <point x="613" y="1326" type="curve" smooth="yes"/>
      <point x="613" y="1304"/>
      <point x="641" y="1256"/>
      <point x="641" y="1256" type="curve"/>
      <point x="642" y="1153" type="line"/>
      <point x="586" y="1153"/>
      <point x="512" y="1190"/>
      <point x="512" y="1326" type="curve" smooth="yes"/>
      <point x="512" y="1470"/>
      <point x="644" y="1547"/>
      <point x="706" y="1563" type="curve"/>
    </contour>
  </outline>
</glyph>
<glyph name="uni0314" format="2">
  <advance width="0"/>
  <unicode hex="0314"/>
  <anchor x="642" y="1450" name="mkmk_top_center"/>
  <anchor x="642" y="1040" name="_mkmk_top_center"/>
  <anchor x="642" y="1040" name="_top_center"/>
  <outline>
    <contour>
      <point x="742" y="1460" type="curve" smooth="yes"/>
      <point x="742" y="1518"/>
      <point x="700" y="1563"/>
      <point x="642" y="1563" type="curve" smooth="yes"/>
      <point x="586" y="1563"/>
      <point x="541" y="1518"/>
      <point x="541" y="1460" type="curve" smooth="yes"/>
      <point x="541" y="1402"/>
      <point x="584" y="1358"/>
      <point x="642" y="1358" type="curve" smooth="yes"/>
      <point x="700" y="1358"/>
      <point x="742" y="1402"/>
    </contour>
    <contour>
      <point x="730" y="1245" type="line"/>
      <point x="684" y="1255"/>
      <point x="613" y="1294"/>
      <point x="613" y="1390" type="curve" smooth="yes"/>
      <point x="613" y="1412"/>
      <point x="641" y="1460"/>
      <point x="641" y="1460" type="curve"/>
      <point x="642" y="1563" type="line"/>
      <point x="586" y="1563"/>
      <point x="512" y="1526"/>
      <point x="512" y="1390" type="curve" smooth="yes"/>
      <point x="512" y="1246"/>
      <point x="644" y="1169"/>
      <point x="706" y="1153" type="curve"/>
    </contour>
  </outline>
</glyph>
<glyph name="uni031B" format="2">
  <advance width="0"/>
  <unicode hex="031B"/>
  <anchor x="0" y="1480" name="_top_right"/>
  <outline>
    <contour>
      <point x="169" y="1319" type="curve"/>
      <point x="162" y="1316"/>
      <point x="157" y="1315"/>
      <point x="149" y="1315" type="curve" smooth="yes"/>
      <point x="97" y="1315"/>
      <point x="53" y="1355"/>
      <point x="53" y="1407" type="curve" smooth="yes"/>
      <point x="53" y="1459"/>
      <point x="97" y="1500"/>
      <point x="149" y="1500" type="curve" smooth="yes"/>
      <point x="199" y="1500"/>
      <point x="272" y="1466"/>
      <point x="272" y="1344" type="curve" smooth="yes"/>
      <point x="272" y="1214"/>
      <point x="172" y="1100"/>
      <point x="0" y="1063" type="curve"/>
      <point x="0" y="1175" type="line"/>
      <point x="127" y="1207"/>
      <point x="169" y="1270"/>
    </contour>
  </outline>
</glyph>
<glyph name="dotbelowcomb" format="2">
  <advance width="0"/>
  <unicode hex="0323"/>
  <anchor x="642" y="0" name="_bottom_center"/>
  <outline>
    <contour>
      <point x="514" y="-312" type="curve" smooth="yes"/>
      <point x="514" y="-240"/>
      <point x="570" y="-184"/>
      <point x="642" y="-184" type="curve" smooth="yes"/>
      <point x="714" y="-184"/>
      <point x="770" y="-240"/>
      <point x="770" y="-312" type="curve" smooth="yes"/>
      <point x="770" y="-384"/>
      <point x="714" y="-440"/>
      <point x="642" y="-440" type="curve" smooth="yes"/>
      <point x="570" y="-440"/>
      <point x="514" y="-384"/>
    </contour>
  </outline>
</glyph>
<glyph name="uni0324" format="2">
  <advance width="0"/>
  <unicode hex="0324"/>
  <anchor x="642" y="0" name="_bottom_center"/>
  <outline>
    <contour>
      <point x="738" y="-312" type="curve" smooth="yes"/>
      <point x="738" y="-240"/>
      <point x="794" y="-184"/>
      <point x="866" y="-184" type="curve" smooth="yes"/>
      <point x="938" y="-184"/>
      <point x="994" y="-240"/>
      <point x="994" y="-312" type="curve" smooth="yes"/>
      <point x="994" y="-384"/>
      <point x="938" y="-440"/>
      <point x="866" y="-440" type="curve" smooth="yes"/>
      <point x="794" y="-440"/>
      <point x="738" y="-384"/>
    </contour>
    <contour>
      <point x="290" y="-312" type="curve" smooth="yes"/>
      <point x="290" y="-240"/>
      <point x="346" y="-184"/>
      <point x="418" y="-184" type="curve" smooth="yes"/>
      <point x="490" y="-184"/>
      <point x="546" y="-240"/>
      <point x="546" y="-312" type="curve" smooth="yes"/>
      <point x="546" y="-384"/>
      <point x="490" y="-440"/>
      <point x="418" y="-440" type="curve" smooth="yes"/>
      <point x="346" y="-440"/>
      <point x="290" y="-384"/>
    </contour>
  </outline>
</glyph>
<glyph name="uni0326" format="2">
  <advance width="0"/>
  <unicode hex="0326"/>
  <anchor x="642" y="0" name="_mkmk_bottom_center"/>
  <anchor x="642" y="-409" name="mkmk_bottom_center"/>
  <anchor x="642" y="0" name="_bottom_center"/>
  <outline>
    <contour>
      <point x="542" y="-216" type="curve" smooth="yes"/>
      <point x="542" y="-158"/>
      <point x="584" y="-113"/>
      <point x="642" y="-113" type="curve" smooth="yes"/>
      <point x="698" y="-113"/>
      <point x="743" y="-158"/>
      <point x="743" y="-216" type="curve" smooth="yes"/>
      <point x="743" y="-274"/>
      <point x="700" y="-318"/>
      <point x="642" y="-318" type="curve" smooth="yes"/>
      <point x="584" y="-318"/>
      <point x="542" y="-274"/>
    </contour>
    <contour>
      <point x="554" y="-431" type="line"/>
      <point x="600" y="-421"/>
      <point x="671" y="-382"/>
      <point x="671" y="-286" type="curve" smooth="yes"/>
      <point x="671" y="-264"/>
      <point x="643" y="-216"/>
      <point x="643" y="-216" type="curve"/>
      <point x="642" y="-113" type="line"/>
      <point x="698" y="-113"/>
      <point x="772" y="-150"/>
      <point x="772" y="-286" type="curve" smooth="yes"/>
      <point x="772" y="-430"/>
      <point x="640" y="-507"/>
      <point x="578" y="-523" type="curve"/>
    </contour>
  </outline>
</glyph>
<glyph name="uni0327" format="2">
  <advance width="0"/>
  <unicode hex="0327"/>
  <anchor x="642" y="-20" name="_bottom_cedilla"/>
  <outline>
    <contour>
      <point x="485" y="-291" type="curve"/>
      <point x="593" y="-229" type="line"/>
      <point x="611" y="-258"/>
      <point x="636" y="-263"/>
      <point x="657" y="-263" type="curve" smooth="yes"/>
      <point x="689" y="-263"/>
      <point x="710" y="-240"/>
      <point x="710" y="-216" type="curve" smooth="yes"/>
      <point x="710" y="-192"/>
      <point x="689" y="-169"/>
      <point x="657" y="-169" type="curve" smooth="yes"/>
      <point x="635" y="-169"/>
      <point x="617" y="-178"/>
      <point x="609" y="-192" type="curve"/>
      <point x="501" y="-130" type="line"/>
      <point x="533" y="-84"/>
      <point x="592" y="-52"/>
      <point x="657" y="-52" type="curve" smooth="yes"/>
      <point x="757" y="-52"/>
      <point x="837" y="-126"/>
      <point x="837" y="-216" type="curve" smooth="yes"/>
      <point x="837" y="-306"/>
      <point x="757" y="-380"/>
      <point x="657" y="-380" type="curve" smooth="yes"/>
      <point x="591" y="-380"/>
      <point x="523" y="-352"/>
    </contour>
    <contour>
      <point x="578" y="0" type="line"/>
      <point x="706" y="0" type="line"/>
      <point x="610" y="-165" type="line"/>
      <point x="609" y="-192" type="line"/>
      <point x="502" y="-131" type="line"/>
    </contour>
  </outline>
</glyph>
<glyph name="uni0328" format="2">
  <advance width="0"/>
  <unicode hex="0328"/>
  <anchor x="642" y="0" name="_mkmk_bottom_center"/>
  <anchor x="642" y="-336" name="mkmk_bottom_center"/>
  <anchor x="779" y="0" name="_bottom_right"/>
  <outline>
    <contour>
      <point x="746" y="-225" type="curve"/>
      <point x="804" y="-326" type="line"/>
      <point x="749" y="-364"/>
      <point x="706" y="-380"/>
      <point x="642" y="-380" type="curve" smooth="yes"/>
      <point x="542" y="-380"/>
      <point x="452" y="-324"/>
      <point x="452" y="-204" type="curve" smooth="yes"/>
      <point x="452" y="-84"/>
      <point x="644" y="44"/>
      <point x="699" y="80" type="curve"/>
      <point x="779" y="0" type="line"/>
      <point x="671" y="-78"/>
      <point x="579" y="-137"/>
      <point x="579" y="-204" type="curve" smooth="yes"/>
      <point x="579" y="-240"/>
      <point x="606" y="-263"/>
      <point x="642" y="-263" type="curve" smooth="yes"/>
      <point x="678" y="-263"/>
      <point x="712" y="-250"/>
    </contour>
  </outline>
</glyph>
<glyph name="uni032E" format="2">
  <advance width="0"/>
  <unicode hex="032E"/>
  <anchor x="642" y="-614" name="_bottom_center"/>
  <outline>
    <contour>
      <point x="643" y="-440" type="curve" smooth="yes"/>
      <point x="493" y="-440"/>
      <point x="363" y="-314"/>
      <point x="363" y="-174" type="curve"/>
      <point x="523" y="-174" type="line"/>
      <point x="523" y="-240"/>
      <point x="577" y="-300"/>
      <point x="643" y="-300" type="curve" smooth="yes"/>
      <point x="709" y="-300"/>
      <point x="763" y="-240"/>
      <point x="763" y="-174" type="curve"/>
      <point x="923" y="-174" type="line"/>
      <point x="923" y="-314"/>
      <point x="793" y="-440"/>
    </contour>
  </outline>
</glyph>
<glyph name="uni032F" format="2">
  <advance width="0"/>
  <unicode hex="032F"/>
  <anchor x="642" y="0" name="_bottom_center"/>
  <outline>
    <contour>
      <point x="643" y="-174" type="curve" smooth="yes"/>
      <point x="493" y="-174"/>
      <point x="363" y="-300"/>
      <point x="363" y="-440" type="curve"/>
      <point x="523" y="-440" type="line"/>
      <point x="523" y="-374"/>
      <point x="577" y="-314"/>
      <point x="643" y="-314" type="curve" smooth="yes"/>
      <point x="709" y="-314"/>
      <point x="763" y="-374"/>
      <point x="763" y="-440" type="curve"/>
      <point x="923" y="-440" type="line"/>
      <point x="923" y="-300"/>
      <point x="793" y="-174"/>
    </contour>
  </outline>
</glyph>
<glyph name="uni0330" format="2">
  <advance width="0"/>
  <unicode hex="0330"/>
  <anchor x="642" y="0" name="_bottom_center"/>
  <outline>
    <contour>
      <point x="444" y="-447" type="curve"/>
      <point x="305" y="-410" type="line"/>
      <point x="321" y="-274"/>
      <point x="411" y="-184"/>
      <point x="519" y="-184" type="curve" smooth="yes"/>
      <point x="651" y="-184"/>
      <point x="685" y="-320"/>
      <point x="765" y="-320" type="curve" smooth="yes"/>
      <point x="813" y="-320"/>
      <point x="835" y="-257"/>
      <point x="840" y="-197" type="curve"/>
      <point x="979" y="-234" type="line"/>
      <point x="963" y="-370"/>
      <point x="873" y="-460"/>
      <point x="765" y="-460" type="curve" smooth="yes"/>
      <point x="633" y="-460"/>
      <point x="599" y="-324"/>
      <point x="519" y="-324" type="curve" smooth="yes"/>
      <point x="471" y="-324"/>
      <point x="449" y="-387"/>
    </contour>
  </outline>
</glyph>
<glyph name="uni0338" format="2">
  <advance width="0"/>
  <unicode hex="0338"/>
  <anchor x="642" y="740" name="_middle_center"/>
  <outline>
    <contour>
      <point x="1057" y="1596" type="line"/>
      <point x="1185" y="1500" type="line"/>
      <point x="-72" y="-116" type="line"/>
      <point x="-200" y="-20" type="line"/>
    </contour>
  </outline>
</glyph>
<glyph name="uni0342" format="2">
  <advance width="0"/>
  <unicode hex="0342"/>
  <anchor x="642" y="1040" name="_mkmk_top_center"/>
  <anchor x="642" y="1376" name="mkmk_top_center"/>
  <anchor x="642" y="1040" name="_top_center"/>
  <outline>
    <contour>
      <point x="440" y="1237" type="curve"/>
      <point x="301" y="1274" type="line"/>
      <point x="317" y="1410"/>
      <point x="407" y="1500"/>
      <point x="515" y="1500" type="curve" smooth="yes"/>
      <point x="647" y="1500"/>
      <point x="681" y="1364"/>
      <point x="761" y="1364" type="curve" smooth="yes"/>
      <point x="809" y="1364"/>
      <point x="831" y="1427"/>
      <point x="836" y="1487" type="curve"/>
      <point x="975" y="1450" type="line"/>
      <point x="959" y="1314"/>
      <point x="869" y="1224"/>
      <point x="761" y="1224" type="curve" smooth="yes"/>
      <point x="629" y="1224"/>
      <point x="595" y="1360"/>
      <point x="515" y="1360" type="curve" smooth="yes"/>
      <point x="467" y="1360"/>
      <point x="445" y="1297"/>
    </contour>
  </outline>
</glyph>
<glyph name="uni0345" format="2">
  <advance width="0"/>
  <unicode hex="0345"/>
  <anchor x="642" y="-90" name="_bottom_ypogegrammeni"/>
  <outline>
    <contour>
      <point x="798" y="-331" type="curve"/>
      <point x="825" y="-442" type="line"/>
      <point x="810" y="-452"/>
      <point x="782" y="-460"/>
      <point x="760" y="-460" type="curve" smooth="yes"/>
      <point x="643" y="-460"/>
      <point x="575" y="-410"/>
      <point x="575" y="-304" type="curve" smooth="yes"/>
      <point x="575" y="-175" type="line"/>
      <point x="575" y="-109" type="line"/>
      <point x="575" y="-90" type="line"/>
      <point x="709" y="-90" type="line"/>
      <point x="709" y="-98" type="line"/>
      <point x="709" y="-161" type="line"/>
      <point x="709" y="-286" type="line" smooth="yes"/>
      <point x="709" y="-322"/>
      <point x="728" y="-340"/>
      <point x="766" y="-340" type="curve" smooth="yes"/>
      <point x="776" y="-340"/>
      <point x="790" y="-335"/>
    </contour>
  </outline>
</glyph>
<glyph name="uni0372" format="2">
  <advance width="1398"/>
  <unicode hex="0372"/>
  <outline>
    <contour>
      <point x="1068" y="820" type="line"/>
      <point x="1068" y="1312" type="line"/>
      <point x="1258" y="1312" type="line"/>
      <point x="1258" y="820" type="line"/>
    </contour>
    <contour>
      <point x="140" y="820" type="line"/>
      <point x="140" y="1312" type="line"/>
      <point x="330" y="1312" type="line"/>
      <point x="330" y="820" type="line"/>
    </contour>
    <contour>
      <point x="794" y="0" type="line"/>
      <point x="604" y="0" type="line"/>
      <point x="604" y="1312" type="line"/>
      <point x="140" y="1312" type="line"/>
      <point x="140" y="1480" type="line"/>
      <point x="1258" y="1480" type="line"/>
      <point x="1258" y="1312" type="line"/>
      <point x="794" y="1312" type="line"/>
    </contour>
  </outline>
</glyph>
<glyph name="uni0373" format="2">
  <advance width="1180"/>
  <unicode hex="0373"/>
  <outline>
    <contour>
      <point x="820" y="820" type="line"/>
      <point x="820" y="1320" type="line"/>
      <point x="1000" y="1320" type="line"/>
      <point x="1000" y="820" type="line"/>
    </contour>
    <contour>
      <point x="180" y="820" type="line"/>
      <point x="180" y="1320" type="line"/>
      <point x="360" y="1320" type="line"/>
      <point x="360" y="820" type="line"/>
    </contour>
    <contour>
      <point x="680" y="0" type="line"/>
      <point x="500" y="0" type="line"/>
      <point x="500" y="1320" type="line"/>
      <point x="180" y="1320" type="line"/>
      <point x="180" y="1480" type="line"/>
      <point x="1000" y="1480" type="line"/>
      <point x="1000" y="1320" type="line"/>
      <point x="680" y="1320" type="line"/>
    </contour>
  </outline>
</glyph>
<glyph name="uni037D" format="2">
  <advance width="1142"/>
  <unicode hex="037D"/>
  <outline>
    <contour>
      <point x="419" y="520" type="curve" smooth="yes"/>
      <point x="419" y="592"/>
      <point x="472" y="649"/>
      <point x="544" y="649" type="curve" smooth="yes"/>
      <point x="616" y="649"/>
      <point x="671" y="592"/>
      <point x="671" y="520" type="curve" smooth="yes"/>
      <point x="671" y="448"/>
      <point x="616" y="393"/>
      <point x="544" y="393" type="curve" smooth="yes"/>
      <point x="472" y="393"/>
      <point x="419" y="448"/>
    </contour>
    <contour>
      <point x="862" y="520" type="curve" smooth="yes"/>
      <point x="862" y="300"/>
      <point x="735" y="140"/>
      <point x="544" y="140" type="curve" smooth="yes"/>
      <point x="403" y="140"/>
      <point x="302" y="207"/>
      <point x="253" y="340" type="curve"/>
      <point x="100" y="252" type="line"/>
      <point x="183" y="74"/>
      <point x="345" y="-20"/>
      <point x="544" y="-20" type="curve" smooth="yes"/>
      <point x="825" y="-20"/>
      <point x="1042" y="208"/>
      <point x="1042" y="520" type="curve" smooth="yes"/>
      <point x="1042" y="832"/>
      <point x="825" y="1060"/>
      <point x="544" y="1060" type="curve" smooth="yes"/>
      <point x="345" y="1060"/>
      <point x="183" y="966"/>
      <point x="100" y="788" type="curve"/>
      <point x="253" y="700" type="line"/>
      <point x="302" y="833"/>
      <point x="403" y="900"/>
      <point x="544" y="900" type="curve" smooth="yes"/>
      <point x="735" y="900"/>
      <point x="862" y="740"/>
    </contour>
  </outline>
</glyph>
<glyph name="tonos" format="2">
  <advance width="544"/>
  <unicode hex="0384"/>
  <anchor x="170" y="1040" name="_greek_t"/>
  <outline>
    <contour>
      <point x="248" y="1224" type="line"/>
      <point x="474" y="1480" type="line"/>
      <point x="248" y="1480" type="line"/>
      <point x="70" y="1224" type="line"/>
    </contour>
  </outline>
</glyph>
<glyph name="dieresistonos" format="2">
  <advance width="844"/>
  <unicode hex="0385"/>
  <anchor x="421" y="1040" name="_top_center"/>
  <outline>
    <contour>
      <point x="511" y="1436" type="line"/>
      <point x="333" y="1436" type="line"/>
      <point x="511" y="1692" type="line"/>
      <point x="737" y="1692" type="line"/>
    </contour>
    <contour>
      <point x="326" y="1352" type="curve" smooth="yes"/>
      <point x="326" y="1280"/>
      <point x="270" y="1224"/>
      <point x="198" y="1224" type="curve" smooth="yes"/>
      <point x="126" y="1224"/>
      <point x="70" y="1280"/>
      <point x="70" y="1352" type="curve" smooth="yes"/>
      <point x="70" y="1424"/>
      <point x="126" y="1480"/>
      <point x="198" y="1480" type="curve" smooth="yes"/>
      <point x="270" y="1480"/>
      <point x="326" y="1424"/>
    </contour>
    <contour>
      <point x="774" y="1352" type="curve" smooth="yes"/>
      <point x="774" y="1280"/>
      <point x="718" y="1224"/>
      <point x="646" y="1224" type="curve" smooth="yes"/>
      <point x="574" y="1224"/>
      <point x="518" y="1280"/>
      <point x="518" y="1352" type="curve" smooth="yes"/>
      <point x="518" y="1424"/>
      <point x="574" y="1480"/>
      <point x="646" y="1480" type="curve" smooth="yes"/>
      <point x="718" y="1480"/>
      <point x="774" y="1424"/>
    </contour>
  </outline>
</glyph>
<glyph name="uni0394" format="2">
  <advance width="1496"/>
  <unicode hex="0394"/>
  <anchor x="748" y="1380" name="top_center"/>
  <anchor x="748" y="0" name="bottom_center"/>
  <outline>
    <contour>
      <point x="140" y="0" type="line"/>
      <point x="1356" y="0" type="line"/>
      <point x="1356" y="152" type="line"/>
      <point x="1200" y="168" type="line"/>
      <point x="296" y="168" type="line"/>
      <point x="140" y="152" type="line"/>
    </contour>
    <contour>
      <point x="748" y="1230" type="line"/>
      <point x="1160" y="168" type="line"/>
      <point x="1356" y="152" type="line"/>
      <point x="846" y="1480" type="line"/>
      <point x="650" y="1480" type="line"/>
      <point x="140" y="152" type="line"/>
      <point x="336" y="168" type="line"/>
    </contour>
  </outline>
</glyph>
<glyph name="Pi" format="2">
  <advance width="1398"/>
  <unicode hex="03A0"/>
  <anchor x="699" y="1380" name="top_center"/>
  <anchor x="699" y="0" name="bottom_center"/>
  <outline>
    <contour>
      <point x="1258" y="1480" type="line"/>
      <point x="1258" y="0" type="line"/>
      <point x="1068" y="0" type="line"/>
      <point x="1068" y="1311" type="line"/>
      <point x="330" y="1311" type="line"/>
      <point x="330" y="0" type="line"/>
      <point x="140" y="0" type="line"/>
      <point x="140" y="1480" type="line"/>
    </contour>
  </outline>
</glyph>
<glyph name="alpha" format="2">
  <advance width="1341"/>
  <unicode hex="03B1"/>
  <anchor x="638" y="1040" name="top_center_1F"/>
  <anchor x="643" y="-90" name="bottom_ypogegrammeni"/>
  <anchor x="598" y="-0" name="bottom_center"/>
  <anchor x="638" y="1040" name="top_center"/>
  <outline>
    <contour>
      <point x="578" y="900" type="curve" smooth="yes"/>
      <point x="398" y="900"/>
      <point x="280" y="750"/>
      <point x="280" y="520" type="curve" smooth="yes"/>
      <point x="280" y="290"/>
      <point x="398" y="140"/>
      <point x="578" y="140" type="curve" smooth="yes"/>
      <point x="741" y="140"/>
      <point x="910" y="290"/>
      <point x="910" y="520" type="curve"/>
      <point x="1044" y="1040" type="line"/>
      <point x="1224" y="1040" type="line"/>
      <point x="1084" y="520" type="line"/>
      <point x="982" y="175"/>
      <point x="871" y="-20"/>
      <point x="578" y="-20" type="curve" smooth="yes"/>
      <point x="297" y="-20"/>
      <point x="100" y="208"/>
      <point x="100" y="520" type="curve" smooth="yes"/>
      <point x="100" y="832"/>
      <point x="297" y="1060"/>
      <point x="578" y="1060" type="curve" smooth="yes"/>
      <point x="1058" y="1060"/>
      <point x="1025" y="523"/>
      <point x="1133" y="190" type="curve" smooth="yes"/>
      <point x="1145" y="154"/>
      <point x="1173" y="140"/>
      <point x="1217" y="140" type="curve" smooth="yes"/>
      <point x="1233" y="140"/>
      <point x="1257" y="149"/>
      <point x="1269" y="156" type="curve"/>
      <point x="1311" y="4" type="line"/>
      <point x="1289" y="-9"/>
      <point x="1249" y="-20"/>
      <point x="1217" y="-20" type="curve" smooth="yes"/>
      <point x="1087" y="-20"/>
      <point x="1000" y="17"/>
      <point x="965" y="125" type="curve" smooth="yes"/>
      <point x="883" y="378"/>
      <point x="898" y="900"/>
    </contour>
  </outline>
</glyph>
